<svg width="288" height="147" viewBox="0 0 288 147" fill="none" xmlns="http://www.w3.org/2000/svg">
<rect x="0.5" y="30.5" width="287" height="87" rx="15.5" fill="#E6F9FF"/>
<g opacity="0.07">
<rect x="-0.000488281" width="71.05" height="147" rx="35.525" fill="#00BFFF"/>
<rect x="80.8496" y="29.3989" width="88.2" height="88.2" rx="26.2128" fill="#00BFFF"/>
<path d="M178.849 9.58396C178.849 4.29089 183.158 -0.0644269 188.406 0.623742C204.373 2.71738 219.309 10.0161 230.821 21.5276C244.605 35.3116 252.349 54.0066 252.349 73.5C252.349 92.9934 244.605 111.688 230.821 125.472C219.309 136.984 204.373 144.283 188.406 146.376C183.158 147.064 178.849 142.709 178.849 137.416C178.849 132.123 183.172 127.918 188.383 126.989C199.252 125.052 209.354 119.832 217.267 111.919C227.456 101.729 233.181 87.9098 233.181 73.5C233.181 59.0902 227.456 45.2707 217.267 35.0814C209.354 27.1683 199.252 21.9482 188.383 20.0108C183.172 19.082 178.849 14.877 178.849 9.58396Z" fill="#00BFFF"/>
<path d="M178.849 39.8318C178.849 33.0556 184.435 27.4044 190.977 29.17C198.771 31.2737 205.956 35.3885 211.764 41.1966C220.494 49.9265 225.399 61.7666 225.399 74.1125C225.399 86.4583 220.494 98.2985 211.764 107.028C205.956 112.836 198.771 116.951 190.977 119.055C184.435 120.821 178.849 115.169 178.849 108.393C178.849 101.617 184.742 96.3763 190.493 92.7918C191.903 91.913 193.219 90.8705 194.413 89.6768C198.541 85.5489 200.86 79.9502 200.86 74.1125C200.86 68.2747 198.541 62.676 194.413 58.5481C193.219 57.3544 191.903 56.312 190.493 55.4331C184.742 51.8487 178.849 46.608 178.849 39.8318Z" fill="#00BFFF"/>
</g>
<rect x="0.5" y="30.5" width="287" height="87" rx="15.5" stroke="#00BFFF"/>
</svg>
