<svg width="32" height="32" viewBox="0 0 32 32" fill="none" xmlns="http://www.w3.org/2000/svg">
<rect width="32" height="32" rx="16" fill="white"/>
<path d="M21.5997 11.1998H20.5757L20.3197 10.3998C20.1538 9.93038 19.846 9.52421 19.4389 9.23754C19.0318 8.95087 18.5457 8.7979 18.0478 8.79982H13.9519C13.4491 8.80076 12.9594 8.95957 12.5517 9.25382C12.1441 9.54807 11.8391 9.96291 11.6799 10.4398L11.4239 11.2398H10.4C9.76344 11.2398 9.15301 11.4926 8.70293 11.9427C8.25285 12.3928 8 13.0032 8 13.6397V20.0396C8 20.6761 8.25285 21.2865 8.70293 21.7366C9.15301 22.1867 9.76344 22.4395 10.4 22.4395H21.5997C22.2362 22.4395 22.8467 22.1867 23.2967 21.7366C23.7468 21.2865 23.9997 20.6761 23.9997 20.0396V13.6397C24.005 13.3212 23.9468 13.0048 23.8286 12.709C23.7104 12.4132 23.5344 12.1439 23.311 11.9168C23.0877 11.6897 22.8213 11.5093 22.5275 11.3862C22.2337 11.2631 21.9183 11.1997 21.5997 11.1998ZM22.3997 19.9996C22.3997 20.2118 22.3154 20.4152 22.1654 20.5653C22.0154 20.7153 21.8119 20.7996 21.5997 20.7996H10.4C10.1878 20.7996 9.9843 20.7153 9.83428 20.5653C9.68425 20.4152 9.59997 20.2118 9.59997 19.9996V13.5997C9.59997 13.3876 9.68425 13.1841 9.83428 13.034C9.9843 12.884 10.1878 12.7997 10.4 12.7997H11.9999C12.1744 12.8088 12.347 12.7606 12.4915 12.6624C12.6359 12.5641 12.7442 12.4213 12.7999 12.2558L13.2319 10.9438C13.2856 10.7849 13.3878 10.6469 13.5242 10.5493C13.6606 10.4516 13.8242 10.3994 13.9919 10.3998H18.0878C18.2555 10.3994 18.4191 10.4516 18.5555 10.5493C18.6919 10.6469 18.7941 10.7849 18.8478 10.9438L19.2798 12.2558C19.3311 12.4083 19.4273 12.5419 19.5557 12.639C19.6842 12.736 19.8389 12.792 19.9998 12.7997H21.5997C21.8119 12.7997 22.0154 12.884 22.1654 13.034C22.3154 13.1841 22.3997 13.3876 22.3997 13.5997V19.9996ZM15.9998 12.7997C15.3669 12.7997 14.7483 12.9874 14.222 13.339C13.6958 13.6906 13.2857 14.1904 13.0435 14.7751C12.8013 15.3598 12.7379 16.0032 12.8614 16.6239C12.9849 17.2447 13.2896 17.8148 13.7371 18.2624C14.1847 18.7099 14.7548 19.0147 15.3756 19.1381C15.9963 19.2616 16.6397 19.1982 17.2244 18.956C17.8091 18.7138 18.3089 18.3037 18.6605 17.7775C19.0121 17.2512 19.1998 16.6326 19.1998 15.9997C19.1998 15.151 18.8626 14.3371 18.2625 13.737C17.6624 13.1369 16.8485 12.7997 15.9998 12.7997ZM15.9998 17.5996C15.6834 17.5996 15.3741 17.5058 15.1109 17.33C14.8478 17.1542 14.6428 16.9043 14.5217 16.612C14.4006 16.3196 14.3689 15.9979 14.4306 15.6875C14.4923 15.3772 14.6447 15.0921 14.8685 14.8683C15.0922 14.6446 15.3773 14.4922 15.6877 14.4304C15.9981 14.3687 16.3198 14.4004 16.6121 14.5215C16.9045 14.6426 17.1544 14.8477 17.3302 15.1108C17.506 15.3739 17.5998 15.6832 17.5998 15.9997C17.5998 16.424 17.4312 16.831 17.1312 17.131C16.8311 17.4311 16.4242 17.5996 15.9998 17.5996Z" fill="#0F0E0E"/>
</svg>
