<svg width="229" height="150" viewBox="0 0 229 150" fill="none" xmlns="http://www.w3.org/2000/svg">
<path d="M62.9481 50.0384L60.7371 50.0826L60.7237 50.0037L60.6257 50.0826L59.8116 50.0992C59.2269 50.9882 58.5992 51.8481 57.9306 52.6758C56.075 54.7502 54.2414 57.5282 53.312 61.0524C50.7219 70.8772 56.2108 82.5206 67.2754 89.7735C65.171 77.0081 62.2935 50.607 62.9481 50.0384Z" fill="#E6E6E6"/>
<path d="M67.6131 33.9802C67.2017 34.8915 64.505 40.8683 62.2277 45.746C61.7549 46.7721 61.2305 47.7736 60.6563 48.7466C60.3712 49.2291 60.0877 49.6808 59.8105 50.1017L62.9478 50.0393C63.131 49.8814 63.3135 49.7155 63.4943 49.541C69.4049 43.8082 67.7987 34.9223 67.6131 33.9802Z" fill="#E6E6E6"/>
<path d="M127.297 44.676C124.117 50.7389 106.223 47.5787 97.2398 45.7223C96.4073 45.5498 95.5755 45.3738 94.7445 45.194C94.709 45.1877 94.675 45.1798 94.6395 45.1719C90.7599 44.3419 88.8205 43.9274 87.0951 43.2862L68.449 34.1815L68.0952 34.0086C64.9303 35.1683 61.8289 36.4947 58.8042 37.9821C57.0251 38.8594 55.4592 39.7036 54.1049 40.4695C52.3716 41.4542 48.2615 43.8603 44.3606 47.5811C43.747 48.1686 40.0467 51.7023 39.2847 55.6584C39.2631 55.7716 39.2394 55.8848 39.2136 55.9979C38.3955 59.5616 35.8884 61.4465 35.2653 61.8903C34.8705 62.6902 34.0524 63.1537 33.2501 63.0598C32.3815 62.9548 31.9077 62.2377 31.8461 62.1327C31.7743 62.1943 30.9309 62.8947 29.8491 62.601C28.9599 62.3586 28.5627 61.6202 28.4972 61.4955C27.7865 62.0016 26.8689 62.0577 26.1582 61.6408C25.2849 61.1307 25.1538 60.1594 25.1396 60.0449C25.0661 60.1025 24.357 60.6427 23.7103 60.3742C23.2918 60.1997 23.1149 59.7804 23.0336 59.5798C22.4461 58.1205 23.5074 56.1195 23.6653 55.8258C26.6992 50.2612 42.2459 33.1076 51.7857 27.1063C51.7857 27.1063 52.1869 26.8544 52.9315 26.4335C56.9635 24.1601 71.0454 16.9877 85.5506 18.695C85.932 18.7408 86.311 18.7921 86.311 18.7921L86.7635 18.8576L87.0572 18.8995C90.2672 17.8074 92.3858 17.5097 97.2501 15.3579L99.3087 21.9073L99.6246 22.9156C101.527 23.8008 104.274 25.1266 107.574 26.9057C107.691 26.9689 108.291 27.2532 109.214 27.7041C113.778 29.9332 126.249 36.2465 127.394 40.2073C127.641 41.0546 128.195 42.9664 127.297 44.676Z" fill="#171717"/>
<mask id="path-4-inside-1_678_2185" fill="white">
<path d="M78.3084 119.389C75.3803 119.389 72.4183 119.326 69.315 119.203C65.6826 119.058 61.9388 118.999 57.9732 118.937C50.5907 118.82 42.9563 118.7 35.3519 118.007C35.2884 118.001 35.2288 117.973 35.1833 117.928C35.1378 117.884 35.1092 117.825 35.1024 117.761C34.721 114.186 34.8071 109.529 34.8758 105.787C34.8852 105.275 34.8947 104.777 34.9018 104.298C34.9029 104.229 34.9294 104.164 34.9761 104.114C35.0228 104.064 35.0863 104.033 35.1545 104.027C41.4125 103.498 47.8174 102.867 54.0115 102.257C60.1045 101.657 66.4012 101.037 72.5636 100.514C71.6453 96.3213 69.8385 92.8658 67.1893 90.2379C66.6006 89.6584 65.9726 89.1201 65.3099 88.627C64.7561 88.2158 64.2286 87.7704 63.7306 87.2933C60.6833 84.3281 58.9547 79.7758 58.5923 73.7627C58.5885 73.7002 58.6061 73.6382 58.6421 73.587C58.6781 73.5358 58.7304 73.4983 58.7905 73.4807C66.7419 71.1567 74.9352 69.7595 83.2074 69.3169C83.2517 69.3145 83.2959 69.3228 83.3363 69.3411C83.3767 69.3594 83.4121 69.3871 83.4396 69.422C84.8396 71.1979 86.3447 73.435 88.0883 76.0258C90.2653 79.2633 92.9747 83.2906 96.4791 87.8895C96.4847 87.8966 97.0556 88.6467 97.8942 89.8873L98.1398 90.2505C101.542 95.2822 104.755 100.036 105.36 105.994C105.525 107.667 105.49 109.354 105.255 111.019C105.254 111.031 105.251 111.043 105.248 111.055L105.218 111.162C104.649 113.179 103.477 114.975 101.861 116.308C100.244 117.642 98.2582 118.45 96.1696 118.626C89.8144 119.14 84.1313 119.389 78.3084 119.389ZM35.6283 117.476C43.1379 118.148 50.6823 118.266 57.9819 118.383C61.9507 118.446 65.6992 118.506 69.3371 118.65C78.5871 119.019 86.5982 118.847 96.1246 118.073C98.1007 117.907 99.9791 117.142 101.509 115.881C103.039 114.619 104.147 112.92 104.686 111.012L104.711 110.924C104.937 109.308 104.97 107.671 104.81 106.048C104.219 100.229 101.19 95.7472 97.6826 90.5585L97.437 90.1952C96.6079 88.9689 96.0464 88.2298 96.0409 88.2211C92.5261 83.6064 89.8121 79.5729 87.6303 76.3314C85.9301 73.8045 84.4574 71.6156 83.0945 69.8744C74.9873 70.3193 66.9572 71.6857 59.1592 73.9474C59.5407 79.7119 61.2084 84.0652 64.1167 86.8977C64.5997 87.3598 65.111 87.7912 65.6478 88.1895C66.3291 88.6971 66.9745 89.2512 67.5793 89.8478C70.3708 92.6163 72.2517 96.2708 73.1709 100.709C73.1788 100.747 73.1786 100.786 73.1702 100.825C73.1617 100.863 73.1453 100.899 73.1219 100.93C73.0985 100.961 73.0688 100.987 73.0346 101.006C73.0005 101.025 72.9627 101.037 72.9237 101.04C66.6657 101.569 60.2608 102.2 54.0668 102.81C47.9533 103.412 41.6336 104.034 35.4514 104.559C35.4443 104.962 35.4372 105.375 35.4293 105.799C35.3614 109.445 35.2777 113.966 35.6283 117.476Z"/>
</mask>
<path d="M78.3084 119.389C75.3803 119.389 72.4183 119.326 69.315 119.203C65.6826 119.058 61.9388 118.999 57.9732 118.937C50.5907 118.82 42.9563 118.7 35.3519 118.007C35.2884 118.001 35.2288 117.973 35.1833 117.928C35.1378 117.884 35.1092 117.825 35.1024 117.761C34.721 114.186 34.8071 109.529 34.8758 105.787C34.8852 105.275 34.8947 104.777 34.9018 104.298C34.9029 104.229 34.9294 104.164 34.9761 104.114C35.0228 104.064 35.0863 104.033 35.1545 104.027C41.4125 103.498 47.8174 102.867 54.0115 102.257C60.1045 101.657 66.4012 101.037 72.5636 100.514C71.6453 96.3213 69.8385 92.8658 67.1893 90.2379C66.6006 89.6584 65.9726 89.1201 65.3099 88.627C64.7561 88.2158 64.2286 87.7704 63.7306 87.2933C60.6833 84.3281 58.9547 79.7758 58.5923 73.7627C58.5885 73.7002 58.6061 73.6382 58.6421 73.587C58.6781 73.5358 58.7304 73.4983 58.7905 73.4807C66.7419 71.1567 74.9352 69.7595 83.2074 69.3169C83.2517 69.3145 83.2959 69.3228 83.3363 69.3411C83.3767 69.3594 83.4121 69.3871 83.4396 69.422C84.8396 71.1979 86.3447 73.435 88.0883 76.0258C90.2653 79.2633 92.9747 83.2906 96.4791 87.8895C96.4847 87.8966 97.0556 88.6467 97.8942 89.8873L98.1398 90.2505C101.542 95.2822 104.755 100.036 105.36 105.994C105.525 107.667 105.49 109.354 105.255 111.019C105.254 111.031 105.251 111.043 105.248 111.055L105.218 111.162C104.649 113.179 103.477 114.975 101.861 116.308C100.244 117.642 98.2582 118.45 96.1696 118.626C89.8144 119.14 84.1313 119.389 78.3084 119.389ZM35.6283 117.476C43.1379 118.148 50.6823 118.266 57.9819 118.383C61.9507 118.446 65.6992 118.506 69.3371 118.65C78.5871 119.019 86.5982 118.847 96.1246 118.073C98.1007 117.907 99.9791 117.142 101.509 115.881C103.039 114.619 104.147 112.92 104.686 111.012L104.711 110.924C104.937 109.308 104.97 107.671 104.81 106.048C104.219 100.229 101.19 95.7472 97.6826 90.5585L97.437 90.1952C96.6079 88.9689 96.0464 88.2298 96.0409 88.2211C92.5261 83.6064 89.8121 79.5729 87.6303 76.3314C85.9301 73.8045 84.4574 71.6156 83.0945 69.8744C74.9873 70.3193 66.9572 71.6857 59.1592 73.9474C59.5407 79.7119 61.2084 84.0652 64.1167 86.8977C64.5997 87.3598 65.111 87.7912 65.6478 88.1895C66.3291 88.6971 66.9745 89.2512 67.5793 89.8478C70.3708 92.6163 72.2517 96.2708 73.1709 100.709C73.1788 100.747 73.1786 100.786 73.1702 100.825C73.1617 100.863 73.1453 100.899 73.1219 100.93C73.0985 100.961 73.0688 100.987 73.0346 101.006C73.0005 101.025 72.9627 101.037 72.9237 101.04C66.6657 101.569 60.2608 102.2 54.0668 102.81C47.9533 103.412 41.6336 104.034 35.4514 104.559C35.4443 104.962 35.4372 105.375 35.4293 105.799C35.3614 109.445 35.2777 113.966 35.6283 117.476Z" fill="#171717"/>
<path d="M69.315 119.203L69.2752 120.202L69.2753 120.202L69.315 119.203ZM57.9732 118.937L57.9574 119.937L57.9575 119.937L57.9732 118.937ZM35.3519 118.007L35.2606 119.002L35.2611 119.003L35.3519 118.007ZM35.1024 117.761L34.108 117.867L34.1082 117.868L35.1024 117.761ZM34.8758 105.787L33.8759 105.768L33.8759 105.768L34.8758 105.787ZM34.9018 104.298L33.902 104.281L33.9019 104.283L34.9018 104.298ZM35.1545 104.027L35.0703 103.03L35.0689 103.03L35.1545 104.027ZM54.0115 102.257L54.1094 103.252L54.1095 103.252L54.0115 102.257ZM72.5636 100.514L72.6483 101.51L73.7845 101.413L73.5405 100.3L72.5636 100.514ZM67.1893 90.2379L67.8935 89.5279L67.8908 89.5252L67.1893 90.2379ZM65.3099 88.627L65.9068 87.8247L65.906 87.8241L65.3099 88.627ZM63.7306 87.2933L63.0332 88.01L63.0388 88.0154L63.7306 87.2933ZM58.5923 73.7627L59.5905 73.7025L59.5905 73.7024L58.5923 73.7627ZM58.7905 73.4807L58.5099 72.5209L58.5094 72.5211L58.7905 73.4807ZM83.2074 69.3169L83.2608 70.3155L83.2616 70.3155L83.2074 69.3169ZM83.4396 69.422L82.6538 70.0405L82.6543 70.0411L83.4396 69.422ZM88.0883 76.0258L88.9181 75.4678L88.9179 75.4675L88.0883 76.0258ZM96.4791 87.8895L95.6837 88.4956L95.6898 88.5034L96.4791 87.8895ZM97.8942 89.8873L97.0657 90.4473L97.0658 90.4474L97.8942 89.8873ZM98.1398 90.2505L97.3113 90.8106L97.3113 90.8106L98.1398 90.2505ZM105.36 105.994L106.355 105.895L106.354 105.893L105.36 105.994ZM105.255 111.019L104.265 110.879L104.264 110.887L105.255 111.019ZM105.248 111.055L106.211 111.324L106.214 111.314L105.248 111.055ZM105.218 111.162L106.181 111.434L106.181 111.431L105.218 111.162ZM96.1696 118.626L96.2502 119.622L96.2532 119.622L96.1696 118.626ZM35.6283 117.476L34.6333 117.575L34.7155 118.398L35.5392 118.472L35.6283 117.476ZM57.9819 118.383L57.9658 119.383L57.966 119.383L57.9819 118.383ZM69.3371 118.65L69.3769 117.651L69.3768 117.651L69.3371 118.65ZM96.1246 118.073L96.2056 119.07L96.2082 119.069L96.1246 118.073ZM104.686 111.012L105.648 111.284L105.65 111.279L104.686 111.012ZM104.711 110.924L105.674 111.19L105.692 111.127L105.701 111.062L104.711 110.924ZM104.81 106.048L105.805 105.95L105.805 105.947L104.81 106.048ZM97.6826 90.5585L98.511 89.9984L98.511 89.9984L97.6826 90.5585ZM97.437 90.1952L98.2654 89.6351L98.2654 89.6351L97.437 90.1952ZM96.0409 88.2211L96.8845 87.6842L96.8619 87.6487L96.8364 87.6152L96.0409 88.2211ZM87.6303 76.3314L86.8006 76.8896L86.8007 76.8898L87.6303 76.3314ZM83.0945 69.8744L83.8819 69.258L83.5605 68.8474L83.0397 68.8759L83.0945 69.8744ZM59.1592 73.9474L58.8807 72.987L58.1083 73.211L58.1614 74.0135L59.1592 73.9474ZM64.1167 86.8977L63.419 87.6141L63.4254 87.6202L64.1167 86.8977ZM65.6478 88.1895L66.2453 87.3876L66.2437 87.3865L65.6478 88.1895ZM67.5793 89.8478L68.2835 89.1378L68.2816 89.1359L67.5793 89.8478ZM73.1709 100.709L72.1917 100.911L72.1918 100.912L73.1709 100.709ZM72.9237 101.04L73.008 102.037L73.0085 102.037L72.9237 101.04ZM54.0668 102.81L53.9688 101.815H53.9688L54.0668 102.81ZM35.4514 104.559L35.3668 103.563L34.4675 103.639L34.4516 104.541L35.4514 104.559ZM35.4293 105.799L36.4291 105.818L36.4291 105.818L35.4293 105.799ZM78.3084 118.389C75.3949 118.389 72.4462 118.326 69.3547 118.204L69.2753 120.202C72.3905 120.326 75.3658 120.389 78.3084 120.389V118.389ZM69.3548 118.204C65.7082 118.059 61.9522 117.999 57.9889 117.937L57.9575 119.937C61.9255 119.999 65.657 120.058 69.2752 120.202L69.3548 118.204ZM57.989 117.937C50.6004 117.82 43.0035 117.7 35.4427 117.011L35.2611 119.003C42.9091 119.7 50.581 119.82 57.9574 119.937L57.989 117.937ZM35.4433 117.011C35.6097 117.026 35.7657 117.098 35.8848 117.216L34.4819 118.641C34.6919 118.848 34.9671 118.976 35.2606 119.002L35.4433 117.011ZM35.8848 117.216C36.0038 117.333 36.0787 117.488 36.0966 117.654L34.1082 117.868C34.1398 118.161 34.2718 118.434 34.4819 118.641L35.8848 117.216ZM36.0968 117.655C35.7234 114.155 35.8065 109.567 35.8756 105.805L33.8759 105.768C33.8076 109.491 33.7186 114.217 34.108 117.867L36.0968 117.655ZM35.8756 105.805C35.8851 105.295 35.8946 104.794 35.9017 104.312L33.9019 104.283C33.8949 104.76 33.8854 105.256 33.8759 105.768L35.8756 105.805ZM35.9017 104.314C35.8988 104.493 35.8295 104.665 35.7073 104.796L34.2449 103.431C34.0293 103.662 33.9071 103.965 33.902 104.281L35.9017 104.314ZM35.7073 104.796C35.5851 104.927 35.4186 105.008 35.2401 105.023L35.0689 103.03C34.7541 103.057 34.4605 103.2 34.2449 103.431L35.7073 104.796ZM35.2388 105.023C41.5048 104.493 47.9167 103.862 54.1094 103.252L53.9135 101.262C47.7182 101.872 41.3202 102.502 35.0703 103.03L35.2388 105.023ZM54.1095 103.252C60.2036 102.652 66.4936 102.033 72.6483 101.51L72.479 99.5172C66.3087 100.041 60.0053 100.662 53.9135 101.262L54.1095 103.252ZM73.5405 100.3C72.5873 95.9483 70.6992 92.311 67.8935 89.5279L66.485 90.9478C68.9779 93.4206 70.7033 96.6944 71.5868 100.728L73.5405 100.3ZM67.8908 89.5252C67.2693 88.9135 66.6064 88.3453 65.9068 87.8247L64.7129 89.4293C65.3388 89.895 65.9318 90.4032 66.4877 90.9505L67.8908 89.5252ZM65.906 87.8241C65.3858 87.4378 64.8902 87.0194 64.4223 86.5711L63.0388 88.0154C63.567 88.5214 64.1264 88.9938 64.7137 89.4299L65.906 87.8241ZM64.4279 86.5766C61.6216 83.8459 59.9442 79.5703 59.5905 73.7025L57.5941 73.8228C57.9653 79.9813 59.7449 84.8104 63.0332 88.01L64.4279 86.5766ZM59.5905 73.7024C59.6003 73.866 59.5544 74.0281 59.4601 74.1622L57.824 73.0119C57.6577 73.2484 57.5767 73.5343 57.5941 73.823L59.5905 73.7024ZM59.4601 74.1622C59.3658 74.2963 59.2288 74.3944 59.0715 74.4404L58.5094 72.5211C58.232 72.6023 57.9903 72.7753 57.824 73.0119L59.4601 74.1622ZM59.071 74.4406C66.9484 72.1382 75.0656 70.754 83.2608 70.3155L83.154 68.3184C74.8048 68.7651 66.5353 70.1753 58.5099 72.5209L59.071 74.4406ZM83.2616 70.3155C83.1457 70.3218 83.0299 70.3001 82.9241 70.2522L83.7485 68.43C83.5619 68.3456 83.3577 68.3073 83.1532 68.3184L83.2616 70.3155ZM82.9241 70.2522C82.8184 70.2043 82.7256 70.1317 82.6538 70.0405L84.2253 68.8034C84.0986 68.6425 83.9351 68.5144 83.7485 68.43L82.9241 70.2522ZM82.6543 70.0411C84.026 71.781 85.508 73.9828 87.2586 76.5841L88.9179 75.4675C87.1814 72.8871 85.6533 70.6147 84.2249 68.8029L82.6543 70.0411ZM87.2584 76.5838C89.4359 79.822 92.1597 83.8709 95.6838 88.4956L97.2745 87.2834C93.7896 82.7102 91.0947 78.7047 88.9181 75.4678L87.2584 76.5838ZM95.6898 88.5034C95.6801 88.491 96.2381 89.223 97.0657 90.4473L98.7227 89.3272C97.8731 88.0705 97.2892 87.3021 97.2685 87.2755L95.6898 88.5034ZM97.0658 90.4474L97.3113 90.8106L98.9682 89.6904L98.7226 89.3272L97.0658 90.4474ZM97.3113 90.8106C100.738 95.8792 103.789 100.428 104.365 106.095L106.354 105.893C105.72 99.6436 102.345 94.6851 98.9682 89.6904L97.3113 90.8106ZM104.364 106.092C104.522 107.686 104.489 109.293 104.265 110.879L106.246 111.159C106.492 109.415 106.528 107.648 106.355 105.895L104.364 106.092ZM104.264 110.887C104.268 110.856 104.274 110.825 104.282 110.795L106.214 111.314C106.228 111.261 106.239 111.206 106.247 111.151L104.264 110.887ZM104.285 110.785L104.255 110.893L106.181 111.431L106.211 111.324L104.285 110.785ZM104.256 110.89C103.742 112.712 102.684 114.333 101.224 115.537L102.497 117.08C104.271 115.616 105.556 113.647 106.181 111.434L104.256 110.89ZM101.224 115.537C99.7644 116.741 97.9718 117.471 96.086 117.629L96.2532 119.622C98.5447 119.43 100.723 118.543 102.497 117.08L101.224 115.537ZM96.089 117.629C89.757 118.141 84.101 118.389 78.3084 118.389V120.389C84.1616 120.389 89.8719 120.138 96.2502 119.622L96.089 117.629ZM35.5392 118.472C43.0914 119.148 50.6726 119.266 57.9658 119.383L57.998 117.383C50.692 117.266 43.1845 117.148 35.7174 116.48L35.5392 118.472ZM57.966 119.383C61.9373 119.446 65.6735 119.505 69.2974 119.649L69.3768 117.651C65.7248 117.506 61.9641 117.447 57.9978 117.383L57.966 119.383ZM69.2973 119.649C78.5888 120.02 86.6402 119.847 96.2056 119.07L96.0436 117.076C86.5562 117.847 78.5855 118.018 69.3769 117.651L69.2973 119.649ZM96.2082 119.069C98.3871 118.887 100.458 118.043 102.145 116.652L100.873 115.109C99.4998 116.241 97.8142 116.928 96.041 117.076L96.2082 119.069ZM102.145 116.652C103.832 115.261 105.054 113.388 105.648 111.284L103.724 110.74C103.24 112.453 102.245 113.977 100.873 115.109L102.145 116.652ZM105.65 111.279L105.674 111.19L103.747 110.657L103.722 110.745L105.65 111.279ZM105.701 111.062C105.938 109.368 105.973 107.652 105.805 105.95L103.815 106.147C103.967 107.691 103.936 109.248 103.72 110.785L105.701 111.062ZM105.805 105.947C105.185 99.8365 101.994 95.1507 98.511 89.9984L96.8541 91.1185C100.386 96.3438 103.254 100.62 103.815 106.149L105.805 105.947ZM98.511 89.9984L98.2654 89.6351L96.6086 90.7553L96.8541 91.1186L98.511 89.9984ZM98.2654 89.6351C97.8444 89.0125 97.4909 88.5128 97.241 88.1665C97.1161 87.9933 97.0171 87.8585 96.9486 87.7659C96.9143 87.7196 96.8878 87.684 96.8697 87.6598C96.8601 87.6469 96.8545 87.6395 96.8499 87.6333C96.8225 87.5966 96.8585 87.6433 96.8845 87.6842L95.1972 88.758C95.2117 88.7807 95.2244 88.7985 95.2245 88.7987C95.228 88.8036 95.2309 88.8076 95.2323 88.8095C95.2352 88.8135 95.2377 88.8169 95.2389 88.8185C95.2416 88.8221 95.2445 88.8261 95.2469 88.8292C95.2514 88.8354 95.2593 88.8459 95.2672 88.8565C95.2841 88.8791 95.3089 88.9123 95.341 88.9557C95.4052 89.0425 95.4994 89.1707 95.6191 89.3367C95.8587 89.6687 96.2004 90.1516 96.6086 90.7553L98.2654 89.6351ZM96.8364 87.6152C93.3411 83.026 90.6414 79.0141 88.4598 75.773L86.8007 76.8898C88.9828 80.1317 91.7111 84.1868 95.2453 88.827L96.8364 87.6152ZM88.4599 75.7732C86.7665 73.2562 85.2718 71.0336 83.8819 69.258L82.307 70.4908C83.643 72.1976 85.0938 74.3528 86.8006 76.8896L88.4599 75.7732ZM83.0397 68.8759C74.8568 69.3249 66.7516 70.7042 58.8807 72.987L59.4378 74.9079C67.1629 72.6673 75.1179 71.3136 83.1493 70.8729L83.0397 68.8759ZM58.1614 74.0135C58.5523 79.9211 60.2716 84.5487 63.419 87.614L64.8144 86.1813C62.1453 83.5817 60.529 79.5026 60.1571 73.8814L58.1614 74.0135ZM63.4254 87.6202C63.9385 88.1111 64.4817 88.5695 65.052 88.9926L66.2437 87.3865C65.7404 87.013 65.2609 86.6084 64.808 86.1751L63.4254 87.6202ZM65.0504 88.9914C65.6947 89.4715 66.3051 89.9955 66.8771 90.5597L68.2816 89.1359C67.6439 88.5069 66.9635 87.9227 66.2453 87.3876L65.0504 88.9914ZM66.8752 90.5578C69.5066 93.1676 71.3061 96.6357 72.1917 100.911L74.1501 100.506C73.1974 95.9059 71.2349 92.0649 68.2835 89.1378L66.8752 90.5578ZM72.1918 100.912C72.171 100.812 72.1716 100.709 72.1938 100.609L74.1466 101.041C74.1856 100.864 74.1867 100.682 74.1499 100.505L72.1918 100.912ZM72.1938 100.609C72.2159 100.509 72.259 100.414 72.3201 100.332L73.9237 101.528C74.0316 101.383 74.1075 101.217 74.1466 101.041L72.1938 100.609ZM72.3201 100.332C72.3813 100.25 72.4592 100.182 72.5486 100.132L73.5207 101.88C73.6785 101.793 73.8158 101.672 73.9237 101.528L72.3201 100.332ZM72.5486 100.132C72.6379 100.083 72.7368 100.053 72.839 100.044L73.0085 102.037C73.1885 102.021 73.3631 101.968 73.5207 101.88L72.5486 100.132ZM72.8395 100.044C66.5734 100.574 60.1616 101.205 53.9688 101.815L54.1647 103.805C60.3601 103.195 66.758 102.565 73.008 102.037L72.8395 100.044ZM53.9688 101.815C47.8541 102.417 41.5412 103.038 35.3668 103.563L35.5361 105.555C41.7261 105.03 48.0524 104.407 54.1647 103.805L53.9688 101.815ZM34.4516 104.541C34.4445 104.945 34.4374 105.357 34.4295 105.781L36.4291 105.818C36.4371 105.393 36.4442 104.979 36.4513 104.577L34.4516 104.541ZM34.4295 105.781C34.3619 109.409 34.2756 113.994 34.6333 117.575L36.6234 117.377C36.2799 113.938 36.3609 109.482 36.4291 105.818L34.4295 105.781Z" fill="#999999" mask="url(#path-4-inside-1_678_2185)"/>
<path d="M25.6639 104.211C26.3746 104.211 26.9439 105.461 26.9439 107.004C26.9439 108.546 26.3683 109.818 25.6615 109.818C26.3722 109.818 26.9439 111.072 26.9439 112.614C26.9439 114.156 26.3659 115.425 25.6592 115.425C26.3699 115.425 26.936 116.677 26.936 118.219C26.936 119.761 26.3627 121.027 25.656 121.027C26.3667 121.027 26.936 122.29 26.936 123.835C26.936 125.38 26.3627 126.643 25.656 126.643C26.3667 126.643 26.936 127.906 26.936 129.451C26.936 130.996 26.3627 132.259 25.656 132.259C26.3667 132.259 26.936 133.522 26.936 135.067C26.936 136.612 26.3627 137.875 25.656 137.875H25.6773C27.1121 137.926 28.4585 137.204 29.0342 135.889L37.0436 117.885L35.3135 104.177L34.9273 104.134C32.2583 103.108 29.318 103.028 26.5973 103.908L25.6639 104.211Z" fill="#E6E6E6"/>
<path d="M29.2173 131.292C29.1235 131.292 29.0335 131.254 28.9671 131.188C28.9008 131.122 28.8635 131.032 28.8635 130.938V105.045C28.8635 104.951 28.901 104.861 28.9676 104.794C29.0342 104.727 29.1246 104.69 29.2189 104.69C29.3131 104.69 29.4035 104.727 29.4701 104.794C29.5368 104.861 29.5742 104.951 29.5742 105.045V130.939C29.5741 130.985 29.5648 131.031 29.5468 131.075C29.5287 131.118 29.5024 131.157 29.4692 131.189C29.436 131.222 29.3967 131.248 29.3535 131.266C29.3102 131.283 29.2639 131.292 29.2173 131.292Z" fill="white"/>
<path d="M97.6659 90.0404H67.3842C66.9731 89.246 66.5614 88.4519 66.1492 87.658C63.7392 83.0123 61.3126 78.3747 58.8694 73.7452C66.8002 71.4271 74.9723 70.0333 83.2231 69.5917C86.3739 73.5881 89.9668 79.7924 96.2603 88.0552C96.2588 88.0544 96.8218 88.7912 97.6659 90.0404ZM80.179 101.233H80.1514C78.68 101.087 77.203 101.005 75.7246 100.986C74.732 100.973 73.7267 100.99 72.7381 101.035C72.7018 101.037 72.6655 101.032 72.6314 101.019C72.5972 101.007 72.5658 100.988 72.539 100.963C72.5121 100.939 72.4904 100.909 72.475 100.877C72.4595 100.844 72.4507 100.808 72.4491 100.772C72.4474 100.735 72.4529 100.699 72.4653 100.665C72.4776 100.631 72.4966 100.599 72.5211 100.573C72.5456 100.546 72.5751 100.524 72.608 100.509C72.6409 100.493 72.6765 100.484 72.7128 100.483C73.7125 100.437 74.7288 100.42 75.7317 100.433C77.2202 100.452 78.7253 100.536 80.2059 100.683C80.2792 100.686 80.348 100.719 80.3974 100.773C80.4467 100.827 80.4724 100.899 80.4688 100.972C80.4653 101.046 80.4327 101.114 80.3784 101.164C80.324 101.213 80.2523 101.239 80.179 101.235V101.233Z" fill="#E6E6E6"/>
<path d="M176.555 56.377C174.26 59.9067 161.559 65.5219 161.608 65.5219C161.644 65.5219 125.828 71.0905 104.004 74.8311C94.8518 76.4017 86.656 77.6485 81.8336 78.0291C73.4632 78.6901 62.8029 79.3573 58.4069 73.1649C54.6726 67.9035 57.2808 60.2542 61.0917 49.9627V49.9564C61.2497 49.5252 61.4131 49.0877 61.5782 48.6463C61.6295 48.5073 61.6816 48.3684 61.7361 48.2278C63.3304 43.9835 65.3835 39.0395 68.4489 34.1816C71.786 28.8909 76.3147 23.7108 82.7275 19.6607C82.9818 19.5028 84.6495 19.9687 87.0319 20.7765C89.3306 21.5527 92.291 22.6448 95.2909 23.7922C100.725 25.8729 106.284 28.1352 108.237 29.0252C104.48 32.1964 101.104 35.794 98.1779 39.7454C96.856 41.5324 95.7236 43.4023 94.7429 45.194C93.9272 46.6833 93.2141 48.1157 92.5832 49.4028C92.5571 49.4565 92.5318 49.5102 92.5042 49.5607C92.4781 49.616 92.4505 49.6721 92.4252 49.7258C92.3794 49.819 92.336 49.9106 92.2902 50.0014C95.9613 50.3133 99.8962 50.6726 104.004 51.0713C124.407 53.0462 158.229 53.9528 176.555 56.377Z" fill="#171717"/>
<path d="M33.7411 63.3929C33.555 63.393 33.3695 63.3715 33.1883 63.3289C32.6909 63.212 32.2281 62.9341 31.8104 62.5029C31.4503 62.7398 30.6922 63.1157 29.7778 62.8678C29.2183 62.7113 28.7326 62.3608 28.4078 61.8791C28.0982 62.0625 27.7506 62.1721 27.3918 62.1994C27.0331 62.2267 26.6728 62.171 26.3391 62.0366C26.0053 61.9021 25.7071 61.6927 25.4674 61.4243C25.2277 61.156 25.053 60.8361 24.957 60.4893C24.6222 60.6662 24.1112 60.8384 23.6059 60.6291C23.0721 60.4064 22.8589 59.8813 22.7783 59.6815C22.1797 58.1954 23.1218 56.2521 23.4242 55.6922C24.9522 52.889 29.6396 47.164 35.0875 41.4375C41.3534 34.8589 47.3863 29.5493 51.6434 26.8724C51.66 26.8622 52.0587 26.6119 52.8002 26.1925C56.8046 23.9349 71.0033 16.7033 85.5875 18.4216C85.9673 18.4674 86.3487 18.5187 86.3527 18.5195L87.0357 18.6175C88.0157 18.2858 88.9127 18.0221 89.7798 17.7662C91.761 17.1835 93.807 16.5817 97.1425 15.1059C97.1781 15.0902 97.2165 15.0822 97.2554 15.0824C97.2942 15.0826 97.3326 15.091 97.368 15.107C97.4034 15.123 97.435 15.1463 97.4608 15.1754C97.4865 15.2044 97.5059 15.2386 97.5176 15.2757L99.5754 21.8258L99.855 22.7181C102.461 23.9357 105.105 25.2631 107.708 26.6663C107.767 26.6987 107.991 26.8061 108.3 26.9553C108.57 27.0856 108.921 27.2554 109.338 27.4591C113.392 29.4396 116.889 31.3284 119.733 33.0743C124.483 35.9905 127.15 38.365 127.662 40.1338C127.911 40.9937 128.489 43.0002 127.542 44.8061C126.752 46.3065 124.407 47.2438 120.367 47.6647C117.157 47.9987 112.882 47.9924 107.661 47.6465C98.691 47.0511 89.4489 45.6329 85.8915 45.0501C85.8557 45.0443 85.8213 45.0314 85.7905 45.0123C85.7596 44.9932 85.7328 44.9682 85.7116 44.9387C85.6905 44.9092 85.6753 44.8758 85.667 44.8405C85.6587 44.8052 85.6574 44.7685 85.6633 44.7327C85.6691 44.6969 85.682 44.6625 85.7011 44.6317C85.7203 44.6008 85.7453 44.574 85.7747 44.5529C85.8042 44.5317 85.8376 44.5165 85.8729 44.5082C85.9083 44.4999 85.9449 44.4986 85.9807 44.5045C89.5302 45.0857 98.7518 46.5007 107.696 47.0945C122.089 48.05 126.165 46.2378 127.051 44.5495C127.896 42.941 127.36 41.0837 127.13 40.2909C126.664 38.6785 124.006 36.3474 119.442 33.5458C116.614 31.8085 113.132 29.9284 109.094 27.9558C108.678 27.7529 108.327 27.5831 108.057 27.4528C107.718 27.2894 107.513 27.1899 107.444 27.152C104.815 25.7361 102.145 24.3961 99.5091 23.169C99.4743 23.1527 99.4432 23.1293 99.4179 23.1004C99.3926 23.0714 99.3737 23.0375 99.3622 23.0008L99.0464 21.9924L97.0801 15.7376C93.8797 17.1369 91.8739 17.7275 89.933 18.2984C89.0114 18.5693 88.142 18.8259 87.1478 19.167C87.107 19.1808 87.0634 19.1849 87.0207 19.1789L86.2729 19.0715C86.2729 19.0715 85.8939 19.0202 85.5196 18.9752C71.102 17.2758 57.0367 24.4419 53.0695 26.6782C52.3406 27.0904 51.9395 27.3423 51.9355 27.3446C42.1675 33.481 26.7598 50.734 23.9123 55.9576C23.718 56.3176 22.7712 58.182 23.2924 59.4762C23.3595 59.6405 23.4985 59.9848 23.8191 60.1182C24.3237 60.3275 24.9451 59.8466 24.972 59.826C25.0106 59.7959 25.0565 59.7765 25.105 59.7699C25.1536 59.7634 25.203 59.7698 25.2482 59.7886C25.2935 59.8074 25.3329 59.8379 25.3625 59.8769C25.392 59.916 25.4107 59.9622 25.4165 60.0108C25.4355 60.1687 25.5674 60.9734 26.3002 61.4014C26.92 61.7654 27.7215 61.7172 28.3383 61.2703C28.3704 61.2473 28.4071 61.2314 28.4459 61.2237C28.4847 61.2161 28.5247 61.2169 28.5632 61.226C28.6016 61.2351 28.6377 61.2524 28.6689 61.2767C28.7002 61.3009 28.7258 61.3316 28.7442 61.3666C28.8365 61.5435 29.1958 62.1358 29.9239 62.334C30.8762 62.5922 31.6367 61.9502 31.6682 61.9226C31.6958 61.8988 31.7279 61.8806 31.7625 61.8693C31.7971 61.8579 31.8336 61.8535 31.8699 61.8563C31.9063 61.859 31.9417 61.869 31.9741 61.8855C32.0066 61.902 32.0355 61.9248 32.0591 61.9526C32.4429 62.4027 32.8654 62.6846 33.3155 62.7896C34.188 62.9941 34.9895 62.5164 35.7634 62.0552L35.8771 61.9873C37.9547 60.7547 39.001 60.408 39.6264 60.1956C40.1507 60.0203 40.3268 59.9587 40.6293 59.5536C41.2183 58.76 41.2104 58.032 41.1978 56.9312C41.186 55.8888 41.1702 54.4604 41.6882 52.3868C41.858 51.7077 42.1138 50.6819 42.6318 49.559C44.4196 45.6795 48.0125 43.6288 53.9657 40.2317C55.1123 39.5771 56.3529 38.9217 56.3647 38.9154C56.3766 38.909 57.5034 38.3144 58.68 37.7364C60.3296 36.9278 63.6406 35.4551 67.994 33.7519C68.0278 33.7386 68.0639 33.7322 68.1001 33.7329C68.1364 33.7336 68.1722 33.7415 68.2055 33.7561C68.2387 33.7706 68.2688 33.7916 68.294 33.8177C68.3191 33.8439 68.3388 33.8748 68.3521 33.9086C68.3653 33.9424 68.3717 33.9785 68.371 34.0148C68.3703 34.0511 68.3624 34.0869 68.3479 34.1201C68.3333 34.1534 68.3124 34.1834 68.2862 34.2086C68.26 34.2337 68.2291 34.2535 68.1953 34.2667C63.8585 35.9644 60.5665 37.4292 58.9256 38.2339C57.7569 38.808 56.6356 39.3994 56.6253 39.4057C56.615 39.4121 55.3808 40.0643 54.2413 40.7142C48.1847 44.1705 44.8492 46.0735 43.1356 49.7951C42.6397 50.8706 42.391 51.8664 42.2267 52.5257C41.7261 54.5307 41.7403 55.8612 41.7529 56.9304C41.7656 58.0999 41.775 58.9456 41.0754 59.8884C40.6687 60.4356 40.3647 60.5391 39.8033 60.7254C39.1992 60.9276 38.1876 61.2656 36.1606 62.4682L36.0477 62.5353C35.3623 62.9396 34.601 63.3929 33.7411 63.3929Z" fill="#999999"/>
<mask id="path-11-inside-2_678_2185" fill="white">
<path d="M25.1197 60.3552C25.0772 60.3552 25.0354 60.3454 24.9973 60.3266C24.9593 60.3078 24.9261 60.2806 24.9003 60.2469C24.8745 60.2132 24.8568 60.1741 24.8485 60.1325C24.8403 60.0908 24.8417 60.0479 24.8528 60.0069C25.1195 58.9891 25.7088 58.0851 26.5324 57.4303C26.5606 57.4064 26.5934 57.3884 26.6288 57.3774C26.6641 57.3664 26.7013 57.3626 26.7381 57.3663C26.775 57.37 26.8107 57.381 26.8432 57.3987C26.8757 57.4164 26.9043 57.4405 26.9273 57.4695C26.9503 57.4985 26.9673 57.5318 26.9772 57.5675C26.987 57.6031 26.9897 57.6404 26.9849 57.6771C26.9801 57.7138 26.968 57.7492 26.9492 57.7811C26.9305 57.8131 26.9056 57.8409 26.8759 57.863C26.1431 58.4444 25.6191 59.248 25.3826 60.153C25.3666 60.2106 25.3323 60.2615 25.2848 60.2979C25.2374 60.3344 25.1795 60.3544 25.1197 60.3552ZM28.4615 61.8113C28.4191 61.8113 28.3772 61.8015 28.3392 61.7827C28.3011 61.764 28.2679 61.7367 28.2421 61.703C28.2163 61.6693 28.1986 61.6302 28.1903 61.5886C28.1821 61.5469 28.1836 61.504 28.1946 61.463C28.4624 60.4447 29.0531 59.5406 29.8781 58.8864C29.9357 58.8435 30.0078 58.8247 30.079 58.834C30.1502 58.8434 30.215 58.88 30.2596 58.9363C30.3043 58.9925 30.3253 59.0639 30.3182 59.1354C30.3111 59.2069 30.2765 59.2728 30.2216 59.3191C29.4889 59.9005 28.9649 60.7042 28.7284 61.6091C28.7122 61.6674 28.6772 61.7187 28.629 61.7552C28.5808 61.7917 28.522 61.8114 28.4615 61.8113ZM31.9107 62.2701C31.8603 62.2699 31.811 62.256 31.7679 62.2299C31.7249 62.2037 31.6898 62.1663 31.6665 62.1217C31.6432 62.0771 31.6325 62.0269 31.6356 61.9767C31.6387 61.9264 31.6554 61.878 31.6841 61.8365L32.2795 60.9766C32.3214 60.9163 32.3855 60.8751 32.4578 60.8621C32.53 60.849 32.6045 60.8652 32.6648 60.9071C32.7251 60.949 32.7663 61.0131 32.7794 61.0854C32.7924 61.1577 32.7762 61.2322 32.7343 61.2925L32.1389 62.1508C32.1134 62.1877 32.0793 62.2179 32.0395 62.2386C31.9998 62.2594 31.9556 62.2702 31.9107 62.2701ZM35.701 62.6712C35.6429 62.6712 35.5862 62.653 35.5391 62.6189C35.4919 62.5849 35.4567 62.5369 35.4384 62.4817C35.4201 62.4265 35.4197 62.367 35.4373 62.3115C35.4548 62.2561 35.4893 62.2076 35.536 62.1729C37.4065 60.7946 38.7392 58.8086 39.3058 56.5554C39.3237 56.4843 39.3692 56.4232 39.4321 56.3856C39.495 56.348 39.5703 56.3369 39.6414 56.3548C39.7125 56.3727 39.7736 56.4181 39.8112 56.4811C39.8488 56.544 39.8599 56.6193 39.842 56.6904C39.2446 59.0682 37.8387 61.1642 35.8653 62.6191C35.8175 62.6536 35.76 62.6718 35.701 62.6712ZM73.5958 78.7192C71.9247 78.7286 70.2547 78.6357 68.5949 78.4413C63.594 77.8253 60.1875 76.1513 58.1802 73.3251C56.4019 70.8196 55.9146 67.6673 56.6467 63.404C57.3092 59.5458 58.8664 55.1782 60.8318 49.871V49.8615C60.9082 49.6567 60.9848 49.4504 61.0616 49.2424C61.1464 49.0129 61.2319 48.7823 61.3183 48.5507V48.5436C61.3696 48.4062 61.4201 48.2696 61.4762 48.1306L61.7486 47.3939C63.2742 43.2727 64.9973 38.5996 67.8653 33.8759C67.8841 33.8448 67.9089 33.8177 67.9382 33.7961C67.9675 33.7746 68.0007 33.759 68.036 33.7503C68.0713 33.7417 68.108 33.74 68.1439 33.7455C68.1799 33.751 68.2144 33.7635 68.2455 33.7823C68.2766 33.8011 68.3037 33.8259 68.3253 33.8552C68.3468 33.8845 68.3624 33.9177 68.371 33.953C68.3797 33.9883 68.3814 34.025 68.3759 34.061C68.3704 34.0969 68.3579 34.1314 68.3391 34.1625C65.4963 38.8388 63.7859 43.4804 62.2745 47.5818L61.9997 48.3264C61.9468 48.4662 61.8963 48.602 61.8418 48.7378V48.7457C61.7555 48.9768 61.6699 49.2069 61.5852 49.4359C61.5088 49.6428 61.4325 49.8484 61.3562 50.0526V50.0621C57.2973 61.0066 55.0895 68.014 58.6318 73.0053C63.0539 79.2356 74.346 78.3433 81.8114 77.7535C86.1458 77.4108 93.5962 76.3321 103.956 74.5586C116.569 72.3973 136.016 69.2521 160.192 65.465L161.522 65.2565L161.559 65.2391L161.758 65.1475C169.247 61.6968 174.392 58.6132 176.05 56.5917C165.674 55.2493 150.43 54.3736 135.681 53.5231C123.92 52.8448 112.811 52.2044 103.973 51.3492C99.8795 50.9544 95.9399 50.5919 92.2633 50.2792C92.2184 50.2754 92.1751 50.2605 92.1372 50.2361C92.0993 50.2117 92.068 50.1783 92.046 50.139C92.0239 50.0997 92.0119 50.0556 92.0108 50.0105C92.0097 49.9654 92.0197 49.9208 92.0398 49.8805C92.0698 49.8212 92.0982 49.7612 92.1274 49.7012L92.2001 49.5512C92.2167 49.5164 92.234 49.4817 92.2498 49.4469V49.4398C92.2735 49.3925 92.2972 49.3427 92.3209 49.2938L92.4449 49.0395C93.045 47.8076 93.6657 46.5339 94.438 45.1252C94.4733 45.0609 94.5326 45.0133 94.6031 44.9928C94.6735 44.9722 94.7492 44.9806 94.8135 45.0158C94.8777 45.0511 94.9254 45.1105 94.9459 45.1809C94.9664 45.2513 94.9581 45.327 94.9228 45.3913C94.1561 46.789 93.5386 48.0564 92.9416 49.2819L92.8184 49.5346C92.7939 49.5851 92.7694 49.6357 92.745 49.6846L92.7071 49.7636C96.2708 50.0676 100.075 50.4166 104.022 50.7996C112.85 51.6532 123.953 52.2936 135.709 52.9719C150.69 53.8358 166.181 54.7289 176.583 56.1053C176.63 56.1113 176.674 56.129 176.711 56.1567C176.749 56.1844 176.779 56.2212 176.799 56.2636C176.818 56.306 176.827 56.3527 176.823 56.3993C176.82 56.4459 176.805 56.4909 176.779 56.5301C174.92 59.3902 166.71 63.4719 161.982 65.6505C161.858 65.7074 161.751 65.7571 161.732 65.7666V65.7619C161.677 65.7868 161.618 65.8033 161.557 65.8108L160.273 66.0122C136.099 69.8025 116.656 72.9437 104.046 75.105C93.6696 76.8856 86.1995 77.9627 81.8509 78.3062C79.0405 78.5265 76.272 78.7192 73.5958 78.7192ZM206.115 40.6163C206.005 42.636 205.497 44.6141 204.621 46.4374C203.745 48.2607 202.519 49.8934 201.011 51.2422C199.504 52.5909 197.745 53.6291 195.836 54.2975C193.927 54.9658 191.905 55.2512 189.885 55.1372C189.489 55.115 189.097 55.0779 188.71 55.0258C186.115 54.6811 183.65 53.6799 181.55 52.117C179.45 50.554 177.783 48.481 176.707 46.0941C176.1 44.756 175.69 43.3366 175.491 41.8805C175.028 38.5057 175.694 35.0724 177.386 32.1158C179.078 29.1592 181.701 26.8454 184.845 25.5348C188.277 24.1139 192.108 23.9812 195.631 25.1612C199.153 26.3412 202.131 28.7544 204.015 31.9562C205.373 34.2572 206.105 36.8734 206.138 39.5448C206.143 39.9001 206.135 40.2578 206.115 40.6163Z"/>
</mask>
<path d="M25.1197 60.3552C25.0772 60.3552 25.0354 60.3454 24.9973 60.3266C24.9593 60.3078 24.9261 60.2806 24.9003 60.2469C24.8745 60.2132 24.8568 60.1741 24.8485 60.1325C24.8403 60.0908 24.8417 60.0479 24.8528 60.0069C25.1195 58.9891 25.7088 58.0851 26.5324 57.4303C26.5606 57.4064 26.5934 57.3884 26.6288 57.3774C26.6641 57.3664 26.7013 57.3626 26.7381 57.3663C26.775 57.37 26.8107 57.381 26.8432 57.3987C26.8757 57.4164 26.9043 57.4405 26.9273 57.4695C26.9503 57.4985 26.9673 57.5318 26.9772 57.5675C26.987 57.6031 26.9897 57.6404 26.9849 57.6771C26.9801 57.7138 26.968 57.7492 26.9492 57.7811C26.9305 57.8131 26.9056 57.8409 26.8759 57.863C26.1431 58.4444 25.6191 59.248 25.3826 60.153C25.3666 60.2106 25.3323 60.2615 25.2848 60.2979C25.2374 60.3344 25.1795 60.3544 25.1197 60.3552ZM28.4615 61.8113C28.4191 61.8113 28.3772 61.8015 28.3392 61.7827C28.3011 61.764 28.2679 61.7367 28.2421 61.703C28.2163 61.6693 28.1986 61.6302 28.1903 61.5886C28.1821 61.5469 28.1836 61.504 28.1946 61.463C28.4624 60.4447 29.0531 59.5406 29.8781 58.8864C29.9357 58.8435 30.0078 58.8247 30.079 58.834C30.1502 58.8434 30.215 58.88 30.2596 58.9363C30.3043 58.9925 30.3253 59.0639 30.3182 59.1354C30.3111 59.2069 30.2765 59.2728 30.2216 59.3191C29.4889 59.9005 28.9649 60.7042 28.7284 61.6091C28.7122 61.6674 28.6772 61.7187 28.629 61.7552C28.5808 61.7917 28.522 61.8114 28.4615 61.8113ZM31.9107 62.2701C31.8603 62.2699 31.811 62.256 31.7679 62.2299C31.7249 62.2037 31.6898 62.1663 31.6665 62.1217C31.6432 62.0771 31.6325 62.0269 31.6356 61.9767C31.6387 61.9264 31.6554 61.878 31.6841 61.8365L32.2795 60.9766C32.3214 60.9163 32.3855 60.8751 32.4578 60.8621C32.53 60.849 32.6045 60.8652 32.6648 60.9071C32.7251 60.949 32.7663 61.0131 32.7794 61.0854C32.7924 61.1577 32.7762 61.2322 32.7343 61.2925L32.1389 62.1508C32.1134 62.1877 32.0793 62.2179 32.0395 62.2386C31.9998 62.2594 31.9556 62.2702 31.9107 62.2701ZM35.701 62.6712C35.6429 62.6712 35.5862 62.653 35.5391 62.6189C35.4919 62.5849 35.4567 62.5369 35.4384 62.4817C35.4201 62.4265 35.4197 62.367 35.4373 62.3115C35.4548 62.2561 35.4893 62.2076 35.536 62.1729C37.4065 60.7946 38.7392 58.8086 39.3058 56.5554C39.3237 56.4843 39.3692 56.4232 39.4321 56.3856C39.495 56.348 39.5703 56.3369 39.6414 56.3548C39.7125 56.3727 39.7736 56.4181 39.8112 56.4811C39.8488 56.544 39.8599 56.6193 39.842 56.6904C39.2446 59.0682 37.8387 61.1642 35.8653 62.6191C35.8175 62.6536 35.76 62.6718 35.701 62.6712ZM73.5958 78.7192C71.9247 78.7286 70.2547 78.6357 68.5949 78.4413C63.594 77.8253 60.1875 76.1513 58.1802 73.3251C56.4019 70.8196 55.9146 67.6673 56.6467 63.404C57.3092 59.5458 58.8664 55.1782 60.8318 49.871V49.8615C60.9082 49.6567 60.9848 49.4504 61.0616 49.2424C61.1464 49.0129 61.2319 48.7823 61.3183 48.5507V48.5436C61.3696 48.4062 61.4201 48.2696 61.4762 48.1306L61.7486 47.3939C63.2742 43.2727 64.9973 38.5996 67.8653 33.8759C67.8841 33.8448 67.9089 33.8177 67.9382 33.7961C67.9675 33.7746 68.0007 33.759 68.036 33.7503C68.0713 33.7417 68.108 33.74 68.1439 33.7455C68.1799 33.751 68.2144 33.7635 68.2455 33.7823C68.2766 33.8011 68.3037 33.8259 68.3253 33.8552C68.3468 33.8845 68.3624 33.9177 68.371 33.953C68.3797 33.9883 68.3814 34.025 68.3759 34.061C68.3704 34.0969 68.3579 34.1314 68.3391 34.1625C65.4963 38.8388 63.7859 43.4804 62.2745 47.5818L61.9997 48.3264C61.9468 48.4662 61.8963 48.602 61.8418 48.7378V48.7457C61.7555 48.9768 61.6699 49.2069 61.5852 49.4359C61.5088 49.6428 61.4325 49.8484 61.3562 50.0526V50.0621C57.2973 61.0066 55.0895 68.014 58.6318 73.0053C63.0539 79.2356 74.346 78.3433 81.8114 77.7535C86.1458 77.4108 93.5962 76.3321 103.956 74.5586C116.569 72.3973 136.016 69.2521 160.192 65.465L161.522 65.2565L161.559 65.2391L161.758 65.1475C169.247 61.6968 174.392 58.6132 176.05 56.5917C165.674 55.2493 150.43 54.3736 135.681 53.5231C123.92 52.8448 112.811 52.2044 103.973 51.3492C99.8795 50.9544 95.9399 50.5919 92.2633 50.2792C92.2184 50.2754 92.1751 50.2605 92.1372 50.2361C92.0993 50.2117 92.068 50.1783 92.046 50.139C92.0239 50.0997 92.0119 50.0556 92.0108 50.0105C92.0097 49.9654 92.0197 49.9208 92.0398 49.8805C92.0698 49.8212 92.0982 49.7612 92.1274 49.7012L92.2001 49.5512C92.2167 49.5164 92.234 49.4817 92.2498 49.4469V49.4398C92.2735 49.3925 92.2972 49.3427 92.3209 49.2938L92.4449 49.0395C93.045 47.8076 93.6657 46.5339 94.438 45.1252C94.4733 45.0609 94.5326 45.0133 94.6031 44.9928C94.6735 44.9722 94.7492 44.9806 94.8135 45.0158C94.8777 45.0511 94.9254 45.1105 94.9459 45.1809C94.9664 45.2513 94.9581 45.327 94.9228 45.3913C94.1561 46.789 93.5386 48.0564 92.9416 49.2819L92.8184 49.5346C92.7939 49.5851 92.7694 49.6357 92.745 49.6846L92.7071 49.7636C96.2708 50.0676 100.075 50.4166 104.022 50.7996C112.85 51.6532 123.953 52.2936 135.709 52.9719C150.69 53.8358 166.181 54.7289 176.583 56.1053C176.63 56.1113 176.674 56.129 176.711 56.1567C176.749 56.1844 176.779 56.2212 176.799 56.2636C176.818 56.306 176.827 56.3527 176.823 56.3993C176.82 56.4459 176.805 56.4909 176.779 56.5301C174.92 59.3902 166.71 63.4719 161.982 65.6505C161.858 65.7074 161.751 65.7571 161.732 65.7666V65.7619C161.677 65.7868 161.618 65.8033 161.557 65.8108L160.273 66.0122C136.099 69.8025 116.656 72.9437 104.046 75.105C93.6696 76.8856 86.1995 77.9627 81.8509 78.3062C79.0405 78.5265 76.272 78.7192 73.5958 78.7192ZM206.115 40.6163C206.005 42.636 205.497 44.6141 204.621 46.4374C203.745 48.2607 202.519 49.8934 201.011 51.2422C199.504 52.5909 197.745 53.6291 195.836 54.2975C193.927 54.9658 191.905 55.2512 189.885 55.1372C189.489 55.115 189.097 55.0779 188.71 55.0258C186.115 54.6811 183.65 53.6799 181.55 52.117C179.45 50.554 177.783 48.481 176.707 46.0941C176.1 44.756 175.69 43.3366 175.491 41.8805C175.028 38.5057 175.694 35.0724 177.386 32.1158C179.078 29.1592 181.701 26.8454 184.845 25.5348C188.277 24.1139 192.108 23.9812 195.631 25.1612C199.153 26.3412 202.131 28.7544 204.015 31.9562C205.373 34.2572 206.105 36.8734 206.138 39.5448C206.143 39.9001 206.135 40.2578 206.115 40.6163Z" fill="#999999" stroke="#999999" stroke-width="0.586067" mask="url(#path-11-inside-2_678_2185)"/>
<path d="M190.753 55.438C190.459 55.438 190.165 55.4299 189.87 55.4135C189.475 55.3914 189.075 55.3535 188.675 55.3006C186.032 54.9502 183.523 53.9313 181.384 52.3403C179.246 50.7493 177.548 48.6388 176.453 46.2086C175.835 44.8464 175.417 43.4015 175.214 41.9192C174.742 38.4833 175.421 34.9879 177.143 31.9777C178.866 28.9675 181.535 26.6117 184.737 25.2774L184.795 25.2529C187.161 24.2867 189.726 23.9125 192.27 24.163C194.813 24.4134 197.256 25.2809 199.388 26.6901C201.375 28.0094 203.038 29.7618 204.251 31.8157L204.292 31.886C205.647 34.2123 206.379 36.849 206.416 39.5408C206.421 39.8922 206.416 40.2594 206.394 40.6321C206.175 44.6312 204.432 48.3945 201.524 51.1484C198.616 53.9023 194.764 55.4373 190.759 55.438H190.753ZM184.89 25.812C181.815 27.1057 179.254 29.3783 177.603 32.2768C175.953 35.1753 175.305 38.5376 175.761 41.8419C175.957 43.2717 176.359 44.6656 176.956 45.9796C179.088 50.7175 183.61 54.0751 188.746 54.751C189.133 54.8023 189.522 54.8395 189.901 54.86C191.884 54.9708 193.869 54.6898 195.743 54.0332C197.618 53.3765 199.344 52.3569 200.824 51.0328C202.304 49.7087 203.509 48.1059 204.37 46.316C205.23 44.5261 205.73 42.5842 205.839 40.6013C205.859 40.242 205.866 39.8906 205.861 39.5487C205.826 36.9255 205.107 34.3567 203.776 32.096L203.735 32.0257C202.467 29.8969 200.696 28.1121 198.576 26.8286C196.457 25.545 194.055 24.8019 191.581 24.6646C189.313 24.5325 187.045 24.917 184.947 25.7891L184.889 25.8136L184.89 25.812Z" fill="#0D0D35"/>
<path d="M206.115 40.6163C205.958 43.5407 204.966 46.3588 203.257 48.7371L199.378 49.7739L196.716 45.5714L199.685 37.9623L204.542 36.9137L206.139 39.5448C206.143 39.9001 206.135 40.2578 206.115 40.6163ZM204.289 36.079L199.63 37.1119L193.274 31.8062L193.544 27.5232L199.237 26.9175C201.191 28.2113 202.826 29.9334 204.015 31.9531L204.289 36.079ZM192.305 31.6838L185.465 36.1572L181.451 34.6158L181.558 27.4016C182.571 26.6456 183.674 26.0178 184.842 25.5325L192.526 27.4079L192.305 31.6838ZM187.117 45.0234L184.315 48.861L176.704 46.0973C176.096 44.7592 175.687 43.3398 175.487 41.8837L180.896 35.6194L185.011 37.1348L187.117 45.0234ZM198.576 50.3006L194.616 54.6681C193.073 55.0686 191.477 55.2266 189.885 55.1364C189.489 55.1143 189.097 55.0772 188.71 55.025L184.883 49.3641L187.831 45.4221L195.986 45.8785L198.576 50.3006Z" fill="#262626"/>
<path d="M192.766 32.4886L185.901 36.9154L187.989 44.8119L196.145 45.2659L199.097 37.6498L192.766 32.4886ZM104.004 51.073V74.8312C94.8518 76.4018 86.656 77.6486 81.8336 78.0292C73.4632 78.6902 62.8029 79.3574 58.4069 73.165C54.6726 67.9036 57.2808 60.2543 61.0917 49.9628C68.7766 49.8198 82.6817 49.564 92.5792 49.4029C92.5255 49.5119 92.4742 49.6193 92.4213 49.7267C92.3755 49.8198 92.3321 49.9114 92.2863 50.0023C95.9613 50.3142 99.8962 50.6735 104.004 51.073Z" fill="#E6E6E6"/>
<mask id="path-15-inside-3_678_2185" fill="white">
<path d="M74.6761 78.4122C72.3348 78.4122 69.9935 78.379 67.6687 78.3127C67.5954 78.3106 67.526 78.2794 67.4756 78.2261C67.4253 78.1728 67.3982 78.1017 67.4003 78.0284C67.4024 77.9551 67.4335 77.8856 67.4868 77.8353C67.5401 77.7849 67.6112 77.7578 67.6845 77.7599C72.3973 77.8934 77.113 77.8918 81.8257 77.7552C84.5895 77.6762 87.3896 77.5451 90.1494 77.3714C90.1857 77.3691 90.2221 77.374 90.2565 77.3858C90.2909 77.3976 90.3227 77.416 90.35 77.4401C90.3772 77.4641 90.3995 77.4933 90.4155 77.526C90.4315 77.5586 90.4409 77.5941 90.4432 77.6304C90.4455 77.6667 90.4406 77.7031 90.4288 77.7375C90.417 77.7719 90.3986 77.8036 90.3745 77.8309C90.3505 77.8582 90.3213 77.8805 90.2886 77.8965C90.256 77.9125 90.2205 77.9219 90.1842 77.9241C87.4204 78.0987 84.6108 78.2282 81.8415 78.3087C79.4646 78.3742 77.0704 78.4122 74.6761 78.4122Z"/>
</mask>
<path d="M74.6761 78.4122C72.3348 78.4122 69.9935 78.379 67.6687 78.3127C67.5954 78.3106 67.526 78.2794 67.4756 78.2261C67.4253 78.1728 67.3982 78.1017 67.4003 78.0284C67.4024 77.9551 67.4335 77.8856 67.4868 77.8353C67.5401 77.7849 67.6112 77.7578 67.6845 77.7599C72.3973 77.8934 77.113 77.8918 81.8257 77.7552C84.5895 77.6762 87.3896 77.5451 90.1494 77.3714C90.1857 77.3691 90.2221 77.374 90.2565 77.3858C90.2909 77.3976 90.3227 77.416 90.35 77.4401C90.3772 77.4641 90.3995 77.4933 90.4155 77.526C90.4315 77.5586 90.4409 77.5941 90.4432 77.6304C90.4455 77.6667 90.4406 77.7031 90.4288 77.7375C90.417 77.7719 90.3986 77.8036 90.3745 77.8309C90.3505 77.8582 90.3213 77.8805 90.2886 77.8965C90.256 77.9125 90.2205 77.9219 90.1842 77.9241C87.4204 78.0987 84.6108 78.2282 81.8415 78.3087C79.4646 78.3742 77.0704 78.4122 74.6761 78.4122Z" fill="white"/>
<path d="M67.6687 78.3127L67.6402 79.3122L67.6402 79.3122L67.6687 78.3127ZM67.6845 77.7599L67.656 78.7595L67.6562 78.7595L67.6845 77.7599ZM81.8257 77.7552L81.7971 76.7556L81.7967 76.7556L81.8257 77.7552ZM90.1494 77.3714L90.0867 76.3734L90.0866 76.3734L90.1494 77.3714ZM90.1842 77.9241L90.1214 76.9261L90.1212 76.9261L90.1842 77.9241ZM81.8415 78.3087L81.869 79.3083L81.8706 79.3083L81.8415 78.3087ZM74.6761 77.4122C72.3442 77.4122 70.0124 77.3791 67.6973 77.3131L67.6402 79.3122C69.9746 79.3789 72.3254 79.4122 74.6761 79.4122V77.4122ZM67.6973 77.3131C67.8891 77.3185 68.0709 77.4 68.2026 77.5395L66.7486 78.9127C66.9811 79.1589 67.3018 79.3026 67.6402 79.3122L67.6973 77.3131ZM68.2026 77.5395C68.3344 77.679 68.4053 77.8651 68.3999 78.0569L66.4007 77.9998C66.391 78.3383 66.5162 78.6667 66.7486 78.9127L68.2026 77.5395ZM68.3999 78.0569C68.3944 78.2488 68.3129 78.4305 68.1734 78.5623L66.8002 77.1082C66.5541 77.3407 66.4103 77.6614 66.4007 77.9998L68.3999 78.0569ZM68.1734 78.5623C68.0339 78.694 67.8478 78.765 67.656 78.7595L67.7131 76.7603C67.3747 76.7506 67.0463 76.8758 66.8002 77.1082L68.1734 78.5623ZM67.6562 78.7595C72.3881 78.8935 77.1229 78.8919 81.8547 78.7547L81.7967 76.7556C77.1031 76.8916 72.4065 76.8932 67.7128 76.7603L67.6562 78.7595ZM81.8542 78.7548C84.6302 78.6754 87.4417 78.5438 90.2123 78.3694L90.0866 76.3734C87.3375 76.5464 84.5488 76.677 81.7971 76.7556L81.8542 78.7548ZM90.2122 78.3694C90.1174 78.3754 90.0223 78.3626 89.9326 78.3319L90.5805 76.4397C90.4219 76.3854 90.2541 76.3628 90.0867 76.3734L90.2122 78.3694ZM89.9326 78.3319C89.8428 78.3011 89.7599 78.253 89.6886 78.1901L91.0113 76.69C90.8855 76.579 90.7391 76.494 90.5805 76.4397L89.9326 78.3319ZM89.6886 78.1901C89.6174 78.1274 89.5592 78.0511 89.5175 77.9658L91.3136 77.0861C91.2398 76.9355 91.1371 76.8009 91.0113 76.69L89.6886 78.1901ZM89.5175 77.9658C89.4757 77.8805 89.4511 77.7879 89.4452 77.6931L91.4412 77.5677C91.4307 77.4003 91.3873 77.2367 91.3136 77.0861L89.5175 77.9658ZM89.4452 77.6931C89.4392 77.5983 89.452 77.5033 89.4827 77.4135L91.3749 78.0615C91.4292 77.9028 91.4517 77.7351 91.4412 77.5677L89.4452 77.6931ZM89.4827 77.4135C89.5135 77.3238 89.5616 77.2408 89.6245 77.1696L91.1246 78.4923C91.2356 78.3664 91.3206 78.22 91.3749 78.0615L89.4827 77.4135ZM89.6245 77.1696C89.6872 77.0983 89.7635 77.0402 89.8487 76.9984L90.7285 78.7945C90.8791 78.7207 91.0137 78.618 91.1246 78.4923L89.6245 77.1696ZM89.8487 76.9984C89.934 76.9566 90.0267 76.9321 90.1214 76.9261L90.2469 78.9222C90.4143 78.9117 90.5779 78.8683 90.7285 78.7945L89.8487 76.9984ZM90.1212 76.9261C87.3687 77.0999 84.5704 77.2289 81.8124 77.3091L81.8706 79.3083C84.6512 79.2274 87.4721 79.0974 90.2472 78.9222L90.1212 76.9261ZM81.8139 77.3091C79.4449 77.3744 77.0599 77.4122 74.6761 77.4122V79.4122C77.0809 79.4122 79.4844 79.3741 81.869 79.3083L81.8139 77.3091Z" fill="black" mask="url(#path-15-inside-3_678_2185)"/>
<path d="M112.259 28.8768C110.19 32.4049 104.915 37.7445 104.915 37.7445L95.1619 45.1727L92.763 49.7306C87.4723 49.7977 82.2187 49.7164 76.9264 49.7993C71.5315 49.884 66.1355 49.9769 60.7385 50.078C61.1199 48.7704 63.1864 42.7572 67.0557 34.717C67.0557 34.717 59.8983 37.7342 58.7501 38.3359C56.795 34.4848 54.6503 30.081 52.6951 26.2299C58.2708 23.0713 71.3064 16.7146 85.8116 18.4234C86.193 18.4692 86.5721 18.5205 86.5721 18.5205L87.0245 18.5861C87.0506 19.3386 86.8405 20.3114 86.9772 20.8437C87.372 22.3685 88.0866 23.0547 88.3314 23.2679C89.7725 24.5384 92.2963 24.7824 95.2362 23.8593C96.6505 23.4011 98.0021 22.7679 99.2595 21.9744L99.7972 22.6062C101.703 23.4914 111.336 28.4274 112.259 28.8768Z" fill="#333333"/>
<path d="M122.21 46.3389C115.452 48.0027 95.4795 45.9212 94.7633 45.768C94.7278 45.7625 94.6749 45.0723 94.6393 45.0645C90.7598 44.244 88.8204 43.8342 87.095 43.2001L81.5674 40.5311C83.1222 38.2861 86.6457 36.4067 87.5451 35.9393C91.7856 35.7394 96.0353 36.0017 100.219 36.7218C102.087 37.044 105.17 37.5904 108.7 38.8626C111.959 40.0431 116.701 41.3097 122.21 46.3389Z" fill="#171717"/>
<path d="M107.246 37.9032C107.232 37.9043 107.218 37.9043 107.204 37.9032C104.883 37.5534 102.522 37.2525 100.187 37.0093C96.0021 36.5742 91.7459 36.3081 87.5354 36.2197C87.4621 36.2181 87.3924 36.1875 87.3417 36.1346C87.291 36.0816 87.2634 36.0107 87.265 35.9374C87.2665 35.8641 87.2971 35.7944 87.3501 35.7437C87.403 35.693 87.474 35.6654 87.5473 35.6669C91.7727 35.7562 96.0447 36.0231 100.245 36.4566C102.589 36.7006 104.958 37.0022 107.287 37.3536C107.36 37.3591 107.428 37.3934 107.476 37.4491C107.524 37.5048 107.548 37.5772 107.543 37.6505C107.537 37.7238 107.503 37.792 107.447 37.8399C107.392 37.8879 107.319 37.9118 107.246 37.9064V37.9032Z" fill="#0D0D35"/>
<path d="M78.1098 44.916C77.7939 45.0408 76.8606 45.4087 76.5771 46.2679C76.2375 47.2944 76.9893 48.5452 77.8405 49.0624C79.8873 50.3085 83.7337 48.0683 83.6398 46.6287C83.5561 45.3527 80.3343 44.0387 78.1098 44.916Z" fill="#171717"/>
<path d="M79.268 49.7059C78.7161 49.7183 78.1717 49.5775 77.695 49.2992C76.7261 48.7094 75.9396 47.3164 76.3139 46.1817C76.6384 45.1994 77.6689 44.7927 78.0077 44.6593C79.613 44.0275 81.663 44.4618 82.8577 45.2191C83.5068 45.6305 83.8843 46.1256 83.9135 46.6113C83.9672 47.4349 83.0646 48.2861 82.2015 48.8081C81.4016 49.2929 80.3079 49.7059 79.268 49.7059ZM78.1095 44.9159L78.2106 45.1733C77.9319 45.2831 77.0822 45.6187 76.839 46.3578C76.5515 47.2264 77.2109 48.3603 77.9824 48.8294C79.0579 49.484 80.7328 49.0544 81.9157 48.3382C82.8111 47.7957 83.3931 47.1174 83.3623 46.65C83.3426 46.3491 83.0512 45.9993 82.5616 45.689C81.5106 45.0225 79.6288 44.6166 78.2106 45.1765L78.1095 44.9159Z" fill="#999999"/>
<path d="M96.9807 39.9561C96.428 38.4818 95.0232 37.7854 94.1261 37.3416C92.9777 36.7817 91.7056 36.5233 90.4297 36.5906C90.3318 36.4572 89.7246 35.6549 88.627 35.5388C87.2995 35.3983 86.4436 36.3869 86.3733 36.4706C86.2943 36.3443 85.7352 35.4583 84.6905 35.3288C83.6861 35.2048 82.6516 35.831 82.196 36.8915C81.9473 36.7012 80.7083 35.786 79.7323 36.2306C79.1677 36.4872 78.9426 37.0857 78.7705 37.5524C77.6271 40.7237 77.0561 42.3093 77.2701 43.8925L77.2788 43.9557C77.6231 46.3925 81.4924 47.6157 82.361 47.8889C85.6026 48.9194 88.5543 48.1108 89.9544 47.611C92.0864 46.7732 95.538 45.2602 96.4374 43.7733C96.4817 43.7006 96.5204 43.6304 96.5204 43.6304C96.8181 43.106 97.5777 41.5528 96.9807 39.9561Z" fill="#171717"/>
<path d="M85.5876 48.6259C84.4695 48.6282 83.3569 48.4686 82.2845 48.1521C81.1356 47.8117 77.3586 46.5072 77.0033 43.9938L76.9946 43.929C76.7735 42.2787 77.3539 40.6678 78.5107 37.4579C78.6687 37.0212 78.9316 36.29 79.6163 35.9781C80.4967 35.5769 81.5114 36.0886 82.0918 36.4771C82.6446 35.5011 83.6861 34.9255 84.723 35.0558C85.5584 35.1592 86.1199 35.693 86.4049 36.0444C86.7863 35.7001 87.5776 35.1513 88.6539 35.265C89.6457 35.37 90.3263 35.6022 90.5711 35.9196C90.5933 35.9484 90.6097 35.9812 90.6192 36.0162C90.6287 36.0512 90.6312 36.0878 90.6266 36.1238C90.6219 36.1598 90.6103 36.1945 90.5922 36.226C90.5742 36.2575 90.5501 36.2852 90.5214 36.3074C90.4927 36.3295 90.4599 36.3459 90.4248 36.3554C90.3898 36.3649 90.3532 36.3674 90.3172 36.3628C90.2812 36.3582 90.2465 36.3465 90.215 36.3284C90.1835 36.3104 90.1559 36.2863 90.1337 36.2576C90.0547 36.1518 89.6259 35.9236 88.5954 35.8146C87.4015 35.6891 86.6158 36.609 86.5826 36.6485C86.5544 36.6821 86.5187 36.7086 86.4783 36.7257C86.4379 36.7428 86.394 36.75 86.3502 36.7467C86.3065 36.7435 86.2641 36.7299 86.2267 36.707C86.1892 36.6842 86.1578 36.6527 86.1349 36.6153C86.0433 36.4661 85.5426 35.7135 84.6543 35.6038C83.7659 35.494 82.8491 36.0673 82.448 37.0015C82.4314 37.0401 82.4062 37.0744 82.3743 37.1018C82.3425 37.1292 82.3048 37.149 82.2641 37.1597C82.2235 37.1704 82.1809 37.1716 82.1397 37.1633C82.0985 37.1551 82.0597 37.1375 82.0263 37.112C81.7104 36.8751 80.6349 36.1234 79.8445 36.4803C79.4062 36.6793 79.2088 37.1452 79.0287 37.645C77.9043 40.7728 77.3389 42.3411 77.5442 43.858L77.5529 43.9188C77.8687 46.1622 81.6828 47.3995 82.444 47.6246C85.9185 48.6511 89.8723 47.9073 94.1862 45.4057C94.675 45.1222 95.1551 44.8142 95.6139 44.4889C95.6737 44.4546 95.7443 44.4438 95.8116 44.4588C95.8789 44.4739 95.9382 44.5135 95.9778 44.57C96.0174 44.6265 96.0344 44.6958 96.0255 44.7642C96.0166 44.8327 95.9825 44.8953 95.9297 44.9398C95.4559 45.2738 94.9632 45.5912 94.4602 45.8834C91.3126 47.7091 88.3412 48.6259 85.5876 48.6259Z" fill="#999999"/>
<path d="M82.9139 48.1685C82.8635 48.1686 82.814 48.1548 82.7709 48.1288C82.7277 48.1028 82.6925 48.0654 82.6691 48.0209C81.7744 46.3144 80.7739 43.5886 81.0763 40.2949C81.1234 39.7895 81.1996 39.2873 81.3045 38.7907C81.3197 38.7189 81.3628 38.6562 81.4242 38.6162C81.4857 38.5762 81.5605 38.5623 81.6323 38.5775C81.704 38.5926 81.7667 38.6357 81.8067 38.6972C81.8467 38.7586 81.8606 38.8334 81.8455 38.9052C81.7452 39.3809 81.6724 39.8621 81.6275 40.3463C81.3353 43.5049 82.2995 46.1241 83.1594 47.765C83.1813 47.8072 83.1919 47.8542 83.1903 47.9016C83.1886 47.9491 83.1748 47.9953 83.1501 48.0358C83.1255 48.0764 83.0908 48.1099 83.0494 48.1331C83.008 48.1564 82.9613 48.1686 82.9139 48.1685ZM86.6513 48.4844C86.5992 48.4842 86.5481 48.4693 86.5041 48.4413C86.4601 48.4134 86.4249 48.3736 86.4026 48.3265C86.0577 47.617 85.7801 46.8767 85.5734 46.1154C84.952 43.8255 85.1502 41.9303 85.2347 41.1162C85.3113 40.3743 85.4433 39.6392 85.6295 38.917C85.6386 38.8819 85.6546 38.8488 85.6765 38.8199C85.6983 38.7909 85.7257 38.7665 85.757 38.7481C85.7883 38.7297 85.823 38.7176 85.8589 38.7126C85.8949 38.7076 85.9315 38.7097 85.9667 38.7188C86.0018 38.7279 86.0348 38.7439 86.0638 38.7658C86.0928 38.7877 86.1172 38.815 86.1356 38.8463C86.154 38.8777 86.1661 38.9123 86.1711 38.9483C86.1761 38.9842 86.174 39.0208 86.1649 39.056C85.9844 39.7514 85.8561 40.4593 85.7811 41.1738C85.7021 41.9532 85.5095 43.7797 86.1033 45.9709C86.2999 46.6989 86.5642 47.4069 86.8929 48.0856C86.9129 48.1277 86.9219 48.1741 86.9191 48.2205C86.9163 48.267 86.9019 48.312 86.8771 48.3514C86.8523 48.3908 86.8179 48.4232 86.7772 48.4458C86.7365 48.4684 86.6907 48.4803 86.6442 48.4804L86.6513 48.4844ZM89.573 48.0177C89.5122 48.0177 89.4531 47.9977 89.4049 47.9607C89.3566 47.9237 89.3219 47.8719 89.3061 47.8132C88.684 45.5395 88.59 43.1538 89.0313 40.8382C89.2066 39.9246 89.4262 39.0023 89.6386 38.2411C89.6479 38.2055 89.6643 38.1722 89.6867 38.143C89.7091 38.1139 89.7371 38.0895 89.769 38.0713C89.801 38.0531 89.8363 38.0414 89.8728 38.037C89.9093 38.0326 89.9463 38.0356 89.9817 38.0456C90.017 38.0557 90.05 38.0728 90.0787 38.0958C90.1074 38.1188 90.1312 38.1473 90.1488 38.1796C90.1663 38.2119 90.1772 38.2474 90.1809 38.284C90.1845 38.3206 90.1808 38.3575 90.17 38.3927C89.9576 39.1381 89.746 40.0438 89.5738 40.9425C89.1485 43.176 89.2395 45.4773 89.8399 47.6703C89.851 47.7112 89.8524 47.7542 89.8442 47.7958C89.8359 47.8374 89.8182 47.8766 89.7924 47.9102C89.7666 47.9439 89.7334 47.9712 89.6954 47.99C89.6573 48.0087 89.6154 48.0185 89.573 48.0185V48.0177ZM92.2034 46.7843C92.1359 46.7842 92.0707 46.7594 92.0203 46.7146C91.9698 46.6698 91.9375 46.6081 91.9294 46.5411C91.6719 44.4311 91.9088 43.005 92.1441 41.9974C92.3889 40.9519 92.6811 39.9278 93.3286 39.8914C93.6919 39.8717 94.0235 40.1773 94.3433 40.8264C94.3743 40.892 94.3782 40.9671 94.3542 41.0355C94.3303 41.1039 94.2804 41.1602 94.2154 41.1922C94.1503 41.2243 94.0753 41.2294 94.0065 41.2066C93.9376 41.1838 93.8805 41.1349 93.8474 41.0704C93.5442 40.4537 93.3634 40.4426 93.3594 40.4426C93.2915 40.4426 93.0436 40.5792 92.6811 42.123C92.456 43.0856 92.2294 44.4501 92.4766 46.4732C92.4856 46.5453 92.4657 46.6181 92.4214 46.6758C92.377 46.7334 92.3118 46.7713 92.2397 46.7811L92.2034 46.7843Z" fill="#999999"/>
<path d="M92.5783 22.1046C93.4348 21.8928 93.8663 20.6586 93.5422 19.3479C93.218 18.0372 92.261 17.1463 91.4045 17.3581C90.5481 17.5699 90.1165 18.8041 90.4406 20.1148C90.7648 21.4256 91.7218 22.3164 92.5783 22.1046Z" fill="#171717"/>
<path d="M92.316 22.4087C91.4008 22.4087 90.4998 21.4998 90.1729 20.1772C89.8065 18.6958 90.3189 17.3344 91.3384 17.0857C92.3578 16.837 93.4444 17.7964 93.8108 19.277C94.1772 20.7584 93.6647 22.1197 92.6453 22.3684C92.5375 22.3952 92.427 22.4087 92.316 22.4087ZM91.6606 17.5998C91.5967 17.5997 91.5331 17.6074 91.4711 17.6227C90.7762 17.7948 90.4271 18.9035 90.709 20.0445C90.9909 21.1856 91.8146 22.0036 92.5118 21.8323C93.2091 21.6609 93.5557 20.5515 93.2738 19.4104C93.0172 18.3712 92.3105 17.5998 91.6606 17.5998Z" fill="#999999"/>
<path d="M100.417 25.8729C98.114 26.8994 94.9032 24.7153 93.2473 20.9968C92.7536 19.9038 92.441 18.7378 92.3219 17.5445C92.0976 15.14 92.8422 13.109 94.42 12.4062C95.7103 11.8306 97.2848 12.2633 98.7102 13.4107C99.8299 14.3061 100.86 15.6462 101.589 17.2799C103.245 21.0047 102.719 24.8471 100.417 25.8729Z" fill="#171717"/>
<path d="M102.519 23.9824C102.476 23.9823 102.434 23.9725 102.396 23.9535C102.358 23.9346 102.324 23.907 102.298 23.8731C102.273 23.8391 102.255 23.7997 102.247 23.7578C102.239 23.716 102.241 23.6728 102.252 23.6318C102.715 21.9735 102.39 19.7625 101.338 17.3935C99.7468 13.8204 96.6948 11.6954 94.5335 12.6557C93.1121 13.2874 92.3722 15.1565 92.5973 17.5341C92.6042 17.6074 92.5817 17.6804 92.5348 17.7372C92.4878 17.7939 92.4203 17.8296 92.347 17.8365C92.2737 17.8434 92.2006 17.821 92.1439 17.774C92.0872 17.7271 92.0514 17.6595 92.0445 17.5862C91.7966 14.9654 92.6636 12.8823 94.3061 12.1511C95.5111 11.6149 96.9657 11.8573 98.402 12.8341C99.7981 13.7817 101.019 15.3223 101.841 17.1677C102.946 19.6488 103.28 21.9956 102.783 23.7778C102.767 23.8362 102.733 23.8877 102.685 23.9246C102.637 23.9616 102.579 23.9819 102.519 23.9824Z" fill="#999999"/>
<path d="M101.571 23.5189L100.996 23.7084C100.916 23.7346 100.832 23.7428 100.748 23.7325C100.665 23.7222 100.585 23.6936 100.514 23.6488C100.443 23.604 100.383 23.5441 100.338 23.4733C100.292 23.4025 100.264 23.3227 100.253 23.2394L100.049 21.6498C100.032 21.5184 100.062 21.3852 100.132 21.2731C100.203 21.161 100.31 21.077 100.436 21.0355C100.562 20.9942 100.698 20.998 100.822 21.0463C100.945 21.0946 101.048 21.1843 101.112 21.3L101.891 22.7001C101.932 22.7735 101.956 22.8551 101.962 22.9389C101.968 23.0227 101.955 23.1068 101.924 23.185C101.893 23.2633 101.846 23.3338 101.785 23.3915C101.724 23.4492 101.651 23.4928 101.571 23.5189ZM100.28 20.6328C100.238 20.6328 100.195 20.6229 100.157 20.6039C100.119 20.5848 100.085 20.5572 100.06 20.523C100.034 20.4889 100.016 20.4492 100.008 20.4071C100.001 20.3651 100.003 20.3217 100.014 20.2806C100.322 19.198 100.126 18.9382 100.059 18.8845C99.9685 18.8126 99.7909 18.8703 99.5058 18.9706C99.1299 19.104 98.6624 19.2706 98.1026 19.1174C97.5427 18.9642 97.2079 18.5647 96.9181 18.1699C96.875 18.1106 96.8571 18.0366 96.8685 17.9642C96.8799 17.8918 96.9196 17.8269 96.9789 17.7837C97.0382 17.7406 97.1121 17.7227 97.1846 17.7341C97.257 17.7456 97.3219 17.7853 97.365 17.8445C97.613 18.1856 97.8499 18.4762 98.2455 18.5844C98.6411 18.6926 98.983 18.5686 99.3171 18.4502C99.6827 18.3199 100.061 18.1856 100.396 18.4502C100.783 18.7589 100.83 19.4064 100.539 20.429C100.523 20.4862 100.49 20.5368 100.443 20.5735C100.397 20.6102 100.34 20.631 100.28 20.6328ZM94.8374 17.5389C94.776 17.5389 94.7164 17.5185 94.6679 17.4808C94.6194 17.4432 94.5849 17.3905 94.5697 17.331C94.5544 17.2716 94.5595 17.2087 94.5839 17.1524C94.6084 17.0962 94.6509 17.0496 94.7047 17.0201C95.1651 16.7698 95.6104 16.6822 96.0289 16.7595C96.099 16.7749 96.1604 16.8168 96.2001 16.8766C96.2398 16.9363 96.2547 17.0092 96.2417 17.0797C96.2287 17.1502 96.1887 17.213 96.1303 17.2546C96.0719 17.2962 95.9996 17.3135 95.9287 17.3028C95.6381 17.2491 95.3151 17.317 94.9692 17.5058C94.9287 17.5277 94.8834 17.5391 94.8374 17.5389Z" fill="#999999"/>
<path d="M95.6155 18.95C95.8074 18.95 95.963 18.7945 95.963 18.6026C95.963 18.4107 95.8074 18.2551 95.6155 18.2551C95.4236 18.2551 95.2681 18.4107 95.2681 18.6026C95.2681 18.7945 95.4236 18.95 95.6155 18.95Z" fill="#999999"/>
<path d="M98.9073 17.2459C99.0992 17.2459 99.2547 17.0904 99.2547 16.8985C99.2547 16.7066 99.0992 16.551 98.9073 16.551C98.7154 16.551 98.5598 16.7066 98.5598 16.8985C98.5598 17.0904 98.7154 17.2459 98.9073 17.2459Z" fill="#999999"/>
<path d="M97.6992 16.4136C97.6526 16.4135 97.6069 16.4016 97.5662 16.379C97.5255 16.3564 97.4911 16.324 97.4663 16.2846C97.4415 16.2452 97.427 16.2002 97.4243 16.1537C97.4215 16.1073 97.4305 16.0609 97.4504 16.0188C97.5536 15.8039 97.7102 15.619 97.9053 15.4819C98.1647 15.3028 98.4766 15.2155 98.7913 15.2339C98.8646 15.2381 98.9332 15.2712 98.9821 15.326C99.0309 15.3808 99.056 15.4528 99.0519 15.5261C99.0477 15.5994 99.0145 15.668 98.9597 15.7169C98.905 15.7657 98.833 15.7908 98.7597 15.7867C98.5691 15.7752 98.3801 15.8277 98.2227 15.9359C98.1056 16.0188 98.0115 16.1302 97.9495 16.2597C97.9265 16.3063 97.8908 16.3454 97.8465 16.3727C97.8022 16.3999 97.7512 16.4141 97.6992 16.4136ZM98.7068 13.4114C98.481 13.6244 98.224 13.8017 97.9448 13.9373C96.9782 14.3898 96.3449 13.8702 95.3642 14.4C94.7048 14.7554 94.3755 15.3216 94.2381 15.5577C93.3624 17.0643 94.0415 18.736 94.1386 18.9666C93.6088 18.3988 92.9336 17.7695 92.3185 17.5452C92.0942 15.1407 92.8389 13.1097 94.4166 12.407C95.7108 11.8313 97.2854 12.264 98.7068 13.4114ZM69.5906 119.302C69.5198 119.302 69.4518 119.274 69.4005 119.226C69.3493 119.177 69.3187 119.11 69.315 119.039L68.3888 101.437C68.3849 101.363 68.4103 101.292 68.4594 101.237C68.5085 101.182 68.5772 101.15 68.6505 101.146C68.7238 101.142 68.7957 101.167 68.8502 101.216C68.9048 101.265 68.9376 101.334 68.9415 101.407L69.8678 119.01C69.8717 119.083 69.8463 119.155 69.7973 119.21C69.7483 119.264 69.6796 119.297 69.6064 119.301L69.5906 119.302ZM61.7154 105.504C61.6421 105.507 61.5707 105.48 61.5171 105.43C61.4634 105.38 61.4317 105.311 61.4291 105.238C61.4265 105.164 61.4531 105.093 61.5031 105.039C61.5531 104.986 61.6223 104.954 61.6956 104.951L66.725 104.587C66.7983 104.582 66.8706 104.606 66.9262 104.654C66.9817 104.702 67.0158 104.771 67.0211 104.844C67.0263 104.917 67.0022 104.99 66.9541 105.045C66.906 105.101 66.8377 105.135 66.7644 105.14L61.7351 105.504H61.7154ZM66.9105 109.805H62.2121C62.1388 109.805 62.0685 109.776 62.0166 109.724C61.9648 109.673 61.9357 109.602 61.9357 109.529C61.9357 109.456 61.9648 109.385 62.0166 109.334C62.0685 109.282 62.1388 109.253 62.2121 109.253H66.9105C66.9838 109.253 67.0541 109.282 67.106 109.334C67.1578 109.385 67.1869 109.456 67.1869 109.529C67.1869 109.602 67.1578 109.673 67.106 109.724C67.0541 109.776 66.9838 109.805 66.9105 109.805ZM67.3077 114.736H67.2982L62.3037 114.57C62.2304 114.568 62.161 114.536 62.1109 114.483C62.0608 114.429 62.034 114.358 62.0364 114.285C62.0388 114.211 62.0702 114.142 62.1237 114.092C62.1773 114.042 62.2485 114.015 62.3218 114.017L67.318 114.182C67.3913 114.184 67.4611 114.214 67.5121 114.266C67.5632 114.319 67.5912 114.39 67.59 114.463C67.5889 114.536 67.5586 114.606 67.506 114.657C67.4534 114.708 67.3826 114.736 67.3093 114.735L67.3077 114.736ZM128.256 70.5298C128.184 70.5298 128.114 70.5011 128.062 70.45C128.01 70.3988 127.981 70.3293 127.98 70.2566L127.815 53.7751C127.815 53.7388 127.821 53.7027 127.835 53.669C127.848 53.6354 127.868 53.6047 127.894 53.5787C127.919 53.5527 127.949 53.532 127.983 53.5178C128.016 53.5035 128.052 53.4959 128.088 53.4955C128.161 53.4955 128.231 53.5242 128.283 53.5754C128.334 53.6265 128.364 53.696 128.365 53.7687L128.53 70.2471C128.53 70.2834 128.523 70.3194 128.51 70.3531C128.496 70.3868 128.476 70.4175 128.451 70.4435C128.426 70.4694 128.395 70.4901 128.362 70.5044C128.329 70.5187 128.293 70.5262 128.256 70.5267V70.5298ZM134.908 58.618C134.896 58.6188 134.884 58.6188 134.871 58.618L130.537 58.0557C130.5 58.0519 130.465 58.0407 130.433 58.0229C130.4 58.0051 130.372 57.981 130.349 57.9521C130.326 57.9232 130.31 57.89 130.3 57.8545C130.29 57.819 130.287 57.7819 130.292 57.7454C130.297 57.7088 130.309 57.6736 130.327 57.6418C130.346 57.61 130.371 57.5822 130.4 57.56C130.429 57.5379 130.463 57.5219 130.499 57.5129C130.534 57.5039 130.572 57.5021 130.608 57.5077L134.942 58.07C135.016 58.0747 135.084 58.1083 135.133 58.1635C135.181 58.2186 135.206 58.2908 135.201 58.3641C135.196 58.4374 135.163 58.5058 135.108 58.5543C135.052 58.6028 134.98 58.6274 134.907 58.6227L134.908 58.618ZM135.074 62.1911H130.706C130.633 62.1911 130.562 62.162 130.511 62.1102C130.459 62.0583 130.43 61.9881 130.43 61.9148C130.43 61.8415 130.459 61.7712 130.511 61.7193C130.562 61.6675 130.633 61.6384 130.706 61.6384H135.074C135.147 61.6384 135.217 61.6675 135.269 61.7193C135.321 61.7712 135.35 61.8415 135.35 61.9148C135.35 61.9881 135.321 62.0583 135.269 62.1102C135.217 62.162 135.147 62.1911 135.074 62.1911ZM130.772 66.824C130.698 66.8295 130.626 66.8057 130.57 66.7578C130.514 66.7099 130.48 66.6418 130.474 66.5685C130.469 66.4952 130.492 66.4227 130.54 66.367C130.588 66.3112 130.656 66.2768 130.73 66.2712L135.461 65.5432C135.534 65.5321 135.608 65.5502 135.667 65.5936C135.726 65.637 135.765 65.7021 135.776 65.7746C135.787 65.847 135.769 65.9209 135.726 65.98C135.683 66.0391 135.617 66.0785 135.545 66.0896L130.813 66.8177C130.8 66.8208 130.786 66.8229 130.772 66.824ZM166.064 73.8242C165.76 73.1862 166.641 72.1304 168.032 71.4655C169.424 70.8007 170.82 70.7714 171.124 71.4095C170.82 70.7714 171.703 69.7117 173.095 69.0469C174.487 68.382 175.881 68.3567 176.185 68.9947C175.881 68.3567 176.764 67.3025 178.156 66.6376C179.547 65.9728 180.937 65.9435 181.242 66.5816C180.937 65.9435 181.832 64.8807 183.224 64.2126C184.615 63.5446 186.005 63.5185 186.31 64.1566C186.005 63.5185 186.9 62.4557 188.292 61.7876C189.683 61.1196 191.073 61.0935 191.378 61.7316C191.073 61.0935 191.968 60.0307 193.36 59.3626C194.751 58.6946 196.141 58.6685 196.446 59.3065L196.437 59.2876C195.864 57.9712 194.633 57.0671 193.199 57.1153L176.216 56.1045L161.874 65.1318L162.002 65.4982C162.227 68.349 163.423 71.0366 165.39 73.112L166.064 73.8242Z" fill="#E6E6E6"/>
<path d="M165.287 70.6136C165.207 70.6131 165.129 70.5856 165.067 70.5356C165.005 70.4856 164.961 70.4159 164.944 70.3381C164.926 70.2602 164.935 70.1786 164.97 70.1066C165.005 70.0346 165.062 69.9765 165.134 69.9416L188.498 58.7775C188.582 58.7409 188.677 58.7383 188.763 58.7704C188.849 58.8024 188.919 58.8666 188.958 58.9493C188.998 59.0321 189.004 59.1269 188.975 59.2139C188.946 59.3009 188.884 59.3732 188.803 59.4156L165.439 70.5788C165.392 70.6017 165.339 70.6135 165.287 70.6136Z" fill="white"/>
</svg>
