<svg width="200" height="150" viewBox="0 0 200 150" fill="none" xmlns="http://www.w3.org/2000/svg">
<path d="M116.27 23.975C89.645 23.975 85.11 55.005 55.125 55.005C25.14 55.005 16.815 113.795 95.975 113.795C195.78 113.795 176.975 23.975 116.27 23.975Z" fill="#171717"/>
<path d="M146.59 127.635C146.59 127.635 136.755 134.555 111.85 134.555C86.9451 134.555 79.7701 126.675 79.7701 126.675L80.3401 122.045C80.3401 122.045 89.9901 116.115 112.92 116.115C135.855 116.115 146.34 122.045 146.34 122.045L146.59 127.635Z" fill="#333333"/>
<path d="M61.5999 31.605C61.5999 31.605 58.1849 27.065 67.5899 19.865C67.5899 19.865 66.1399 22.57 67.5899 24.51C67.5899 24.51 68.0149 20.25 70.2599 18.585C72.5049 16.925 82.6799 15.3 83.9399 15.455C85.1999 15.61 88.4499 17.65 88.4499 17.65C88.4499 17.65 73.8399 36.08 63.7699 32.73" fill="#999999"/>
<path d="M67.5998 27.475V24.525L67.5898 24.495C66.1548 22.555 67.5948 19.865 67.5948 19.865C58.1898 27.065 61.5998 31.605 61.5998 31.605L63.7698 32.73C67.9848 34.13 73.0098 31.715 77.4098 28.435C71.7998 28.675 67.5998 27.475 67.5998 27.475Z" fill="#E6E6E6"/>
<path d="M146.59 127.635C146.59 127.635 136.755 134.555 111.85 134.555C86.9451 134.555 79.7701 126.65 79.7701 126.65L80.3401 121.995L87.6951 62.34C88.5551 55.36 91.9251 49.24 96.8401 44.835C101.755 40.43 108.215 37.75 115.245 37.65C130.455 37.44 143.08 49.35 143.76 64.545L146.34 122.04L146.59 127.635Z" stroke="#999999" stroke-width="0.5" stroke-miterlimit="10" stroke-linecap="round" stroke-linejoin="round"/>
<path d="M146.341 122.045C146.341 122.045 131.511 127.635 111.991 127.635C92.4706 127.635 80.3406 122.045 80.3406 122.045C80.3406 122.045 89.9906 116.11 112.926 116.11C135.861 116.11 146.341 122.045 146.341 122.045Z" fill="#E6E6E6"/>
<path d="M146.341 122.045C146.341 122.045 131.511 127.635 111.991 127.635C92.4706 127.635 80.3406 122.045 80.3406 122.045" stroke="#999999" stroke-width="0.5" stroke-miterlimit="10" stroke-linecap="round" stroke-linejoin="round"/>
<path d="M73.2899 74.635L67.6899 100.8" stroke="#999999" stroke-width="0.5" stroke-miterlimit="10" stroke-linecap="round" stroke-linejoin="round"/>
<path d="M79.7697 77.95L74.4647 102.8" stroke="#999999" stroke-width="0.5" stroke-miterlimit="10" stroke-linecap="round" stroke-linejoin="round"/>
<path d="M116.51 37.675L113.72 127.62" stroke="#999999" stroke-width="0.5" stroke-miterlimit="10" stroke-linecap="round" stroke-linejoin="round"/>
<path d="M125.965 39.615C125.965 39.615 130.505 43.24 131.22 70.395C131.93 97.55 130.905 125.96 130.905 125.96" stroke="#999999" stroke-width="0.5" stroke-miterlimit="10" stroke-linecap="round" stroke-linejoin="round"/>
<path d="M100.715 104.43C100.105 116.91 99.6345 126.87 99.6345 126.87" stroke="#999999" stroke-width="0.5" stroke-miterlimit="10" stroke-linecap="round" stroke-linejoin="round"/>
<path d="M107.8 38.77C107.8 38.77 103.89 44.465 102.87 62.31C102.66 65.97 102.4 70.85 102.12 76.29" stroke="#999999" stroke-width="0.5" stroke-miterlimit="10" stroke-linecap="round" stroke-linejoin="round"/>
<path d="M88.5452 103.22C87.6752 114.92 87.0852 124.37 87.0852 124.37" stroke="#999999" stroke-width="0.5" stroke-miterlimit="10" stroke-linecap="round" stroke-linejoin="round"/>
<path d="M98.9253 43.155C98.9253 43.155 94.4053 49.37 92.0553 65.87C91.6053 69.025 91.1453 73.115 90.7003 77.66" stroke="#999999" stroke-width="0.5" stroke-miterlimit="10" stroke-linecap="round" stroke-linejoin="round"/>
<path d="M135.88 46.245C135.88 46.245 138.735 54.16 139.965 65.87C141.195 77.58 141.86 123.47 141.86 123.47" stroke="#999999" stroke-width="0.5" stroke-miterlimit="10" stroke-linecap="round" stroke-linejoin="round"/>
<path d="M142.835 58.525C142.835 58.525 132.81 53.635 115.115 53.635C97.4196 53.635 88.4396 58.525 88.4396 58.525C88.4396 58.525 100.545 62.24 115.115 62.24C129.685 62.24 142.835 58.525 142.835 58.525Z" stroke="#999999" stroke-width="0.5" stroke-miterlimit="10" stroke-linecap="round" stroke-linejoin="round"/>
<path d="M68.7797 85.455C68.7797 85.455 61.7597 85.465 55.6597 73.97C49.5597 62.475 55.7647 55.36 60.5347 56.08C65.3047 56.8 65.3297 65.975 58.5597 65.53C54.3447 65.255 45.8747 55.33 54.3297 42.11" stroke="#333333" stroke-width="0.5" stroke-miterlimit="10" stroke-linecap="round" stroke-linejoin="round"/>
<path d="M58.1698 39.49C58.1698 39.49 67.8348 25.025 83.9398 18.585C83.9398 18.585 75.0548 20.075 61.5998 31.605C58.5248 34.24 58.1698 39.49 58.1698 39.49Z" fill="#333333"/>
<path d="M114.346 37.59C114.346 37.59 112.186 36.085 112.186 34.035C112.186 31.985 113.356 30.01 116.431 30.01C119.501 30.01 120.356 32.11 120.356 34.065C120.356 36.025 117.961 37.645 117.961 37.645" stroke="#999999" stroke-width="0.5" stroke-miterlimit="10" stroke-linecap="round" stroke-linejoin="round"/>
<path d="M82.79 102.165C82.79 102.165 96.61 100.8 114.55 100.8C132.49 100.8 145.46 102.445 145.46 102.445C145.46 102.445 135.82 104.83 114.425 104.83C93.03 104.83 82.79 102.165 82.79 102.165ZM82.79 102.165C82.79 102.165 79.73 104.28 71.42 102.165C63.11 100.05 60.875 94.04 60.875 94.04L68.19 69.5C68.19 69.5 71.535 74.185 76.535 76.69C81.535 79.195 85.7 78.545 85.7 78.545C85.7 78.545 97.195 75.795 115.325 75.795C133.455 75.795 144.385 78.545 144.385 78.545C144.385 78.545 132.19 79.835 115.195 79.835C98.2 79.835 85.695 78.545 85.695 78.545" stroke="#999999" stroke-width="0.5" stroke-miterlimit="10" stroke-linecap="round" stroke-linejoin="round"/>
</svg>
