<svg width="375" height="244" viewBox="0 0 375 244" fill="none" xmlns="http://www.w3.org/2000/svg">
<path d="M169.806 43.1006V44.6006H169.877L169.948 44.5939L169.806 43.1006ZM147.229 239.977L146.959 241.453L147.229 239.977ZM373.498 1.9213C373.454 1.09401 372.749 0.4586 371.921 0.502066L358.44 1.2104C357.613 1.25386 356.977 1.95975 357.021 2.78703C357.064 3.61432 357.77 4.24973 358.597 4.20626L370.581 3.57664L371.21 15.5601C371.254 16.3874 371.96 17.0228 372.787 16.9793C373.614 16.9359 374.25 16.23 374.206 15.4027L373.498 1.9213ZM8.31355 38.6304C7.86973 40.1887 7.4378 41.7809 7.01972 43.404L9.92489 44.1523C10.3367 42.5536 10.762 40.9859 11.1988 39.4521L8.31355 38.6304ZM4.7773 53.0766C4.11974 56.2563 3.52135 59.5207 2.99421 62.8507L5.95731 63.3198C6.47699 60.0369 7.06692 56.8186 7.71513 53.6841L4.7773 53.0766ZM1.67376 72.6965C1.3156 75.9577 1.03199 79.2619 0.833328 82.5925L3.82801 82.7711C4.02359 79.4921 4.3029 76.2376 4.65583 73.024L1.67376 72.6965ZM0.503307 92.5314C0.483129 95.8405 0.554931 99.1602 0.7287 102.475L3.72459 102.318C3.55403 99.0644 3.48341 95.8033 3.50325 92.5497L0.503307 92.5314ZM1.56675 112.396C1.95679 115.704 2.46015 118.992 3.08715 122.244L6.03289 121.676C5.42052 118.5 4.92809 115.284 4.54611 112.045L1.56675 112.396ZM5.37429 131.964C6.27793 135.186 7.3209 138.355 8.51425 141.453L11.3137 140.374C10.1562 137.369 9.14253 134.291 8.26282 131.154L5.37429 131.964ZM12.5965 150.596C14.1241 153.572 15.8176 156.458 17.6884 159.236L20.1767 157.56C18.3752 154.885 16.7415 152.101 15.2655 149.226L12.5965 150.596ZM23.8176 167.196C26.0044 169.685 28.3708 172.051 30.927 174.279L32.8979 172.017C30.4441 169.879 28.1719 167.607 26.0712 165.216L23.8176 167.196ZM38.9263 180.364C41.6601 182.173 44.5654 183.845 47.65 185.369L48.9785 182.679C46.0052 181.21 43.2092 179.6 40.5816 177.862L38.9263 180.364ZM56.8499 189.266C59.8899 190.357 63.0754 191.322 66.412 192.15L67.1349 189.238C63.8934 188.434 60.805 187.498 57.8636 186.442L56.8499 189.266ZM76.194 194.114C79.3717 194.61 82.6691 194.996 86.09 195.265L86.3254 192.275C82.9776 192.011 79.7562 191.634 76.6571 191.15L76.194 194.114ZM96.0308 195.71C99.2479 195.751 102.564 195.697 105.98 195.544L105.846 192.547C102.484 192.697 99.2261 192.75 96.0684 192.711L96.0308 195.71ZM115.927 194.845C119.132 194.541 122.419 194.157 125.789 193.689L125.376 190.718C122.047 191.18 118.804 191.559 115.644 191.859L115.927 194.845ZM135.51 192.147C137.152 191.855 138.813 191.545 140.493 191.215L139.915 188.271C138.253 188.598 136.61 188.905 134.985 189.193L135.51 192.147ZM140.493 191.215C142.176 190.885 143.838 190.542 145.478 190.186L144.843 187.254C143.222 187.606 141.579 187.945 139.915 188.271L140.493 191.215ZM155.138 187.885C158.441 187.025 161.648 186.111 164.76 185.146L163.872 182.281C160.805 183.231 157.642 184.133 154.382 184.982L155.138 187.885ZM174.274 181.938C177.491 180.761 180.594 179.527 183.585 178.239L182.399 175.484C179.46 176.748 176.409 177.962 173.243 179.121L174.274 181.938ZM192.66 174.003C195.725 172.454 198.654 170.844 201.448 169.182L199.913 166.604C197.18 168.23 194.312 169.806 191.306 171.326L192.66 174.003ZM209.874 163.726C212.695 161.739 215.35 159.692 217.841 157.594L215.908 155.299C213.485 157.34 210.899 159.334 208.146 161.274L209.874 163.726ZM225.222 150.753C227.638 148.281 229.851 145.756 231.865 143.191L229.506 141.338C227.56 143.816 225.419 146.259 223.076 148.656L225.222 150.753ZM237.614 134.895C239.415 131.92 240.968 128.91 242.28 125.884L239.527 124.691C238.271 127.59 236.78 130.479 235.048 133.342L237.614 134.895ZM245.617 116.326C246.51 112.979 247.118 109.635 247.449 106.322L244.463 106.024C244.149 109.174 243.571 112.358 242.718 115.553L245.617 116.326ZM247.595 96.1593C247.348 92.7324 246.798 89.3694 245.957 86.1002L243.052 86.8476C243.847 89.9413 244.369 93.1265 244.603 96.3755L247.595 96.1593ZM242.527 76.5072C241.097 73.4338 239.384 70.4883 237.4 67.7011L234.956 69.4411C236.834 72.079 238.455 74.8656 239.807 77.7723L242.527 76.5072ZM230.775 59.9717C228.384 57.6371 225.758 55.4752 222.909 53.5118L221.207 55.9822C223.918 57.8502 226.412 59.9041 228.68 62.1182L230.775 59.9717ZM214.122 48.4432C211.147 47.0232 207.997 45.7887 204.679 44.759L203.789 47.6241C206.972 48.6121 209.988 49.7942 212.83 51.1506L214.122 48.4432ZM194.812 42.4003C191.601 41.8468 188.266 41.4678 184.812 41.2764L184.646 44.2718C187.988 44.457 191.208 44.8233 194.302 45.3567L194.812 42.4003ZM174.748 41.2453C173.077 41.3242 171.382 41.4444 169.665 41.6073L169.948 44.5939C171.619 44.4354 173.266 44.3186 174.89 44.242L174.748 41.2453ZM169.806 41.6006C168.131 41.6006 166.459 41.6444 164.793 41.7308L164.948 44.7268C166.563 44.643 168.183 44.6006 169.806 44.6006V41.6006ZM154.842 42.752C151.545 43.2573 148.276 43.9234 145.045 44.7399L145.78 47.6485C148.921 46.8548 152.096 46.2078 155.297 45.7174L154.842 42.752ZM135.48 47.6265C132.343 48.7288 129.25 49.9698 126.211 51.3392L127.443 54.0744C130.407 52.7392 133.42 51.5301 136.474 50.4569L135.48 47.6265ZM117.287 55.8072C114.378 57.413 111.53 59.1357 108.749 60.965L110.398 63.4712C113.115 61.6837 115.897 60.0012 118.737 58.4335L117.287 55.8072ZM100.631 66.7547C97.9971 68.7853 95.4387 70.9124 92.964 73.1261L94.9641 75.362C97.3849 73.1966 99.8871 71.1162 102.463 69.1307L100.631 66.7547ZM85.7802 80.0361C83.4631 82.432 81.2387 84.9061 79.1153 87.448L81.4177 89.3713C83.4943 86.8854 85.67 84.4655 87.9367 82.1216L85.7802 80.0361ZM73.0111 95.3299C71.0641 98.0475 69.2301 100.825 67.5179 103.653L70.084 105.207C71.7556 102.446 73.547 99.7331 75.4498 97.077L73.0111 95.3299ZM62.6976 112.387C61.1977 115.39 59.8361 118.434 58.6225 121.508L61.4129 122.61C62.5936 119.619 63.9194 116.655 65.3814 113.727L62.6976 112.387ZM55.3866 130.975C54.4517 134.21 53.686 137.465 53.1008 140.726L56.0536 141.256C56.6198 138.101 57.3614 134.947 58.2687 131.808L55.3866 130.975ZM51.8868 150.679C51.6736 154.037 51.6637 157.388 51.8693 160.717L54.8636 160.532C54.666 157.333 54.6752 154.107 54.8808 150.869L51.8868 150.679ZM53.157 170.684C53.8104 173.963 54.6926 177.204 55.8157 180.392L58.6452 179.395C57.5704 176.344 56.7254 173.24 56.0991 170.098L53.157 170.684ZM59.8367 189.625C61.365 192.542 63.1203 195.396 65.1122 198.174L67.5503 196.426C65.6392 193.761 63.9572 191.026 62.4941 188.233L59.8367 189.625ZM71.4843 205.926C73.7065 208.3 76.1292 210.602 78.7591 212.822L80.694 210.529C78.1514 208.383 75.8144 206.162 73.6749 203.876L71.4843 205.926ZM86.7492 218.868C89.4307 220.691 92.2796 222.442 95.3004 224.116L96.7543 221.492C93.81 219.86 91.0389 218.157 88.4355 216.387L86.7492 218.868ZM104.163 228.572C107.076 229.9 110.123 231.165 113.307 232.363L114.363 229.556C111.241 228.381 108.257 227.141 105.408 225.843L104.163 228.572ZM122.715 235.581C125.825 236.544 129.048 237.45 132.389 238.295L133.125 235.387C129.833 234.554 126.661 233.662 123.603 232.715L122.715 235.581ZM141.95 240.481C143.594 240.818 145.264 241.143 146.959 241.453L147.499 238.502C145.825 238.195 144.176 237.875 142.554 237.542L141.95 240.481ZM146.959 241.453C148.715 241.774 150.448 242.057 152.159 242.302L152.584 239.332C150.912 239.093 149.218 238.817 147.499 238.502L146.959 241.453ZM162.459 243.333C166.015 243.531 169.47 243.551 172.83 243.402L172.697 240.405C169.44 240.55 166.085 240.53 162.626 240.338L162.459 243.333ZM183.164 242.371C186.654 241.821 190.035 241.074 193.316 240.14L192.495 237.255C189.331 238.155 186.068 238.876 182.697 239.408L183.164 242.371ZM203.126 236.681C206.331 235.323 209.434 233.777 212.447 232.053L210.957 229.449C208.044 231.116 205.047 232.609 201.956 233.918L203.126 236.681ZM221.164 226.407C223.934 224.396 226.626 222.229 229.25 219.918L227.267 217.667C224.709 219.92 222.09 222.027 219.401 223.979L221.164 226.407ZM236.733 212.764C239.095 210.325 241.404 207.767 243.67 205.1L241.383 203.158C239.156 205.78 236.89 208.289 234.578 210.677L236.733 212.764ZM250.132 197.052C252.182 194.361 254.2 191.581 256.193 188.72L253.732 187.005C251.761 189.835 249.767 192.58 247.745 195.234L250.132 197.052ZM261.926 180.177C263.763 177.342 265.584 174.44 267.394 171.479L264.834 169.914C263.036 172.856 261.229 175.735 259.408 178.546L261.926 180.177ZM272.654 162.667C274.359 159.749 276.058 156.782 277.758 153.773L275.145 152.298C273.452 155.297 271.76 158.25 270.064 161.154L272.654 162.667ZM282.749 144.821C284.382 141.858 286.02 138.86 287.666 135.832L285.03 134.399C283.386 137.424 281.752 140.416 280.122 143.372L282.749 144.821ZM292.544 126.824C294.154 123.842 295.776 120.838 297.413 117.812L294.774 116.384C293.137 119.411 291.514 122.418 289.904 125.398L292.544 126.824ZM302.301 108.811C303.924 105.836 305.565 102.846 307.227 99.8446L304.602 98.3913C302.937 101.399 301.293 104.395 299.667 107.374L302.301 108.811ZM312.212 90.9297C313.879 87.9799 315.57 85.0229 317.287 82.0624L314.691 80.5573C312.968 83.5285 311.272 86.4951 309.6 89.4536L312.212 90.9297ZM322.471 73.256C324.212 70.3443 325.981 67.4325 327.782 64.5242L325.232 62.9448C323.422 65.8673 321.644 68.7923 319.896 71.7164L322.471 73.256ZM333.237 55.883C335.071 53.0352 336.937 50.194 338.84 47.3625L336.35 45.6892C334.436 48.5379 332.558 51.3955 330.715 54.2588L333.237 55.883ZM344.62 38.9569C346.571 36.1849 348.56 33.4255 350.589 30.6816L348.177 28.8978C346.133 31.6613 344.13 34.4398 342.167 37.2302L344.62 38.9569ZM356.76 22.552C358.842 19.8811 360.966 17.2283 363.135 14.5967L360.82 12.6889C358.633 15.3422 356.492 18.0161 354.394 20.7076L356.76 22.552ZM369.723 6.8288C370.842 5.54771 371.973 4.27251 373.115 3.00355L370.885 0.996452C369.733 2.27672 368.592 3.56315 367.464 4.85537L369.723 6.8288Z" fill="#999999"/>
</svg>
