<svg width="40" height="40" viewBox="0 0 40 40" fill="none" xmlns="http://www.w3.org/2000/svg">
<rect width="40" height="40" rx="20" fill="#262626"/>
<path d="M20.75 15.5V19.5753L24.1363 21.6069C24.3068 21.7093 24.4297 21.8753 24.4779 22.0684C24.5261 22.2614 24.4956 22.4657 24.3931 22.6363C24.2907 22.8068 24.1247 22.9297 23.9316 22.9779C23.7386 23.0261 23.5343 22.9956 23.3638 22.8932L19.6138 20.6432C19.5028 20.5765 19.4109 20.4822 19.3472 20.3695C19.2834 20.2568 19.25 20.1295 19.25 20V15.5C19.25 15.3011 19.329 15.1104 19.4697 14.9697C19.6103 14.829 19.8011 14.75 20 14.75C20.1989 14.75 20.3897 14.829 20.5303 14.9697C20.671 15.1104 20.75 15.3011 20.75 15.5ZM20 11C18.8169 10.9971 17.6449 11.2288 16.5519 11.6818C15.4589 12.1348 14.4667 12.8001 13.6325 13.6391C12.9509 14.3291 12.3453 14.9928 11.75 15.6875V14C11.75 13.8011 11.671 13.6104 11.5303 13.4697C11.3897 13.329 11.1989 13.25 11 13.25C10.8011 13.25 10.6103 13.329 10.4697 13.4697C10.329 13.6104 10.25 13.8011 10.25 14V17.75C10.25 17.9489 10.329 18.1397 10.4697 18.2804C10.6103 18.421 10.8011 18.5 11 18.5H14.75C14.9489 18.5 15.1397 18.421 15.2803 18.2804C15.421 18.1397 15.5 17.9489 15.5 17.75C15.5 17.5511 15.421 17.3604 15.2803 17.2197C15.1397 17.079 14.9489 17 14.75 17H12.5938C13.2641 16.2107 13.9316 15.4672 14.6928 14.6966C15.7352 13.6542 17.0616 12.9422 18.5063 12.6494C19.9511 12.3565 21.4501 12.496 22.816 13.0502C24.182 13.6045 25.3543 14.549 26.1866 15.7657C27.0188 16.9825 27.474 18.4175 27.4953 19.8914C27.5166 21.3654 27.1031 22.813 26.3064 24.0532C25.5098 25.2935 24.3652 26.2716 23.0159 26.8651C21.6665 27.4586 20.1722 27.6414 18.7196 27.3905C17.267 27.1396 15.9205 26.4662 14.8484 25.4544C14.7768 25.3867 14.6925 25.3338 14.6004 25.2986C14.5083 25.2635 14.4101 25.2468 14.3116 25.2496C14.2131 25.2524 14.116 25.2746 14.026 25.3149C13.9361 25.3551 13.8549 25.4128 13.7872 25.4844C13.7195 25.5561 13.6665 25.6403 13.6314 25.7325C13.5963 25.8246 13.5796 25.9227 13.5824 26.0212C13.5852 26.1198 13.6073 26.2168 13.6476 26.3068C13.6879 26.3968 13.7455 26.4779 13.8172 26.5457C14.8854 27.5537 16.1841 28.285 17.6 28.6757C19.0159 29.0665 20.5058 29.1047 21.9399 28.7872C23.3739 28.4696 24.7085 27.806 25.827 26.854C26.9456 25.9021 27.8142 24.6909 28.357 23.3261C28.8998 21.9613 29.1003 20.4844 28.9411 19.0243C28.7818 17.5641 28.2677 16.1652 27.4434 14.9495C26.6192 13.7338 25.5099 12.7382 24.2125 12.0498C22.915 11.3614 21.4688 11.001 20 11Z" fill="white"/>
</svg>
