<svg width="110" height="89" viewBox="0 0 110 89" fill="none" xmlns="http://www.w3.org/2000/svg">
<rect width="110" height="89" rx="8" fill="#262626"/>
<path d="M55.5627 40.1562C53.1347 40.1562 51.1534 42.1376 51.1534 44.5655C51.1534 46.9934 53.1347 48.9748 55.5627 48.9748C57.9906 48.9748 59.972 46.9934 59.972 44.5655C59.972 42.1376 57.9906 40.1562 55.5627 40.1562ZM68.7872 44.5655C68.7872 42.7396 68.8038 40.9302 68.7012 39.1076C68.5987 36.9906 68.1157 35.1118 66.5677 33.5638C65.0163 32.0124 63.1408 31.5328 61.0238 31.4302C59.1979 31.3277 57.3886 31.3442 55.566 31.3442C53.7401 31.3442 51.9307 31.3277 50.1081 31.4302C47.9911 31.5328 46.1123 32.0157 44.5643 33.5638C43.0129 35.1151 42.5333 36.9906 42.4307 39.1076C42.3282 40.9335 42.3447 42.7429 42.3447 44.5655C42.3447 46.3881 42.3282 48.2007 42.4307 50.0233C42.5333 52.1403 43.0162 54.0191 44.5643 55.5672C46.1156 57.1185 47.9911 57.5982 50.1081 57.7007C51.934 57.8033 53.7434 57.7867 55.566 57.7867C57.3919 57.7867 59.2012 57.8033 61.0238 57.7007C63.1408 57.5982 65.0196 57.1152 66.5677 55.5672C68.119 54.0158 68.5987 52.1403 68.7012 50.0233C68.8071 48.2007 68.7872 46.3914 68.7872 44.5655ZM55.5627 51.3498C51.8083 51.3498 48.7784 48.3198 48.7784 44.5655C48.7784 40.8111 51.8083 37.7812 55.5627 37.7812C59.317 37.7812 62.3469 40.8111 62.3469 44.5655C62.3469 48.3198 59.317 51.3498 55.5627 51.3498ZM62.6248 39.0878C61.7482 39.0878 61.0404 38.3799 61.0404 37.5034C61.0404 36.6268 61.7482 35.9189 62.6248 35.9189C63.5014 35.9189 64.2092 36.6268 64.2092 37.5034C64.2095 37.7115 64.1687 37.9176 64.0892 38.11C64.0096 38.3023 63.8929 38.4771 63.7457 38.6243C63.5986 38.7715 63.4238 38.8882 63.2314 38.9677C63.0391 39.0472 62.8329 39.088 62.6248 39.0878Z" fill="#999999"/>
</svg>
