<svg width="40" height="40" viewBox="0 0 40 40" fill="none" xmlns="http://www.w3.org/2000/svg">
<rect width="40" height="40" rx="20" fill="#FEF4EF"/>
<path d="M18.5903 21.4098C19.0003 21.7998 19.0003 22.4398 18.5903 22.8298C18.2003 23.2198 17.5603 23.2198 17.1703 22.8298C15.2203 20.8798 15.2203 17.7098 17.1703 15.7598L20.7103 12.2198C22.6603 10.2698 25.8303 10.2698 27.7803 12.2198C29.7303 14.1698 29.7303 17.3398 27.7803 19.2898L26.2903 20.7798C26.3003 19.9598 26.1703 19.1398 25.8903 18.3598L26.3603 17.8798C27.5403 16.7098 27.5403 14.8098 26.3603 13.6398C25.1903 12.4598 23.2903 12.4598 22.1203 13.6398L18.5903 17.1698C17.4103 18.3398 17.4103 20.2398 18.5903 21.4098ZM21.4103 17.1698C21.8003 16.7798 22.4403 16.7798 22.8303 17.1698C24.7803 19.1198 24.7803 22.2898 22.8303 24.2398L19.2903 27.7798C17.3403 29.7298 14.1703 29.7298 12.2203 27.7798C10.2703 25.8298 10.2703 22.6598 12.2203 20.7098L13.7103 19.2198C13.7003 20.0398 13.8303 20.8598 14.1103 21.6498L13.6403 22.1198C12.4603 23.2898 12.4603 25.1898 13.6403 26.3598C14.8103 27.5398 16.7103 27.5398 17.8803 26.3598L21.4103 22.8298C22.5903 21.6598 22.5903 19.7598 21.4103 18.5898C21.0003 18.1998 21.0003 17.5598 21.4103 17.1698Z" fill="#F48D62"/>
</svg>
