<svg width="40" height="40" viewBox="0 0 40 40" fill="none" xmlns="http://www.w3.org/2000/svg">
<rect width="40" height="40" rx="20" fill="#FEF4EF"/>
<path d="M20 10C18.6868 10 17.3864 10.2587 16.1732 10.7612C14.9599 11.2638 13.8575 12.0003 12.9289 12.9289C11.0536 14.8043 10 17.3478 10 20C10 22.6522 11.0536 25.1957 12.9289 27.0711C13.8575 27.9997 14.9599 28.7362 16.1732 29.2388C17.3864 29.7413 18.6868 30 20 30C22.6522 30 25.1957 28.9464 27.0711 27.0711C28.9464 25.1957 30 22.6522 30 20C30 18.6868 29.7413 17.3864 29.2388 16.1732C28.7362 14.9599 27.9997 13.8575 27.0711 12.9289C26.1425 12.0003 25.0401 11.2638 23.8268 10.7612C22.6136 10.2587 21.3132 10 20 10ZM15.07 26.28C15.5 25.38 18.12 24.5 20 24.5C21.88 24.5 24.5 25.38 24.93 26.28C23.57 27.36 21.86 28 20 28C18.14 28 16.43 27.36 15.07 26.28ZM26.36 24.83C24.93 23.09 21.46 22.5 20 22.5C18.54 22.5 15.07 23.09 13.64 24.83C12.62 23.5 12 21.82 12 20C12 15.59 15.59 12 20 12C24.41 12 28 15.59 28 20C28 21.82 27.38 23.5 26.36 24.83ZM20 14C18.06 14 16.5 15.56 16.5 17.5C16.5 19.44 18.06 21 20 21C21.94 21 23.5 19.44 23.5 17.5C23.5 15.56 21.94 14 20 14ZM20 19C19.6022 19 19.2206 18.842 18.9393 18.5607C18.658 18.2794 18.5 17.8978 18.5 17.5C18.5 17.1022 18.658 16.7206 18.9393 16.4393C19.2206 16.158 19.6022 16 20 16C20.3978 16 20.7794 16.158 21.0607 16.4393C21.342 16.7206 21.5 17.1022 21.5 17.5C21.5 17.8978 21.342 18.2794 21.0607 18.5607C20.7794 18.842 20.3978 19 20 19Z" fill="#F48D62"/>
</svg>
