<svg width="40" height="40" viewBox="0 0 40 40" fill="none" xmlns="http://www.w3.org/2000/svg">
<rect width="40" height="40" rx="20" fill="#262626"/>
<path d="M26 10.8594H14C13.2044 10.8594 12.4413 11.1754 11.8787 11.7381C11.3161 12.3007 11 13.0637 11 13.8594V25.8594C11 26.655 11.3161 27.4181 11.8787 27.9807C12.4413 28.5433 13.2044 28.8594 14 28.8594H26C26.7956 28.8594 27.5587 28.5433 28.1213 27.9807C28.6839 27.4181 29 26.655 29 25.8594V13.8594C29 13.0637 28.6839 12.3007 28.1213 11.7381C27.5587 11.1754 26.7956 10.8594 26 10.8594ZM27.5 25.8594C27.5 26.2572 27.342 26.6387 27.0607 26.92C26.7794 27.2013 26.3978 27.3594 26 27.3594H14C13.6022 27.3594 13.2206 27.2013 12.9393 26.92C12.658 26.6387 12.5 26.2572 12.5 25.8594V13.8594C12.5 13.4616 12.658 13.08 12.9393 12.7987C13.2206 12.5174 13.6022 12.3594 14 12.3594H26C26.3978 12.3594 26.7794 12.5174 27.0607 12.7987C27.342 13.08 27.5 13.4616 27.5 13.8594V25.8594ZM19.25 17.9844C19.25 18.2069 19.184 18.4244 19.0604 18.6094C18.9368 18.7944 18.7611 18.9386 18.5555 19.0237C18.35 19.1089 18.1238 19.1312 17.9055 19.0878C17.6873 19.0444 17.4868 18.9372 17.3295 18.7799C17.1722 18.6225 17.065 18.4221 17.0216 18.2039C16.9782 17.9856 17.0005 17.7594 17.0856 17.5539C17.1708 17.3483 17.315 17.1726 17.5 17.049C17.685 16.9254 17.9025 16.8594 18.125 16.8594C18.4234 16.8594 18.7095 16.9779 18.9205 17.1889C19.1315 17.3999 19.25 17.686 19.25 17.9844ZM23 21.7344C23 21.9569 22.934 22.1744 22.8104 22.3594C22.6868 22.5444 22.5111 22.6886 22.3055 22.7737C22.1 22.8589 21.8738 22.8812 21.6555 22.8378C21.4373 22.7944 21.2368 22.6872 21.0795 22.5299C20.9222 22.3725 20.815 22.1721 20.7716 21.9539C20.7282 21.7356 20.7505 21.5094 20.8356 21.3039C20.9208 21.0983 21.065 20.9226 21.25 20.799C21.435 20.6754 21.6525 20.6094 21.875 20.6094C22.1734 20.6094 22.4595 20.7279 22.6705 20.9389C22.8815 21.1499 23 21.436 23 21.7344Z" fill="white"/>
</svg>
