<svg width="24" height="24" viewBox="0 0 24 24" fill="none" xmlns="http://www.w3.org/2000/svg">
<rect width="24" height="24" rx="12" fill="#D1DBFB"/>
<path d="M5.38465 10.2919C5.38241 10.3232 5.38049 10.3549 5.37921 10.3869C5.37857 10.4055 5.37793 10.4244 5.37793 10.4432C5.37793 10.4442 5.37793 10.4452 5.37793 10.4461L6.46049 9.81701C6.46049 9.76453 6.46401 9.71365 6.46753 9.66309L5.38465 10.2919ZM6.87361 14.0224L7.95617 13.3933C7.94945 13.4647 7.94593 13.5303 7.94561 13.6055C7.94305 14.5069 8.57857 15.6039 9.35969 16.0548L8.27713 16.6839C7.49569 16.2327 6.86049 15.136 6.86305 14.2346C6.86369 14.1597 6.86689 14.0938 6.87361 14.0224ZM10.3802 16.1559L9.29761 16.785C9.03745 16.9364 8.67617 16.9143 8.27745 16.6842L9.36001 16.0551C9.75873 16.2852 10.12 16.3069 10.3802 16.1559Z" fill="#4F565C"/>
<path d="M8.2461 11.6913L7.16354 12.3204C6.97346 12.4308 6.70914 12.4145 6.4173 12.2458C5.84194 11.9137 5.37602 11.1105 5.37794 10.4455L6.4605 9.81641C6.45858 10.4814 6.9245 11.2846 7.49986 11.6167C7.7917 11.7854 8.0557 11.802 8.2461 11.6913Z" fill="#4F565C"/>
<path d="M9.69515 15.6438L10.7777 15.0146C10.7483 15.039 10.7169 15.0607 10.6836 15.0799L9.60107 15.709C9.63435 15.6898 9.66571 15.6681 9.69515 15.6438Z" fill="#736443"/>
<path d="M7.45734 11.4846L8.5399 10.8555C8.51878 10.8727 8.49638 10.8881 8.4727 10.9019L7.39014 11.531C7.41382 11.5172 7.43622 11.5019 7.45734 11.4846Z" fill="#736443"/>
<path d="M9.13107 12.4548L10.2136 11.8257C10.2101 11.8762 10.2069 11.9271 10.2066 11.9796C10.2047 12.6446 10.6706 13.4478 11.2427 13.778L10.1602 14.4071C9.58803 14.0769 9.12211 13.2737 9.12403 12.6087C9.12435 12.5562 9.12787 12.5057 9.13107 12.4548ZM11.9893 13.8529L10.9067 14.482C10.7167 14.5924 10.4523 14.5761 10.1605 14.4074L11.2431 13.7783C11.5349 13.947 11.7989 13.9633 11.9893 13.8529Z" fill="#4F565C"/>
<path d="M11.2002 13.6457L12.2827 13.0166C12.2613 13.0339 12.2389 13.0496 12.2149 13.0636L11.1323 13.6928C11.1563 13.679 11.1787 13.6633 11.2002 13.6457Z" fill="#736443"/>
<path d="M11.563 17.7209L10.4805 18.35C11.5509 17.7279 12.2609 16.0239 12.2677 13.6342C12.2693 13.0521 12.2283 12.4566 12.1515 11.8703L13.2341 11.2412C13.3109 11.8275 13.3518 12.423 13.3502 13.0051C13.3435 15.3945 12.6334 17.0988 11.563 17.7209Z" fill="#F8D770"/>
<path d="M12.1516 11.8698C12.2284 12.456 12.2694 13.0515 12.2678 13.6336C12.2569 17.4352 10.4665 19.5018 8.27642 18.2371C6.08282 16.9709 4.31322 12.849 4.32378 9.04738C4.32538 8.4653 4.36954 7.91874 4.44954 7.4269C4.48346 7.23106 4.64474 7.19266 4.81434 7.29058C4.8937 7.33634 4.97466 7.41186 5.04506 7.5149C5.95802 8.8621 7.08122 9.99618 8.29722 10.6983C9.51322 11.4003 10.6393 11.5651 11.5567 11.2707C11.6278 11.2493 11.7091 11.2679 11.7887 11.3136C11.9596 11.4122 12.1209 11.6368 12.1516 11.8698ZM8.27738 16.6842C9.06522 17.1389 9.7081 16.7802 9.71066 15.8787C9.71098 15.8035 9.70458 15.7248 9.69498 15.6439C9.3865 15.8986 8.86586 15.88 8.28058 15.5421C7.6953 15.2042 7.17978 14.6243 6.87354 14.0224C6.86682 14.0938 6.8633 14.1594 6.86298 14.2346C6.86074 15.1363 7.49594 16.233 8.27738 16.6842ZM5.37754 10.4461C5.37562 11.1111 5.84154 11.9143 6.4169 12.2464C6.99546 12.5805 7.46458 12.3171 7.4665 11.6522C7.4665 11.5997 7.46362 11.5415 7.45722 11.4848C7.23066 11.6701 6.84762 11.656 6.41946 11.4087C5.9913 11.1613 5.61274 10.736 5.38458 10.2919C5.38106 10.3427 5.37786 10.3933 5.37754 10.4461ZM10.1599 14.4074C10.7385 14.7415 11.2076 14.4781 11.2095 13.8131C11.2095 13.7607 11.2067 13.7024 11.2003 13.6458C10.9737 13.8311 10.5939 13.8189 10.1625 13.5696C9.73434 13.3223 9.35898 12.8986 9.13082 12.4547C9.1273 12.5053 9.1241 12.5562 9.12378 12.6087C9.12218 13.2736 9.5881 14.0771 10.1599 14.4074Z" fill="#E2B647"/>
<path d="M4.54883 7.26329L5.63139 6.63417C5.79427 6.53945 6.01379 6.71897 6.12803 6.88569C7.04099 8.23289 8.16419 9.36697 9.38019 10.0691C10.5962 10.7711 11.7223 10.9359 12.64 10.6419C12.7111 10.6204 12.7923 10.639 12.872 10.6847C13.0423 10.783 13.2035 11.0076 13.2343 11.2409L12.1517 11.87C12.121 11.6371 11.9597 11.4124 11.7895 11.3139C11.7098 11.2678 11.6285 11.2495 11.5575 11.271C10.6397 11.5651 9.51395 11.4006 8.29795 10.6985C7.08195 9.99641 5.95875 8.86265 5.04579 7.51513C4.93283 7.35033 4.71267 7.16793 4.54883 7.26329Z" fill="#F8D770"/>
<path d="M11.4024 9.93099L12.571 9.25195C12.3694 9.36907 12.2443 9.61867 12.2433 9.97451C12.243 10.0312 12.2465 10.0862 12.2501 10.1489L11.0814 10.828C11.0782 10.7652 11.0747 10.7102 11.0747 10.6536C11.0757 10.2977 11.2008 10.0481 11.4024 9.93099ZM13.1224 14.1595L14.291 13.4804C14.0155 13.6404 13.844 13.9812 13.8424 14.4683C13.8421 14.5492 13.8456 14.6203 13.8558 14.7076L12.6872 15.3867C12.6769 15.2993 12.6734 15.2286 12.6737 15.1473C12.675 14.6603 12.8465 14.3195 13.1224 14.1595Z" fill="#3C4349"/>
<path d="M12.7803 15.3227L13.9489 14.6437C14.29 14.4456 14.8024 14.4946 15.3787 14.8274C16.0104 15.1922 16.5707 15.812 16.9009 16.4699L15.7323 17.149C15.4017 16.4911 14.8417 15.8712 14.21 15.5064C13.6337 15.1736 13.1214 15.1247 12.7803 15.3227Z" fill="#5A6268"/>
<path d="M11.1465 10.7842L12.3151 10.1051C12.566 9.95922 12.943 9.9893 13.3698 10.2357C13.8322 10.5026 14.2409 10.9621 14.4834 11.4431L13.3148 12.1221C13.0722 11.6408 12.6636 11.1816 12.2012 10.9147C11.7743 10.6683 11.3977 10.6383 11.1465 10.7842Z" fill="#4F565C"/>
<path d="M15.4431 12.2655L16.6117 11.5864C16.4101 11.7035 16.2847 11.9522 16.2834 12.3077C16.2834 12.3643 16.2866 12.4194 16.2901 12.4821L15.1215 13.1611C15.1183 13.0984 15.1147 13.0434 15.1147 12.9867C15.116 12.6315 15.2415 12.3826 15.4431 12.2655Z" fill="#3C4349"/>
<path d="M15.1865 13.1173L16.3552 12.4383C16.6067 12.2924 16.9865 12.3237 17.4105 12.5685C17.8729 12.8354 18.2851 13.2969 18.5276 13.7781L17.359 14.4572C17.1164 13.9759 16.7043 13.5145 16.2419 13.2476C15.8179 13.0025 15.438 12.9711 15.1865 13.1173Z" fill="#4F565C"/>
<path d="M17.7546 17.3873L16.5859 18.0663C17.7415 17.3946 18.5079 15.5553 18.5152 12.9754C18.5171 12.347 18.473 11.7041 18.3898 11.0711L19.5584 10.3921C19.865 12.7268 19.6733 16.2724 17.7546 17.3873Z" fill="#FF5766"/>
<path d="M18.39 11.0719C18.4732 11.7049 18.5171 12.3474 18.5155 12.9762C18.5039 17.0799 16.5711 19.3109 14.2067 17.9458C11.8387 16.5788 9.92506 12.1269 9.93658 8.02327C9.9385 7.39479 9.98937 6.80695 10.0758 6.27607C10.1126 6.06487 10.2851 6.02231 10.4668 6.12759C10.5519 6.17655 10.639 6.25783 10.7151 6.36919C11.7007 7.82359 12.9167 9.04983 14.2294 9.80759C15.542 10.5657 16.7542 10.7413 17.7446 10.4236C18.0015 10.3461 18.3417 10.7263 18.39 11.0719ZM15.7324 17.149C15.7433 17.0741 15.7468 17.0031 15.7471 16.9221C15.75 15.9407 15.0639 14.7567 14.2134 14.2658C13.3699 13.7788 12.6761 14.1663 12.6732 15.1474C12.6729 15.2284 12.6764 15.2994 12.6867 15.3868C13.0233 15.118 13.5782 15.142 14.2099 15.5065C14.8419 15.8713 15.4022 16.4911 15.7324 17.149ZM11.0809 10.8284C11.3289 10.6345 11.7353 10.6457 12.2012 10.9148C12.6636 11.1817 13.0723 11.6412 13.3148 12.1221C13.3222 12.0693 13.3292 12.0127 13.3295 11.9561C13.3315 11.2383 12.8249 10.3692 12.2041 10.0105C11.583 9.65175 11.0767 9.93623 11.0748 10.654C11.0742 10.7106 11.0777 10.7653 11.0809 10.8284ZM17.359 14.4569C17.3663 14.4041 17.3699 14.3455 17.3702 14.2885C17.3721 13.5708 16.8691 12.7036 16.2447 12.3429C15.6271 11.9865 15.1174 12.2687 15.1155 12.9865C15.1151 13.0431 15.1187 13.0981 15.1222 13.1609C15.3702 12.9669 15.7801 12.9804 16.2425 13.2473C16.7043 13.5141 17.1164 13.9756 17.359 14.4569Z" fill="#F74457"/>
<path d="M10.1831 6.09823L11.3517 5.41919C11.5261 5.31775 11.7607 5.51039 11.8839 5.68991C12.8695 7.14431 14.0855 8.37055 15.3981 9.12831C16.7108 9.88639 17.9229 10.0621 18.9133 9.74431C18.9898 9.72127 19.0778 9.74111 19.1639 9.79071C19.3479 9.89695 19.5229 10.1398 19.5581 10.393L18.3898 11.072C18.3543 10.8192 18.1793 10.576 17.9953 10.4698C17.9092 10.4202 17.8212 10.4003 17.7447 10.4234C16.754 10.7408 15.5421 10.5651 14.2295 9.80735C12.9169 9.04927 11.7009 7.82335 10.7153 6.36895C10.594 6.19167 10.3588 5.99615 10.1831 6.09823Z" fill="#FF5766"/>
</svg>
