<svg width="110" height="89" viewBox="0 0 110 89" fill="none" xmlns="http://www.w3.org/2000/svg">
<rect width="110" height="89" rx="8" fill="#262626"/>
<path fill-rule="evenodd" clip-rule="evenodd" d="M54.5956 38.9551L54.6563 39.956L53.6447 39.8334C49.9626 39.3636 46.7458 37.7705 44.0145 35.0948L42.6792 33.7672L42.3353 34.7476C41.6069 36.9331 42.0723 39.2411 43.5896 40.7934C44.3989 41.6512 44.2168 41.7738 42.8208 41.2632C42.3353 41.0998 41.9104 40.9772 41.87 41.0385C41.7283 41.1815 42.2139 43.0401 42.5983 43.7754C43.1243 44.7967 44.1966 45.7975 45.37 46.3898L46.3614 46.8596L45.1879 46.88C44.055 46.88 44.0145 46.9005 44.1359 47.3294C44.5405 48.657 46.1388 50.0663 47.9192 50.6791L49.1735 51.108L48.081 51.7616C46.4625 52.7012 44.5608 53.2322 42.659 53.2731C41.7486 53.2935 41 53.3752 41 53.4365C41 53.6407 43.4682 54.7845 44.9047 55.2339C49.214 56.5615 54.3326 55.9896 58.1766 53.7224C60.9078 52.1088 63.6391 48.9021 64.9137 45.7975C65.6016 44.1431 66.2894 41.1202 66.2894 39.67C66.2894 38.7305 66.3501 38.6079 67.4831 37.4845C68.1507 36.8309 68.7779 36.1161 68.8993 35.9118C69.1016 35.5237 69.0814 35.5237 68.0496 35.871C66.3299 36.4837 66.0871 36.402 66.9368 35.4829C67.564 34.8293 68.3126 33.6446 68.3126 33.2974C68.3126 33.2361 68.0091 33.3383 67.6652 33.5221C67.301 33.7263 66.4917 34.0327 65.8848 34.2165L64.7923 34.5638L63.801 33.8897C63.2547 33.5221 62.4859 33.1136 62.0813 32.991C61.0495 32.7051 59.4714 32.7459 58.5407 33.0727C56.0118 33.9919 54.4135 36.3612 54.5956 38.9551Z" fill="#999999"/>
</svg>
