<svg width="40" height="40" viewBox="0 0 40 40" fill="none" xmlns="http://www.w3.org/2000/svg">
<rect width="40" height="40" rx="20" fill="#262626"/>
<path d="M30.8598 15.1429C30.6906 14.9954 30.4813 14.9015 30.2587 14.8731C30.036 14.8447 29.8099 14.8832 29.6091 14.9835L24.9019 17.3273L20.9719 10.7995C20.8709 10.632 20.7283 10.4934 20.558 10.3972C20.3877 10.301 20.1954 10.2505 19.9998 10.2505C19.8041 10.2505 19.6118 10.301 19.4415 10.3972C19.2712 10.4934 19.1286 10.632 19.0276 10.7995L15.0976 17.3301L10.3923 14.9863C10.1919 14.8869 9.96672 14.8488 9.74484 14.8768C9.52296 14.9049 9.31431 14.9978 9.14507 15.144C8.97583 15.2903 8.85354 15.4832 8.79356 15.6986C8.73357 15.9141 8.73855 16.1425 8.80788 16.3551L12.2766 26.9826C12.3115 27.0894 12.3699 27.1869 12.4475 27.2681C12.5252 27.3493 12.6201 27.412 12.7252 27.4516C12.8303 27.4912 12.9429 27.5066 13.0548 27.4969C13.1667 27.4871 13.275 27.4523 13.3716 27.3951C13.3951 27.381 15.7923 26.0001 19.9998 26.0001C24.2073 26.0001 26.6044 27.381 26.626 27.3942C26.7227 27.4519 26.8311 27.4872 26.9433 27.4973C27.0555 27.5074 27.1685 27.4921 27.274 27.4526C27.3794 27.4131 27.4746 27.3503 27.5525 27.2689C27.6304 27.1875 27.6889 27.0897 27.7238 26.9826L31.1926 16.3579C31.2639 16.1452 31.2703 15.9161 31.2111 15.6998C31.1518 15.4834 31.0295 15.2896 30.8598 15.1429ZM26.5623 25.7029C25.4373 25.2257 23.1948 24.5001 19.9998 24.5001C16.8048 24.5001 14.5623 25.2257 13.4373 25.7029L10.5038 16.7188L14.7291 18.8254C14.9849 18.9515 15.2786 18.9773 15.5524 18.8977C15.8262 18.818 16.0603 18.6387 16.2085 18.3951L19.9998 12.0932L23.791 18.3932C23.9393 18.6364 24.1732 18.8154 24.4468 18.8951C24.7203 18.9747 25.0137 18.9492 25.2694 18.8235L29.4957 16.7188L26.5623 25.7029ZM24.4876 22.7029C24.457 22.8764 24.3662 23.0336 24.2313 23.1469C24.0964 23.2602 23.9259 23.3224 23.7498 23.3226C23.7058 23.3225 23.6619 23.3188 23.6185 23.3113C21.2229 22.9001 18.7747 22.9001 16.3791 23.3113C16.1832 23.3459 15.9816 23.3012 15.8186 23.1871C15.6556 23.073 15.5446 22.8988 15.5101 22.7029C15.4755 22.507 15.5202 22.3053 15.6343 22.1424C15.7484 21.9794 15.9226 21.8684 16.1185 21.8338C18.6866 21.3926 21.3111 21.3926 23.8791 21.8338C24.0747 21.8682 24.2486 21.9786 24.3629 22.141C24.4771 22.3034 24.5223 22.5045 24.4885 22.7001L24.4876 22.7029Z" fill="white"/>
</svg>
