<svg width="24" height="24" viewBox="0 0 24 24" fill="none" xmlns="http://www.w3.org/2000/svg">
<rect width="24" height="24" rx="12" fill="#FFF6F8"/>
<path d="M19.4558 6.43199V16.576C19.4558 16.928 19.1678 17.216 18.8158 17.216H4.95982C4.60782 17.216 4.31982 16.928 4.31982 16.576V6.43199C4.31982 6.07999 4.60782 5.79199 4.95982 5.79199H18.8158C19.1678 5.79199 19.4558 6.07999 19.4558 6.43199Z" fill="#FFF6F8"/>
<path d="M13.7921 16.352C13.7281 16 13.5041 15.904 13.5041 15.904L12.8321 15.456C12.3521 15.136 10.7841 14.208 10.7841 14.208C10.4001 14.976 10.0801 15.04 9.72813 15.168C9.15213 14.976 8.76813 14.688 8.67213 14.208C8.67213 14.208 7.10413 15.136 6.62413 15.456L5.95213 15.904C5.95213 15.904 5.79213 16 5.69613 16.256L5.44013 17.824C5.40813 18.016 5.56813 18.208 5.76013 18.208H9.76013H13.7601C13.9521 18.208 14.1121 18.048 14.0801 17.824L13.7921 16.352Z" fill="#444445"/>
<path d="M13.7281 18.208H5.76013C5.56813 18.208 5.40813 18.016 5.44013 17.824L5.69613 16.256C5.79213 15.968 5.95213 15.904 5.95213 15.904L6.62413 15.456C7.10413 15.136 8.67213 14.208 8.67213 14.208C8.76813 14.656 9.15213 14.976 9.72813 15.168C10.0801 15.04 10.4321 14.976 10.7841 14.208C10.7841 14.208 12.3521 15.136 12.8321 15.456L13.5041 15.904C13.5041 15.904 13.6961 16 13.7921 16.352L14.0161 17.856C14.0801 18.016 13.9201 18.208 13.7281 18.208Z" fill="#C7C7C7"/>
<path d="M10.016 16.0322H9.44001L9.31201 18.2082H10.176L10.016 16.0322Z" fill="#E9715F"/>
<path d="M10.6882 13.8561L8.83224 13.6641L8.44824 14.9121L9.72824 15.1681L11.0082 14.9121L10.6882 13.8561Z" fill="#F5B948"/>
<path d="M10.784 14.208C10.784 14.208 10.336 14.88 9.72803 15.168C9.72803 15.168 10.24 15.296 10.944 15.872C10.944 15.872 11.456 14.976 10.784 14.208Z" fill="#FFF6F8"/>
<path d="M14.0481 17.824C14.0801 18.016 13.9201 18.208 13.7281 18.208H10.0161L10.9441 15.872C10.9441 15.872 11.4561 14.976 10.7841 14.208C10.8801 14.272 12.3841 15.168 12.8321 15.456L13.5041 15.904C13.5041 15.904 13.7281 16 13.7921 16.352L14.0481 17.824ZM9.44013 18.208H5.76013C5.56813 18.208 5.40813 18.016 5.44013 17.824L5.66413 16.352C5.72813 16 5.95213 15.904 5.95213 15.904L6.62413 15.456C7.07213 15.168 8.57613 14.272 8.67213 14.208C8.00013 14.976 8.51213 15.872 8.51213 15.872L9.44013 18.208Z" fill="#444445"/>
<path d="M8.67184 14.208C8.67184 14.208 9.11984 14.88 9.72784 15.168C9.72784 15.168 9.21584 15.296 8.51184 15.872C8.51184 15.872 7.99984 14.976 8.67184 14.208Z" fill="#FFF6F8"/>
<path d="M11.072 11.5199L11.04 12.4479L10.944 13.1519C10.944 13.1519 10.688 14.5279 9.79202 14.5599H9.76002C8.60802 14.4959 8.51202 12.4799 8.51202 12.4479L8.41602 11.9359V11.3919C8.41602 11.3919 8.80002 10.8159 8.83202 10.8479C8.89602 10.8799 9.72802 10.4639 9.72802 10.4639L10.88 10.7839L11.072 11.5199Z" fill="#FFCA67"/>
<path d="M8.48019 12.4481C8.48019 12.4481 8.32019 12.2561 8.19219 12.3521C8.19219 12.3521 8.06419 12.4801 8.25619 12.8641C8.25619 12.8641 8.41619 13.5041 8.57619 13.2801L8.60819 12.7361L8.48019 12.4481ZM11.0402 12.4481C11.0402 12.4481 11.2002 12.2561 11.3282 12.3521C11.3282 12.3521 11.4562 12.4801 11.2642 12.8641C11.2642 12.8641 11.1042 13.5041 10.9442 13.2801L10.9122 12.7361L11.0402 12.4481Z" fill="#FFCA67"/>
<path d="M11.1358 12.8321C11.1358 12.8001 11.1038 12.8001 11.1038 12.7681C11.1038 12.7361 11.1038 12.7361 11.1038 12.7041C11.1038 12.6721 11.1038 12.6401 11.0718 12.6401C11.0398 12.6401 11.0078 12.6721 11.0078 12.6721V12.7041C10.9438 12.7681 10.9118 12.8641 10.8798 12.9281C10.8798 12.9601 10.8798 12.9601 10.8478 12.9921C10.8478 13.0241 10.8478 13.0241 10.8798 13.0561C10.9118 13.0561 10.9118 13.0881 10.9438 13.0561C10.9758 13.0561 10.9758 13.0241 11.0078 13.0241C11.0398 12.9921 11.1038 12.9601 11.1358 12.9281L11.1678 12.8961C11.1678 12.8641 11.1678 12.8641 11.1358 12.8321ZM8.41579 12.7681C8.41579 12.7361 8.38379 12.6401 8.44779 12.6401C8.47979 12.6401 8.60779 12.8961 8.63979 12.9281C8.67179 13.0241 8.60779 13.0881 8.51179 13.0241C8.25579 12.8321 8.38379 12.9281 8.41579 12.7681Z" fill="#F5B948"/>
<path d="M11.0398 11.0721C11.0398 11.0721 11.4878 10.4961 10.6238 10.1761V10.3361C10.6238 10.3361 10.4318 10.0161 9.75983 10.0161L9.82383 10.1441C9.82383 10.1441 9.27983 9.88811 8.63983 10.4641C8.63983 10.4641 8.25583 10.6241 8.35183 11.2961C8.35183 11.2961 8.28783 12.0641 8.51183 12.4801C8.51183 12.4801 8.35183 11.0721 8.99183 11.0081C8.99183 11.0081 9.66383 11.0721 9.82383 10.9441C9.82383 10.9441 10.0478 10.8801 10.1118 11.0081C10.1118 11.0081 10.4318 11.1041 10.5278 10.9761C10.5278 10.9761 11.1038 10.9761 11.0718 12.5121C11.0398 12.4481 11.3918 11.4561 11.0398 11.0721Z" fill="#444445"/>
<path d="M13.28 15.7441C13.248 16.3841 12.96 17.5681 12.672 18.2081C12.704 17.7921 12.8 17.3761 12.896 16.9601C12.992 16.5441 13.088 16.1281 13.28 15.7441ZM6.20801 15.7441C6.24001 16.1601 6.33601 16.5761 6.43201 16.9921C6.52801 17.4081 6.65601 17.7921 6.81601 18.2081C6.78401 17.7921 6.68801 17.3761 6.59201 16.9601C6.46401 16.5441 6.36801 16.1281 6.20801 15.7441Z" fill="#221F1F"/>
<path d="M10.2721 15.392L10.0161 16.032H9.44008L9.18408 15.392L9.72808 15.168L10.2721 15.392Z" fill="#D75548"/>
<path d="M14.7199 7.64795H13.9199V10.9119H14.7199V7.64795Z" fill="#E9715F"/>
<path d="M16.0637 6.49609H15.2637V10.8801H16.0637V6.49609Z" fill="#83BD57"/>
<path d="M17.3757 9.24805H16.5757V10.88H17.3757V9.24805Z" fill="#9A7EAA"/>
<path d="M18.2718 11.8721H12.7358V7.32812H13.0558V11.5521H18.2718V11.8721Z" fill="#C7C7C7"/>
<path d="M17.7917 16.0323C17.1197 16.7043 16.0637 16.7043 15.3917 16.0323C14.7197 15.3603 14.7197 14.3043 15.3917 13.6323L16.5757 14.8483L17.7917 13.6323C18.4317 14.3043 18.4317 15.3603 17.7917 16.0323Z" fill="#59B1E3"/>
<path d="M17.7919 13.2481L16.5759 14.4641L15.3599 13.2481C16.0319 12.5761 17.1199 12.5761 17.7919 13.2481Z" fill="#9A7EAA"/>
</svg>
