<svg width="24" height="24" viewBox="0 0 24 24" fill="none" xmlns="http://www.w3.org/2000/svg">
<path d="M10.0804 1.91956C5.31991 1.91956 1.44043 5.79903 1.44043 10.5596C1.44043 15.3201 5.31991 19.1996 10.0804 19.1996C11.8189 19.1996 13.4367 18.6782 14.7942 17.7896L20.8223 23.8177L22.8586 21.7814L16.9082 15.8311C18.0395 14.37 18.7204 12.5442 18.7204 10.5596C18.7204 5.79903 14.841 1.91956 10.0804 1.91956ZM10.0804 3.83956C13.8034 3.83956 16.8004 6.83656 16.8004 10.5596C16.8004 14.2825 13.8034 17.2796 10.0804 17.2796C6.35743 17.2796 3.36043 14.2825 3.36043 10.5596C3.36043 6.83656 6.35743 3.83956 10.0804 3.83956Z" fill="#999999"/>
</svg>
