<svg width="24" height="24" viewBox="0 0 24 24" fill="none" xmlns="http://www.w3.org/2000/svg">
<rect width="24" height="24" rx="12" fill="white"/>
<rect x="3.83984" y="7.19971" width="4.61687" height="9.55215" rx="2.30844" fill="#F48D62"/>
<rect x="9.09375" y="9.10986" width="5.73129" height="5.73129" rx="2.86564" fill="#F48D62"/>
<path d="M15.4609 7.82199C15.4609 7.47804 15.741 7.19503 16.082 7.23975C17.1195 7.3758 18.0901 7.85007 18.8381 8.5981C19.7338 9.49379 20.237 10.7086 20.237 11.9753C20.237 13.242 19.7338 14.4568 18.8381 15.3525C18.0901 16.1005 17.1195 16.5748 16.082 16.7108C15.741 16.7556 15.4609 16.4725 15.4609 16.1286C15.4609 15.7846 15.7419 15.5114 16.0805 15.4511C16.7867 15.3252 17.4432 14.986 17.9574 14.4718C18.6195 13.8097 18.9915 12.9116 18.9915 11.9753C18.9915 11.0389 18.6195 10.1409 17.9574 9.47883C17.4432 8.96463 16.7867 8.62543 16.0805 8.49954C15.7419 8.43918 15.4609 8.16594 15.4609 7.82199Z" fill="#F48D62"/>
<path d="M15.4609 9.78751C15.4609 9.34719 15.8239 8.97997 16.249 9.09471C16.7555 9.23141 17.2224 9.49879 17.5998 9.8762C18.1671 10.4435 18.4858 11.2129 18.4858 12.0151C18.4858 12.8173 18.1671 13.5867 17.5998 14.154C17.2224 14.5314 16.7555 14.7988 16.249 14.9355C15.8239 15.0502 15.4609 14.683 15.4609 14.2427C15.4609 13.8024 15.8439 13.4618 16.2176 13.2289C16.3092 13.1718 16.3948 13.104 16.4723 13.0265C16.7406 12.7582 16.8912 12.3944 16.8912 12.0151C16.8912 11.6358 16.7406 11.2719 16.4723 11.0037C16.3948 10.9261 16.3092 10.8584 16.2176 10.8013C15.8439 10.5684 15.4609 10.2278 15.4609 9.78751Z" fill="#F48D62"/>
</svg>
