<svg width="110" height="89" viewBox="0 0 110 89" fill="none" xmlns="http://www.w3.org/2000/svg">
<rect width="110" height="89" rx="8" fill="#262626"/>
<path d="M65.7606 31H42.3925C41.1156 31 40 31.9187 40 33.1806V56.6006C40 57.8693 41.1156 59 42.3925 59H65.7537C67.0375 59 68 57.8618 68 56.6006V33.1806C68.0075 31.9187 67.0375 31 65.7606 31ZM48.6794 54.3393H44.6681V41.8675H48.6794V54.3393ZM46.8125 39.9712H46.7837C45.5 39.9712 44.6687 39.0156 44.6687 37.8194C44.6687 36.6012 45.5219 35.6681 46.8344 35.6681C48.1469 35.6681 48.95 36.5944 48.9787 37.8194C48.9781 39.0156 48.1469 39.9712 46.8125 39.9712ZM63.3393 54.3393H59.3281V47.52C59.3281 45.8862 58.7443 44.77 57.2931 44.77C56.1844 44.77 55.5281 45.52 55.2362 46.2506C55.1269 46.5131 55.0975 46.8706 55.0975 47.2356V54.3393H51.0862V41.8675H55.0975V43.6031C55.6812 42.7719 56.5931 41.5756 58.715 41.5756C61.3481 41.5756 63.34 43.3112 63.34 47.0531L63.3393 54.3393Z" fill="#999999"/>
</svg>
