<svg width="80" height="80" viewBox="0 0 80 80" fill="none" xmlns="http://www.w3.org/2000/svg">
<path d="M68.0174 60.6219C68.0174 60.759 68.0689 60.8904 68.1604 60.9874C68.2519 61.0843 68.3761 61.1387 68.5055 61.1387C68.635 61.1387 68.7591 61.0843 68.8507 60.9874C68.9422 60.8904 68.9936 60.759 68.9936 60.6219C68.9936 60.4848 68.9422 60.3534 68.8507 60.2565C68.7591 60.1595 68.635 60.1051 68.5055 60.1051C68.3761 60.1051 68.2519 60.1595 68.1604 60.2565C68.0689 60.3534 68.0174 60.4848 68.0174 60.6219ZM57.2417 72.3953C57.2417 72.6679 57.344 72.9294 57.5261 73.1222C57.7081 73.315 57.9551 73.4233 58.2125 73.4233C58.47 73.4233 58.717 73.315 58.899 73.1222C59.0811 72.9294 59.1834 72.6679 59.1834 72.3953C59.1834 72.1227 59.0811 71.8612 58.899 71.6684C58.717 71.4756 58.47 71.3673 58.2125 71.3673C57.9551 71.3673 57.7081 71.4756 57.5261 71.6684C57.344 71.8612 57.2417 72.1227 57.2417 72.3953ZM42.7167 78.4552C42.7167 78.8649 42.8704 79.2578 43.144 79.5475C43.4176 79.8372 43.7887 80 44.1757 80C44.5626 80 44.9337 79.8372 45.2073 79.5475C45.4809 79.2578 45.6346 78.8649 45.6346 78.4552C45.6346 78.2523 45.5969 78.0515 45.5235 77.864C45.4502 77.6766 45.3428 77.5063 45.2073 77.3629C45.0718 77.2194 44.911 77.1056 44.734 77.028C44.557 76.9504 44.3672 76.9104 44.1757 76.9104C43.9841 76.9104 43.7944 76.9504 43.6174 77.028C43.4403 77.1056 43.2795 77.2194 43.144 77.3629C43.0086 77.5063 42.9011 77.6766 42.8278 77.864C42.7545 78.0515 42.7167 78.2523 42.7167 78.4552ZM27.0815 77.6431C27.0815 78.1883 27.286 78.7113 27.6502 79.0968C28.0143 79.4824 28.5082 79.699 29.0231 79.699C29.5381 79.699 30.032 79.4824 30.3961 79.0968C30.7602 78.7113 30.9648 78.1883 30.9648 77.6431C30.9648 77.0978 30.7602 76.5749 30.3961 76.1893C30.032 75.8037 29.5381 75.5871 29.0231 75.5871C28.5082 75.5871 28.0143 75.8037 27.6502 76.1893C27.286 76.5749 27.0815 77.0978 27.0815 77.6431ZM13.2109 70.1065C13.2109 70.4444 13.2737 70.7789 13.3958 71.0911C13.5179 71.4032 13.6969 71.6868 13.9225 71.9257C14.1481 72.1646 14.416 72.3541 14.7108 72.4834C15.0056 72.6127 15.3215 72.6793 15.6406 72.6793C15.9597 72.6793 16.2757 72.6127 16.5705 72.4834C16.8653 72.3541 17.1331 72.1646 17.3587 71.9257C17.5844 71.6868 17.7633 71.4032 17.8854 71.0911C18.0076 70.7789 18.0704 70.4444 18.0704 70.1065C18.0704 69.7686 18.0076 69.4341 17.8854 69.1219C17.7633 68.8098 17.5844 68.5262 17.3587 68.2873C17.1331 68.0484 16.8653 67.8589 16.5705 67.7296C16.2757 67.6003 15.9597 67.5337 15.6406 67.5337C15.3215 67.5337 15.0056 67.6003 14.7108 67.7296C14.416 67.8589 14.1481 68.0484 13.9225 68.2873C13.6969 68.5262 13.5179 68.8098 13.3958 69.1219C13.2737 69.4341 13.2109 69.7686 13.2109 70.1065ZM3.60443 57.2938C3.60443 58.1132 3.91184 58.899 4.45905 59.4784C5.00625 60.0579 5.74843 60.3834 6.52229 60.3834C7.29616 60.3834 8.03833 60.0579 8.58554 59.4784C9.13274 58.899 9.44016 58.1132 9.44016 57.2938C9.44016 56.4744 9.13274 55.6885 8.58554 55.1091C8.03833 54.5297 7.29616 54.2042 6.52229 54.2042C5.74843 54.2042 5.00625 54.5297 4.45905 55.1091C3.91184 55.6885 3.60443 56.4744 3.60443 57.2938ZM0 41.5618C-6.65446e-09 42.0347 0.0879593 42.5029 0.258856 42.9398C0.429752 43.3766 0.680239 43.7736 0.996014 44.1079C1.31179 44.4423 1.68667 44.7075 2.09925 44.8885C2.51183 45.0694 2.95403 45.1626 3.4006 45.1626C3.84718 45.1626 4.28938 45.0694 4.70196 44.8885C5.11454 44.7075 5.48942 44.4423 5.80519 44.1079C6.12097 43.7736 6.37146 43.3766 6.54235 42.9398C6.71325 42.5029 6.80121 42.0347 6.80121 41.5618C6.80121 40.6069 6.44293 39.691 5.80519 39.0157C5.16746 38.3405 4.3025 37.9611 3.4006 37.9611C2.49871 37.9611 1.63375 38.3405 0.996014 39.0157C0.358277 39.691 0 40.6069 0 41.5618ZM2.96614 25.9321C2.96614 26.4729 3.06673 27.0083 3.26215 27.5079C3.45758 28.0074 3.74402 28.4613 4.10512 28.8437C4.46622 29.226 4.8949 29.5293 5.3667 29.7363C5.8385 29.9432 6.34417 30.0497 6.85484 30.0497C7.88619 30.0497 8.8753 29.6159 9.60457 28.8437C10.3338 28.0715 10.7435 27.0242 10.7435 25.9321C10.7435 24.8401 10.3338 23.7928 9.60457 23.0206C8.8753 22.2484 7.88619 21.8146 6.85484 21.8146C5.8235 21.8146 4.83439 22.2484 4.10512 23.0206C3.37584 23.7928 2.96614 24.8401 2.96614 25.9321ZM11.8646 13.3295C11.8646 13.9381 11.9778 14.5408 12.1977 15.1031C12.4177 15.6653 12.7401 16.1762 13.1465 16.6066C13.5529 17.0369 14.0354 17.3783 14.5664 17.6112C15.0975 17.8441 15.6666 17.9639 16.2414 17.9639C16.8161 17.9639 17.3853 17.8441 17.9163 17.6112C18.4473 17.3783 18.9298 17.0369 19.3362 16.6066C19.7427 16.1762 20.065 15.6653 20.285 15.1031C20.505 14.5408 20.6182 13.9381 20.6182 13.3295C20.6182 12.1004 20.157 10.9217 19.3362 10.0525C18.5154 9.18342 17.4022 8.69516 16.2414 8.69516C15.0806 8.69516 13.9673 9.18342 13.1465 10.0525C12.3257 10.9217 11.8646 12.1004 11.8646 13.3295ZM24.9306 6.11103C24.9306 6.78675 25.0563 7.45586 25.3005 8.08014C25.5447 8.70443 25.9027 9.27167 26.3539 9.74947C26.8052 10.2273 27.3409 10.6063 27.9305 10.8649C28.5201 11.1235 29.152 11.2566 29.7901 11.2566C31.079 11.2566 32.315 10.7144 33.2264 9.74947C34.1377 8.7845 34.6497 7.47571 34.6497 6.11103C34.6497 4.74635 34.1377 3.43756 33.2264 2.47259C32.315 1.50761 31.079 0.965498 29.7901 0.965498C28.5013 0.965498 27.2653 1.50761 26.3539 2.47259C25.4426 3.43756 24.9306 4.74635 24.9306 6.11103ZM39.6058 5.66236C39.6058 7.16411 40.1692 8.60435 41.1721 9.66625C42.1749 10.7282 43.5351 11.3247 44.9534 11.3247C46.3717 11.3247 47.7319 10.7282 48.7348 9.66625C49.7376 8.60435 50.301 7.16411 50.301 5.66236C50.301 4.16061 49.7376 2.72037 48.7348 1.65847C47.7319 0.596568 46.3717 0 44.9534 0C43.5351 0 42.1749 0.596568 41.1721 1.65847C40.1692 2.72037 39.6058 4.16061 39.6058 5.66236ZM53.0419 12.063C53.0419 13.7004 53.6562 15.2706 54.7496 16.4284C55.843 17.5861 57.326 18.2365 58.8723 18.2365C60.4186 18.2365 61.9016 17.5861 62.995 16.4284C64.0884 15.2706 64.7026 13.7004 64.7026 12.063C64.7026 10.4257 64.0884 8.85547 62.995 7.69771C61.9016 6.53996 60.4186 5.88954 58.8723 5.88954C57.326 5.88954 55.843 6.53996 54.7496 7.69771C53.6562 8.85547 53.0419 10.4257 53.0419 12.063ZM62.5893 24.0863C62.5893 24.9649 62.7528 25.8349 63.0703 26.6466C63.3878 27.4583 63.8533 28.1959 64.44 28.8171C65.0267 29.4384 65.7232 29.9312 66.4898 30.2674C67.2564 30.6036 68.0781 30.7767 68.9078 30.7767C69.7376 30.7767 70.5592 30.6036 71.3258 30.2674C72.0924 29.9312 72.7889 29.4384 73.3756 28.8171C73.9624 28.1959 74.4278 27.4583 74.7453 26.6466C75.0628 25.8349 75.2263 24.9649 75.2263 24.0863C75.2263 23.2077 75.0628 22.3378 74.7453 21.526C74.4278 20.7143 73.9624 19.9768 73.3756 19.3556C72.7889 18.7343 72.0924 18.2415 71.3258 17.9053C70.5592 17.569 69.7376 17.396 68.9078 17.396C68.0781 17.396 67.2564 17.569 66.4898 17.9053C65.7232 18.2415 65.0267 18.7343 64.44 19.3556C63.8533 19.9768 63.3878 20.7143 63.0703 21.526C62.7528 22.3378 62.5893 23.2077 62.5893 24.0863ZM66.3869 39.6592C66.3869 40.6057 66.5629 41.5429 66.905 42.4173C67.247 43.2917 67.7484 44.0862 68.3805 44.7555C69.0125 45.4247 69.7629 45.9556 70.5887 46.3178C71.4145 46.68 72.2996 46.8664 73.1934 46.8664C74.9986 46.8664 76.7299 46.1071 78.0064 44.7555C79.2829 43.4039 80 41.5707 80 39.6592C80 37.7478 79.2829 35.9146 78.0064 34.563C76.7299 33.2114 74.9986 32.4521 73.1934 32.4521C71.3882 32.4521 69.6569 33.2114 68.3805 34.563C67.104 35.9146 66.3869 37.7478 66.3869 39.6592Z" fill="#F48D62"/>
</svg>
