<svg width="24" height="24" viewBox="0 0 24 24" fill="none" xmlns="http://www.w3.org/2000/svg">
<rect width="24" height="24" rx="12" fill="#FFF6F8"/>
<path d="M19.4558 6.43199V16.576C19.4558 16.928 19.1678 17.216 18.8158 17.216H4.95982C4.60782 17.216 4.31982 16.928 4.31982 16.576V6.43199C4.31982 6.07999 4.60782 5.79199 4.95982 5.79199H18.8158C19.1678 5.79199 19.4558 6.07999 19.4558 6.43199Z" fill="#FFF6F8"/>
<path d="M13.7921 16.352C13.7281 16 13.5041 15.904 13.5041 15.904L12.8321 15.456C12.3521 15.136 10.7841 14.208 10.7841 14.208C10.4001 14.976 10.0801 15.04 9.72813 15.168C9.15213 14.976 8.76813 14.688 8.67213 14.208C8.67213 14.208 7.10413 15.136 6.62413 15.456L5.95213 15.904C5.95213 15.904 5.79213 16 5.69613 16.256L5.44013 17.824C5.40813 18.016 5.56813 18.208 5.76013 18.208H9.76013H13.7601C13.9521 18.208 14.1121 18.048 14.0801 17.824L13.7921 16.352Z" fill="#444445"/>
<path d="M13.7281 18.208H5.76013C5.56813 18.208 5.40813 18.016 5.44013 17.824L5.69613 16.256C5.79213 15.968 5.95213 15.904 5.95213 15.904L6.62413 15.456C7.10413 15.136 8.67213 14.208 8.67213 14.208C8.76813 14.656 9.15213 14.976 9.72813 15.168C10.0801 15.04 10.4321 14.976 10.7841 14.208C10.7841 14.208 12.3521 15.136 12.8321 15.456L13.5041 15.904C13.5041 15.904 13.6961 16 13.7921 16.352L14.0161 17.856C14.0801 18.016 13.9201 18.208 13.7281 18.208Z" fill="#C7C7C7"/>
<path d="M10.016 16.032H9.44001L9.31201 18.208H10.176L10.016 16.032Z" fill="#E9715F"/>
<path d="M10.6882 13.8559L8.83224 13.6639L8.44824 14.9119L9.72824 15.1679L11.0082 14.9119L10.6882 13.8559Z" fill="#F5B948"/>
<path d="M10.784 14.208C10.784 14.208 10.336 14.88 9.72803 15.168C9.72803 15.168 10.24 15.296 10.944 15.872C10.944 15.872 11.456 14.976 10.784 14.208Z" fill="#FFF6F8"/>
<path d="M14.0481 17.824C14.0801 18.016 13.9201 18.208 13.7281 18.208H10.0161L10.9441 15.872C10.9441 15.872 11.4561 14.976 10.7841 14.208C10.8801 14.272 12.3841 15.168 12.8321 15.456L13.5041 15.904C13.5041 15.904 13.7281 16 13.7921 16.352L14.0481 17.824ZM9.44013 18.208H5.76013C5.56813 18.208 5.40813 18.016 5.44013 17.824L5.66413 16.352C5.72813 16 5.95213 15.904 5.95213 15.904L6.62413 15.456C7.07213 15.168 8.57613 14.272 8.67213 14.208C8.00013 14.976 8.51213 15.872 8.51213 15.872L9.44013 18.208Z" fill="#444445"/>
<path d="M8.67184 14.208C8.67184 14.208 9.11984 14.88 9.72784 15.168C9.72784 15.168 9.21584 15.296 8.51184 15.872C8.51184 15.872 7.99984 14.976 8.67184 14.208Z" fill="#FFF6F8"/>
<path d="M11.072 11.52L11.04 12.448L10.944 13.152C10.944 13.152 10.688 14.528 9.79202 14.56H9.76002C8.60802 14.496 8.51202 12.48 8.51202 12.448L8.41602 11.936V11.392C8.41602 11.392 8.80002 10.816 8.83202 10.848C8.89602 10.88 9.72802 10.464 9.72802 10.464L10.88 10.784L11.072 11.52Z" fill="#FFCA67"/>
<path d="M8.48019 12.448C8.48019 12.448 8.32019 12.256 8.19219 12.352C8.19219 12.352 8.06419 12.48 8.25619 12.864C8.25619 12.864 8.41619 13.504 8.57619 13.28L8.60819 12.736L8.48019 12.448ZM11.0402 12.448C11.0402 12.448 11.2002 12.256 11.3282 12.352C11.3282 12.352 11.4562 12.48 11.2642 12.864C11.2642 12.864 11.1042 13.504 10.9442 13.28L10.9122 12.736L11.0402 12.448Z" fill="#FFCA67"/>
<path d="M11.1358 12.832C11.1358 12.8 11.1038 12.8 11.1038 12.768C11.1038 12.736 11.1038 12.736 11.1038 12.704C11.1038 12.672 11.1038 12.64 11.0718 12.64C11.0398 12.64 11.0078 12.672 11.0078 12.672V12.704C10.9438 12.768 10.9118 12.864 10.8798 12.928C10.8798 12.96 10.8798 12.96 10.8478 12.992C10.8478 13.024 10.8478 13.024 10.8798 13.056C10.9118 13.056 10.9118 13.088 10.9438 13.056C10.9758 13.056 10.9758 13.024 11.0078 13.024C11.0398 12.992 11.1038 12.96 11.1358 12.928L11.1678 12.896C11.1678 12.864 11.1678 12.864 11.1358 12.832ZM8.41579 12.768C8.41579 12.736 8.38379 12.64 8.44779 12.64C8.47979 12.64 8.60779 12.896 8.63979 12.928C8.67179 13.024 8.60779 13.088 8.51179 13.024C8.25579 12.832 8.38379 12.928 8.41579 12.768Z" fill="#F5B948"/>
<path d="M11.0398 11.072C11.0398 11.072 11.4878 10.496 10.6238 10.176V10.336C10.6238 10.336 10.4318 10.016 9.75983 10.016L9.82383 10.144C9.82383 10.144 9.27983 9.88799 8.63983 10.464C8.63983 10.464 8.25583 10.624 8.35183 11.296C8.35183 11.296 8.28783 12.064 8.51183 12.48C8.51183 12.48 8.35183 11.072 8.99183 11.008C8.99183 11.008 9.66383 11.072 9.82383 10.944C9.82383 10.944 10.0478 10.88 10.1118 11.008C10.1118 11.008 10.4318 11.104 10.5278 10.976C10.5278 10.976 11.1038 10.976 11.0718 12.512C11.0398 12.448 11.3918 11.456 11.0398 11.072Z" fill="#444445"/>
<path d="M13.28 15.744C13.248 16.384 12.96 17.568 12.672 18.208C12.704 17.792 12.8 17.376 12.896 16.96C12.992 16.544 13.088 16.128 13.28 15.744ZM6.20801 15.744C6.24001 16.16 6.33601 16.576 6.43201 16.992C6.52801 17.408 6.65601 17.792 6.81601 18.208C6.78401 17.792 6.68801 17.376 6.59201 16.96C6.46401 16.544 6.36801 16.128 6.20801 15.744Z" fill="#221F1F"/>
<path d="M10.2721 15.392L10.0161 16.032H9.44008L9.18408 15.392L9.72808 15.168L10.2721 15.392Z" fill="#D75548"/>
<path d="M14.7199 7.64795H13.9199V10.9119H14.7199V7.64795Z" fill="#E9715F"/>
<path d="M16.0637 6.49597H15.2637V10.88H16.0637V6.49597Z" fill="#83BD57"/>
<path d="M17.3757 9.24792H16.5757V10.8799H17.3757V9.24792Z" fill="#9A7EAA"/>
<path d="M18.2718 11.872H12.7358V7.328H13.0558V11.552H18.2718V11.872Z" fill="#C7C7C7"/>
<path d="M17.7917 16.0321C17.1197 16.7041 16.0637 16.7041 15.3917 16.0321C14.7197 15.3601 14.7197 14.3041 15.3917 13.6321L16.5757 14.8481L17.7917 13.6321C18.4317 14.3041 18.4317 15.3601 17.7917 16.0321Z" fill="#59B1E3"/>
<path d="M17.7919 13.248L16.5759 14.464L15.3599 13.248C16.0319 12.576 17.1199 12.576 17.7919 13.248Z" fill="#9A7EAA"/>
</svg>
