<svg width="173" height="40" viewBox="0 0 173 40" fill="none" xmlns="http://www.w3.org/2000/svg">
<rect width="19.237" height="39.8006" rx="9.61848" fill="#F48D62"/>
<rect x="21.8904" y="7.96014" width="23.8804" height="23.8804" rx="11.9402" fill="#F48D62"/>
<path d="M48.4243 2.59494C48.4243 1.16183 49.591 -0.0173827 51.012 0.168941C55.335 0.735798 59.3792 2.71195 62.496 5.82873C66.228 9.56076 68.3246 14.6225 68.3246 19.9004C68.3246 25.1783 66.228 30.24 62.496 33.972C59.3792 37.0888 55.335 39.0649 51.012 39.6318C49.5911 39.8181 48.4243 38.6389 48.4243 37.2058C48.4243 35.7727 49.595 34.6342 51.0059 34.3827C53.9485 33.8582 56.6838 32.4448 58.8262 30.3023C61.585 27.5435 63.1349 23.8019 63.1349 19.9004C63.1349 15.9989 61.585 12.2572 58.8262 9.49844C56.6838 7.35596 53.9484 5.94259 51.0059 5.41805C49.595 5.16655 48.4243 4.02806 48.4243 2.59494Z" fill="#F48D62"/>
<path d="M48.4243 10.7846C48.4243 8.94996 49.9368 7.41987 51.708 7.89792C53.8185 8.46751 55.7638 9.58159 57.3364 11.1542C59.7 13.5178 61.0278 16.7235 61.0278 20.0662C61.0278 23.4089 59.7 26.6146 57.3364 28.9782C55.7638 30.5508 53.8185 31.6649 51.708 32.2345C49.9368 32.7125 48.4243 31.1824 48.4243 29.3478C48.4243 27.5131 50.02 26.0942 51.577 25.1237C51.9587 24.8857 52.3152 24.6035 52.6384 24.2803C53.756 23.1626 54.3839 21.6468 54.3839 20.0662C54.3839 18.4856 53.756 16.9698 52.6384 15.8521C52.3152 15.5289 51.9587 15.2467 51.577 15.0087C50.02 14.0382 48.4243 12.6193 48.4243 10.7846Z" fill="#F48D62"/>
<path d="M78.3209 3.84732V17.7775H75.2363V3.84732H78.3209Z" fill="white"/>
<path d="M80.6334 17.7775V7.82738H83.3597L83.6184 8.9816H83.7975C84.4741 8.07945 85.3895 7.62838 86.5437 7.62838C87.7378 7.62838 88.5868 8.12589 89.091 9.1209H89.2701C89.9998 8.12589 91.0346 7.62838 92.3745 7.62838C93.4624 7.62838 94.3049 7.94678 94.9019 8.58359C95.5122 9.2204 95.8173 10.1425 95.8173 11.3497V17.7775H92.8322V11.9069C92.8322 11.363 92.6863 10.9451 92.3944 10.6532C92.1026 10.3614 91.7311 10.2154 91.28 10.2154C90.8024 10.2154 90.4177 10.3746 90.1258 10.693C89.8472 11.0114 89.7079 11.4426 89.7079 11.9865V17.7775H86.7229V11.9467C86.7229 11.3895 86.5835 10.9584 86.3049 10.6532C86.0263 10.3481 85.6615 10.1955 85.2104 10.1955C84.7726 10.1955 84.3945 10.3547 84.0761 10.6731C83.771 10.9915 83.6184 11.4293 83.6184 11.9865V17.7775H80.6334Z" fill="white"/>
<path d="M97.7546 17.7775V7.82738H100.481L100.74 8.9816H100.919C101.595 8.07945 102.511 7.62838 103.665 7.62838C104.859 7.62838 105.708 8.12589 106.212 9.1209H106.391C107.121 8.12589 108.156 7.62838 109.496 7.62838C110.584 7.62838 111.426 7.94678 112.023 8.58359C112.633 9.2204 112.939 10.1425 112.939 11.3497V17.7775H109.954V11.9069C109.954 11.363 109.808 10.9451 109.516 10.6532C109.224 10.3614 108.852 10.2154 108.401 10.2154C107.924 10.2154 107.539 10.3746 107.247 10.693C106.968 11.0114 106.829 11.4426 106.829 11.9865V17.7775H103.844V11.9467C103.844 11.3895 103.705 10.9584 103.426 10.6532C103.148 10.3481 102.783 10.1955 102.332 10.1955C101.894 10.1955 101.516 10.3547 101.197 10.6731C100.892 10.9915 100.74 11.4293 100.74 11.9865V17.7775H97.7546Z" fill="white"/>
<path d="M124.927 7.82738V17.7775H122.201L121.942 16.6233H121.763C121.047 17.5255 120.065 17.9765 118.818 17.9765C117.571 17.9765 116.589 17.5984 115.873 16.8422C115.17 16.086 114.818 15.0512 114.818 13.7378V7.82738H117.803V13.1209C117.803 13.8505 117.989 14.4144 118.36 14.8124C118.745 15.1971 119.236 15.3895 119.833 15.3895C120.43 15.3895 120.927 15.1905 121.325 14.7925C121.737 14.3945 121.942 13.8174 121.942 13.0612V7.82738H124.927Z" fill="white"/>
<path d="M131.607 17.9765C129.338 17.9765 128.204 16.9285 128.204 14.8323V10.1756H126.035V7.82738H126.731C127.341 7.82738 127.779 7.70798 128.044 7.46918C128.323 7.21711 128.462 6.82573 128.462 6.29506V5.10104H131.189V7.82738H133.855V10.1756H131.189V14.4343C131.189 14.5935 131.195 14.7262 131.209 14.8323C131.235 14.9384 131.288 15.0645 131.368 15.2104C131.447 15.3563 131.58 15.4691 131.766 15.5487C131.965 15.615 132.217 15.6482 132.522 15.6482C132.787 15.6482 133.119 15.6084 133.517 15.5288V17.7377C132.854 17.8969 132.217 17.9765 131.607 17.9765Z" fill="white"/>
<path d="M144.798 15.5686H145.037V17.7775H143.803C142.728 17.7775 142.012 17.3862 141.654 16.6034C140.977 17.5188 139.889 17.9765 138.39 17.9765C137.289 17.9765 136.407 17.7245 135.743 17.2203C135.08 16.7029 134.748 15.9666 134.748 15.0114C134.748 14.096 135.04 13.3928 135.624 12.902C136.221 12.3978 137.004 12.0927 137.972 11.9865L141.116 11.6482V11.3298C141.116 10.4277 140.639 9.97662 139.684 9.97662C138.768 9.97662 138.238 10.4078 138.092 11.2701H135.107C135.213 10.1823 135.67 9.30664 136.48 8.64329C137.289 7.96668 138.357 7.62838 139.684 7.62838C140.971 7.62838 142.025 7.95342 142.848 8.60349C143.684 9.25357 144.102 10.242 144.102 11.5686V14.8323C144.102 15.3232 144.334 15.5686 144.798 15.5686ZM141.116 13.9368V13.6582L139.007 13.897C138.158 13.9898 137.733 14.3149 137.733 14.8721C137.733 15.4426 138.125 15.7278 138.908 15.7278C139.478 15.7278 139.989 15.5819 140.44 15.29C140.891 14.9981 141.116 14.5471 141.116 13.9368Z" fill="white"/>
<path d="M152.031 7.62838C153.371 7.62838 154.492 8.09272 155.394 9.0214C156.31 9.93681 156.768 11.1905 156.768 12.7826C156.768 14.3481 156.317 15.6084 155.414 16.5636C154.525 17.5056 153.398 17.9765 152.031 17.9765C150.798 17.9765 149.849 17.5653 149.186 16.7427H149.006L148.748 17.7775H146.32V3.64832H149.305V8.56369C149.995 7.94015 150.904 7.62838 152.031 7.62838ZM151.534 15.3895C152.197 15.3895 152.734 15.1507 153.146 14.6731C153.57 14.1955 153.783 13.5653 153.783 12.7826C153.783 12.0131 153.577 11.3962 153.166 10.9318C152.754 10.4542 152.21 10.2154 151.534 10.2154C150.857 10.2154 150.313 10.4542 149.902 10.9318C149.504 11.3962 149.305 12.0131 149.305 12.7826C149.305 13.5653 149.504 14.1955 149.902 14.6731C150.313 15.1507 150.857 15.3895 151.534 15.3895Z" fill="white"/>
<path d="M158.369 17.7775V3.64832H161.354V17.7775H158.369Z" fill="white"/>
<path d="M170.154 14.4741H173C172.814 15.5487 172.297 16.4044 171.448 17.0412C170.612 17.6648 169.531 17.9765 168.204 17.9765C166.665 17.9765 165.405 17.5122 164.423 16.5835C163.441 15.6548 162.95 14.4277 162.95 12.902C162.95 11.2967 163.441 10.0164 164.423 9.0612C165.418 8.10599 166.638 7.62838 168.085 7.62838C169.451 7.62838 170.599 8.05955 171.527 8.9219C172.469 9.78425 172.947 11.0844 172.96 12.8224C172.96 13.0744 172.94 13.3398 172.9 13.6184H165.895C165.962 14.2154 166.194 14.6996 166.592 15.0711C166.99 15.4426 167.527 15.6283 168.204 15.6283C169.265 15.6283 169.915 15.2436 170.154 14.4741ZM168.085 9.97662C167.514 9.97662 167.036 10.1358 166.652 10.4542C166.28 10.7594 166.041 11.1574 165.935 11.6482H170.114C170.061 11.1574 169.849 10.7594 169.478 10.4542C169.106 10.1358 168.642 9.97662 168.085 9.97662Z" fill="white"/>
<path d="M82.2015 36.2849C80.1053 36.2849 78.374 35.6083 77.0075 34.2551C75.641 32.8886 74.9578 31.1771 74.9578 29.1208C74.9578 27.0777 75.641 25.3729 77.0075 24.0064C78.3873 22.6399 80.1252 21.9567 82.2214 21.9567C84.3043 21.9567 86.029 22.6399 87.3955 24.0064C88.7619 25.3729 89.4452 27.0777 89.4452 29.1208C89.4452 31.1639 88.7619 32.8687 87.3955 34.2352C86.0422 35.6016 84.3109 36.2849 82.2015 36.2849ZM82.2214 33.459C83.4021 33.459 84.3772 33.0544 85.1467 32.2451C85.9162 31.4226 86.3009 30.3811 86.3009 29.1208C86.3009 27.8737 85.9162 26.8389 85.1467 26.0163C84.3772 25.1938 83.4021 24.7825 82.2214 24.7825C81.0274 24.7825 80.039 25.1938 79.2562 26.0163C78.4868 26.8256 78.102 27.8604 78.102 29.1208C78.102 30.3811 78.4868 31.4226 79.2562 32.2451C80.039 33.0544 81.0274 33.459 82.2214 33.459Z" fill="white"/>
<path d="M98.2932 21.9567H101.278V36.0859H98.8504L98.5917 35.0511H98.4126C97.7493 35.8736 96.8007 36.2849 95.5669 36.2849C94.2136 36.2849 93.086 35.8139 92.1838 34.872C91.2949 33.9168 90.8505 32.6564 90.8505 31.0909C90.8505 29.4989 91.3016 28.2452 92.2037 27.3297C93.1059 26.4011 94.2269 25.9367 95.5669 25.9367C96.6946 25.9367 97.6033 26.2485 98.2932 26.872V21.9567ZM96.0644 33.6978C96.741 33.6978 97.2783 33.459 97.6763 32.9814C98.0876 32.5038 98.2932 31.8737 98.2932 31.0909C98.2932 30.3214 98.0876 29.7045 97.6763 29.2402C97.2783 28.7626 96.741 28.5238 96.0644 28.5238C95.401 28.5238 94.8637 28.7626 94.4525 29.2402C94.0412 29.7045 93.8355 30.3214 93.8355 31.0909C93.8355 31.8737 94.0412 32.5038 94.4525 32.9814C94.8637 33.459 95.401 33.6978 96.0644 33.6978Z" fill="white"/>
<path d="M110.303 21.9567H113.288V36.0859H110.861L110.602 35.0511H110.423C109.759 35.8736 108.811 36.2849 107.577 36.2849C106.224 36.2849 105.096 35.8139 104.194 34.872C103.305 33.9168 102.861 32.6564 102.861 31.0909C102.861 29.4989 103.312 28.2452 104.214 27.3297C105.116 26.4011 106.237 25.9367 107.577 25.9367C108.705 25.9367 109.613 26.2485 110.303 26.872V21.9567ZM108.075 33.6978C108.751 33.6978 109.288 33.459 109.686 32.9814C110.098 32.5038 110.303 31.8737 110.303 31.0909C110.303 30.3214 110.098 29.7045 109.686 29.2402C109.288 28.7626 108.751 28.5238 108.075 28.5238C107.411 28.5238 106.874 28.7626 106.463 29.2402C106.051 29.7045 105.846 30.3214 105.846 31.0909C105.846 31.8737 106.051 32.5038 106.463 32.9814C106.874 33.459 107.411 33.6978 108.075 33.6978Z" fill="white"/>
<path d="M119.508 36.2849C118.062 36.2849 116.941 35.9798 116.145 35.3695C115.349 34.7592 114.918 33.9101 114.851 32.8222H117.697C117.817 33.6713 118.42 34.0959 119.508 34.0959C120.331 34.0959 120.742 33.8372 120.742 33.3197C120.742 33.0279 120.622 32.8023 120.384 32.6431C120.145 32.4839 119.727 32.3314 119.13 32.1854L118.055 31.9466C117.644 31.8538 117.286 31.7543 116.981 31.6481C116.689 31.5287 116.39 31.3629 116.085 31.1506C115.78 30.9383 115.548 30.6597 115.389 30.3148C115.229 29.9699 115.15 29.5586 115.15 29.081C115.15 28.086 115.528 27.3165 116.284 26.7725C117.04 26.2153 117.969 25.9367 119.07 25.9367C120.41 25.9367 121.445 26.2286 122.175 26.8123C122.904 27.3961 123.309 28.1523 123.389 29.081H120.523C120.417 28.4442 119.939 28.1258 119.09 28.1258C118.758 28.1258 118.493 28.1987 118.294 28.3447C118.095 28.4773 117.996 28.6631 117.996 28.9019C117.996 29.0743 118.062 29.2203 118.195 29.3397C118.341 29.4591 118.493 29.5453 118.652 29.5984C118.825 29.6515 119.103 29.7311 119.488 29.8372L120.583 30.0959C121.564 30.3214 122.307 30.6796 122.811 31.1705C123.316 31.6614 123.568 32.3446 123.568 33.2202C123.568 34.2285 123.19 34.9914 122.433 35.5088C121.677 36.0262 120.702 36.2849 119.508 36.2849Z" fill="white"/>
</svg>
