<svg width="24" height="25" viewBox="0 0 24 25" fill="none" xmlns="http://www.w3.org/2000/svg">
<rect y="0.5" width="24" height="24" rx="12" fill="#FEF4EF"/>
<rect x="3.84082" y="7.69971" width="4.61687" height="9.55215" rx="2.30844" fill="#F48D62"/>
<rect x="9.09473" y="9.60986" width="5.73129" height="5.73129" rx="2.86564" fill="#F48D62"/>
<path d="M15.4629 8.32199C15.4629 7.97804 15.7429 7.69503 16.0839 7.73975C17.1215 7.8758 18.0921 8.35007 18.8401 9.0981C19.7358 9.99379 20.239 11.2086 20.239 12.4753C20.239 13.742 19.7358 14.9568 18.8401 15.8525C18.0921 16.6005 17.1215 17.0748 16.0839 17.2108C15.7429 17.2556 15.4629 16.9725 15.4629 16.6286C15.4629 16.2846 15.7439 16.0114 16.0825 15.9511C16.7887 15.8252 17.4452 15.486 17.9594 14.9718C18.6215 14.3097 18.9934 13.4116 18.9934 12.4753C18.9934 11.5389 18.6215 10.6409 17.9594 9.97883C17.4452 9.46463 16.7887 9.12543 16.0825 8.99954C15.7439 8.93918 15.4629 8.66594 15.4629 8.32199Z" fill="#F48D62"/>
<path d="M15.4629 10.2875C15.4629 9.84719 15.8259 9.47997 16.251 9.59471C16.7575 9.73141 17.2244 9.99879 17.6018 10.3762C18.169 10.9435 18.4877 11.7129 18.4877 12.5151C18.4877 13.3173 18.169 14.0867 17.6018 14.654C17.2244 15.0314 16.7575 15.2988 16.251 15.4355C15.8259 15.5502 15.4629 15.183 15.4629 14.7427C15.4629 14.3024 15.8459 13.9618 16.2195 13.7289C16.3111 13.6718 16.3967 13.604 16.4743 13.5265C16.7425 13.2582 16.8932 12.8944 16.8932 12.5151C16.8932 12.1358 16.7425 11.7719 16.4743 11.5037C16.3967 11.4261 16.3111 11.3584 16.2195 11.3013C15.8459 11.0684 15.4629 10.7278 15.4629 10.2875Z" fill="#F48D62"/>
</svg>
