<svg width="57" height="56" viewBox="0 0 57 56" fill="none" xmlns="http://www.w3.org/2000/svg">
<rect x="0.5" width="56" height="56" rx="28" fill="#171717"/>
<g clip-path="url(#clip0_869_6367)">
<path fill-rule="evenodd" clip-rule="evenodd" d="M21.6709 41.3329L25.8314 42.5711V40.952L26.171 40.571H28.5483V42.4758V43.8091H26.0012L22.8596 42.2853L21.6709 41.3329Z" fill="#CDBDB2"/>
<path fill-rule="evenodd" clip-rule="evenodd" d="M35.2568 41.3329L31.1814 42.5711V40.952L30.8417 40.571H28.4644V42.4758V43.8091H31.0116L34.153 42.2853L35.2568 41.3329Z" fill="#CDBDB2"/>
<path fill-rule="evenodd" clip-rule="evenodd" d="M26.1726 37.8095L25.833 40.9523L26.2575 40.5713H30.6726L31.182 40.9523L30.8424 37.8095L30.1631 37.3333L26.7669 37.4286L26.1726 37.8095Z" fill="#393939"/>
<path fill-rule="evenodd" clip-rule="evenodd" d="M23.8799 16.571L25.9176 21.9044L26.8517 37.4283H30.1629L31.1818 21.9044L33.0497 16.571H23.8799Z" fill="#F89C35"/>
<path fill-rule="evenodd" clip-rule="evenodd" d="M14.9643 28.2854L12.5869 35.9996L18.5303 35.6186H22.351V32.2854L22.1812 25.4282L21.3321 26.1901L14.9643 28.2854Z" fill="#F89D35"/>
<path fill-rule="evenodd" clip-rule="evenodd" d="M19.4639 29.1428L26.4261 29.3333L25.6621 33.3333L22.3507 32.3809L19.4639 29.1428Z" fill="#D87C30"/>
<path fill-rule="evenodd" clip-rule="evenodd" d="M19.4639 29.238L22.3507 32.2857V35.3333L19.4639 29.238Z" fill="#EA8D3A"/>
<path fill-rule="evenodd" clip-rule="evenodd" d="M22.3506 32.3806L25.7468 33.333L26.8507 37.4283L26.0864 37.9044L22.3506 35.4282V32.3806Z" fill="#F89D35"/>
<path fill-rule="evenodd" clip-rule="evenodd" d="M22.3501 35.4285L21.6709 41.3332L26.171 37.8095L22.3501 35.4285Z" fill="#EB8F35"/>
<path fill-rule="evenodd" clip-rule="evenodd" d="M26.4262 29.3333L26.8508 37.4286L25.5771 33.2857L26.4262 29.3333Z" fill="#EA8E3A"/>
<path fill-rule="evenodd" clip-rule="evenodd" d="M18.4463 35.5238L22.3519 35.4285L21.6727 41.3332L18.4463 35.5238Z" fill="#D87C30"/>
<path fill-rule="evenodd" clip-rule="evenodd" d="M14.4548 43.9044L21.6717 41.3329L18.4453 35.5234L12.5869 35.9995L14.4548 43.9044Z" fill="#EB8F35"/>
<path fill-rule="evenodd" clip-rule="evenodd" d="M25.9167 21.9045L22.2658 25.3331L19.4639 29.1426L26.4261 29.4284L25.9167 21.9045Z" fill="#E8821E"/>
<path fill-rule="evenodd" clip-rule="evenodd" d="M21.6709 41.3331L26.171 37.8093L25.8314 40.8569V42.5712L22.7747 41.9045L21.6709 41.3331Z" fill="#DFCEC3"/>
<path fill-rule="evenodd" clip-rule="evenodd" d="M35.2568 41.3331L30.8417 37.8093L31.1814 40.8569V42.5712L34.238 41.9045L35.2568 41.3331Z" fill="#DFCEC3"/>
<path fill-rule="evenodd" clip-rule="evenodd" d="M24.5591 31.0471L25.4932 33.2377L22.1818 32.2853L24.5591 31.0471Z" fill="#393939"/>
<path fill-rule="evenodd" clip-rule="evenodd" d="M14.3701 12.095L25.9173 21.9044L23.9645 16.5711L14.3701 12.095Z" fill="#E88F35"/>
<path fill-rule="evenodd" clip-rule="evenodd" d="M14.3691 12.095L12.8408 17.3331L13.6899 23.0474L13.0955 23.4283L13.9446 24.2854L13.2653 24.9521L14.1993 25.9045L13.605 26.4759L14.9635 28.3807L21.3314 26.1902C24.4446 23.3966 25.9729 21.968 25.9163 21.9045C25.8597 21.841 22.0106 18.5712 14.3691 12.095Z" fill="#8E5A30"/>
<path fill-rule="evenodd" clip-rule="evenodd" d="M41.963 28.2854L44.3403 35.9996L38.3969 35.6186H34.5763V32.2854L34.7461 25.4282L35.5951 26.1901L41.963 28.2854Z" fill="#F89D35"/>
<path fill-rule="evenodd" clip-rule="evenodd" d="M37.4634 29.1426L30.5011 29.3331L31.2652 33.3331L34.5766 32.3807L37.4634 29.1426Z" fill="#D87C30"/>
<path fill-rule="evenodd" clip-rule="evenodd" d="M37.4634 29.2378L34.5766 32.2854V35.333L37.4634 29.2378Z" fill="#EA8D3A"/>
<path fill-rule="evenodd" clip-rule="evenodd" d="M34.5767 32.3804L31.1804 33.3328L30.0766 37.4281L30.8408 37.9042L34.5767 35.428V32.3804Z" fill="#F89D35"/>
<path fill-rule="evenodd" clip-rule="evenodd" d="M34.5771 35.4282L35.2563 41.333L30.8413 37.9044L34.5771 35.4282Z" fill="#EB8F35"/>
<path fill-rule="evenodd" clip-rule="evenodd" d="M30.501 29.333L30.0764 37.4283L31.3501 33.2854L30.501 29.333Z" fill="#EA8E3A"/>
<path fill-rule="evenodd" clip-rule="evenodd" d="M38.481 35.5235L34.5753 35.4282L35.2545 41.333L38.481 35.5235Z" fill="#D87C30"/>
<path fill-rule="evenodd" clip-rule="evenodd" d="M42.4724 43.9044L35.2555 41.3329L38.4819 35.5234L44.3403 35.9995L42.4724 43.9044Z" fill="#EB8F35"/>
<path fill-rule="evenodd" clip-rule="evenodd" d="M31.0105 21.9043L34.6614 25.3329L37.4634 29.1424L30.5011 29.4282L31.0105 21.9043Z" fill="#E8821E"/>
<path fill-rule="evenodd" clip-rule="evenodd" d="M32.3681 31.0469L31.4341 33.2374L34.7455 32.2851L32.3681 31.0469Z" fill="#393939"/>
<path fill-rule="evenodd" clip-rule="evenodd" d="M42.5571 12.0947L31.01 21.9042L32.9627 16.5708L42.5571 12.0947Z" fill="#E88F35"/>
<path fill-rule="evenodd" clip-rule="evenodd" d="M42.5581 12.0947L44.0864 17.3328L43.2374 23.0471L43.8317 23.4281L42.9827 24.2852L43.6619 24.9519L42.7279 25.9043L43.3223 26.4757L41.9638 28.3804L35.5959 26.19C32.4827 23.3963 30.9544 21.9677 31.011 21.9043C31.0676 21.8408 34.9166 18.5709 42.5581 12.0947Z" fill="#8E5A30"/>
</g>
<defs>
<clipPath id="clip0_869_6367">
<rect width="32" height="32" fill="white" transform="translate(12.5 12)"/>
</clipPath>
</defs>
</svg>
