<svg width="80" height="80" viewBox="0 0 80 80" fill="none" xmlns="http://www.w3.org/2000/svg">
<path opacity="0.25" d="M13.1978 68.0471L13.1589 68.4744C13.0923 69.2079 13.6336 69.8564 14.3674 69.9214L36.4717 71.8794L53.6737 76.3068C54.6267 76.5521 55.5998 75.9843 55.8548 75.0336L56.2727 73.4761L59.315 73.8564C60.2693 73.9757 61.1312 73.2777 61.2129 72.3197L63.7974 42.0188L69.5731 17.6962C69.7253 17.055 69.3442 16.4082 68.7096 16.2305L67.8495 15.9896L57.8025 58.7496L54.1165 73.4761L51.2421 74.035L32.8786 69.1646L13.1978 68.0471Z" fill="black"/>
<path d="M58.1235 72.1679C58.0695 72.1679 58.0151 72.1657 57.9608 72.1613L13.6679 68.4888C12.6082 68.4009 11.8172 67.467 11.9051 66.4073L16.736 8.14395C16.7787 7.63057 17.0186 7.16459 17.4117 6.83144C17.8048 6.4986 18.3044 6.33846 18.8175 6.38117L63.1104 10.0537C63.6238 10.0964 64.0897 10.3363 64.4229 10.7294C64.7557 11.1225 64.9159 11.6218 64.8732 12.1352L60.0423 70.3985C59.9996 70.9119 59.7597 71.3779 59.3666 71.711C59.0149 72.0084 58.5788 72.1679 58.1235 72.1679ZM18.657 7.77155C18.5314 7.77155 18.4112 7.81551 18.3144 7.89747C18.261 7.94242 18.217 7.99755 18.1851 8.05965C18.1531 8.12174 18.1338 8.18957 18.1282 8.25919L13.2974 66.5225C13.2732 66.8145 13.4911 67.072 13.7831 67.0962L58.0761 70.7687C58.2177 70.7807 58.3552 70.7364 58.4635 70.6447C58.5718 70.553 58.6381 70.4246 58.6497 70.283L63.4806 12.0196C63.4922 11.878 63.4482 11.7405 63.3566 11.6322C63.3116 11.5787 63.2565 11.5347 63.1944 11.5028C63.1323 11.4708 63.0645 11.4515 62.9948 11.446L18.7019 7.77344C18.6868 7.77218 18.6721 7.77155 18.657 7.77155Z" fill="white"/>
<path d="M52.9623 74.7355C52.7921 74.7355 52.6206 74.7151 52.4514 74.6736L20.2568 66.8139C19.8113 66.705 19.42 66.4174 19.1833 66.0245L10.9035 52.2755C10.6789 51.9028 10.6111 51.4644 10.7122 51.0412L21.6212 5.39367C21.8526 4.42498 22.8304 3.82116 23.8 4.04755L67.2746 14.1966C67.7965 14.3184 68.2386 14.6368 68.5193 15.0934C68.8 15.5499 68.8851 16.0881 68.7586 16.6087L55.0356 73.1017C54.9006 73.6572 54.5574 74.1266 54.0691 74.4237C53.7303 74.6297 53.3494 74.7355 52.9623 74.7355ZM22.9801 5.71803L12.0712 51.3655C12.0558 51.4302 12.0662 51.4974 12.1004 51.5542L20.3802 65.3033C20.4261 65.3793 20.5021 65.4352 20.5884 65.4562L52.783 73.3159C52.9755 73.363 53.1745 73.3322 53.3435 73.2292C53.5127 73.1262 53.6314 72.9636 53.6782 72.7714L67.4012 16.2784C67.4392 16.1227 67.4137 15.9616 67.3296 15.825C67.2885 15.7578 67.2343 15.6994 67.1704 15.6534C67.1064 15.6074 67.034 15.5745 66.9572 15.5569L23.4825 5.4078C23.2587 5.35536 23.0335 5.49477 22.9801 5.71803Z" fill="white"/>
<path d="M20.1229 66.5785C19.8416 66.5785 19.5781 66.4338 19.4274 66.1879L10.8323 52.1651C10.66 51.8837 10.6728 51.5289 10.865 51.261C11.0572 50.9932 11.3894 50.8673 11.7109 50.9405L20.8143 53.0122C22.4013 53.3733 23.4008 54.9587 23.0425 56.5463L20.922 65.9405C20.8486 66.2667 20.5876 66.5126 20.2579 66.5672C20.2127 66.5747 20.1675 66.5785 20.1229 66.5785ZM12.7427 52.6081L19.8733 64.2414L21.6794 56.2386C21.8684 55.4011 21.3412 54.5653 20.5044 54.3747L12.7427 52.6081Z" fill="white"/>
<path opacity="0.1" d="M22.0882 58.268L25.2316 58.9622C27.0032 59.3535 28.1257 61.1021 27.7442 62.8759L27.1856 65.4717C27.1156 65.7973 27.3178 66.1195 27.6418 66.1977L51.5245 71.9586C52.0835 72.0933 52.6465 71.752 52.7852 71.1937L66.8276 14.6693L68.5677 15.5111L59.6191 53.8403L54.7992 73.6577C54.6068 73.749 54.3191 73.869 53.9568 73.9569C52.8393 74.2276 51.8941 73.9792 51.2423 73.7971C49.4939 73.3091 48.6194 73.0651 47.8489 72.7191C46.7348 72.2189 46.4403 72.2243 37.9884 70.3239C33.9268 69.4108 34.6845 69.5644 32.8784 69.1662C29.8634 68.5015 25.5126 67.579 20.0239 66.5425C20.7116 63.784 21.3999 61.0258 22.0882 58.268Z" fill="white"/>
<path opacity="0.25" d="M13.1821 59.4478L17.9398 68.1436L29.2055 69.1264L20.0238 65.8251L13.1972 55.8327L13.1821 59.4478ZM59.5587 60.2802L56.7111 71.4419L54.7241 71.4237L61.0625 47.6888L59.5587 60.2802Z" fill="black"/>
<path d="M34.236 53.5942C33.8918 53.42 33.5684 53.2049 33.255 52.9763C32.9416 52.7445 32.6428 52.4934 32.3605 52.2246C31.7928 51.6861 31.2878 51.0713 30.8699 50.3921C30.4542 49.7123 30.1286 48.9659 29.9245 48.1806C29.8208 47.7884 29.7496 47.3868 29.7065 46.9818C29.6642 46.5767 29.6481 46.1682 29.6657 45.7609C29.6821 45.3537 29.7257 44.948 29.7935 44.5473C29.8617 44.1467 29.9577 43.752 30.0708 43.3639C30.1264 43.1692 30.191 42.9783 30.2551 42.7867L30.359 42.5029C30.3757 42.4558 30.3961 42.4084 30.4165 42.361L30.4771 42.219L30.5989 41.9349C30.6181 41.8868 30.6438 41.8422 30.6664 41.7958L30.7365 41.6579L30.8768 41.3819C30.9277 41.2921 30.9814 41.2039 31.0335 41.115C31.0866 41.0265 31.1381 40.9367 31.1927 40.8491C31.2505 40.7636 31.3092 40.6786 31.3682 40.5935L31.4565 40.466C31.4863 40.4236 31.5146 40.3803 31.5475 40.3407L31.7397 40.0973L31.8361 39.9758C31.8524 39.9557 31.8678 39.935 31.8848 39.9155L31.9366 39.8578L32.1441 39.6273L32.2481 39.512C32.2826 39.4734 32.3212 39.4389 32.3573 39.4022L32.579 39.1852C33.1809 38.6175 33.8611 38.1339 34.5914 37.7458C35.3257 37.3643 36.1067 37.0807 36.9147 36.9021L37.2183 36.8421L37.37 36.8123L37.5028 36.7894C37.679 36.758 37.8536 36.7222 38.0253 36.681C38.3619 36.6018 38.6919 36.4965 39.0122 36.3661C39.3231 36.2377 39.6094 36.0791 39.8487 35.8888C40.0873 35.6979 40.2779 35.4794 40.4045 35.2285C40.4676 35.1029 40.5166 34.9694 40.5477 34.8272C40.5624 34.7559 40.5765 34.6837 40.5838 34.6087L40.5907 34.5518L40.596 34.4834L40.6064 34.3465C40.6334 33.9803 40.6453 33.6061 40.6532 33.2277C40.6594 32.849 40.6667 32.4653 40.6773 32.0769C40.6893 31.6885 40.7047 31.295 40.7458 30.8975C40.7869 30.5003 40.8463 30.0968 40.9577 29.6958C41.0695 29.2967 41.2315 28.8951 41.4812 28.5397C41.7295 28.1846 42.0636 27.8863 42.436 27.6878C42.8091 27.4881 43.2075 27.3732 43.6025 27.3145C43.9982 27.2551 44.3926 27.246 44.7813 27.2661C45.17 27.2875 45.5537 27.3342 45.9324 27.4055C45.5475 27.4146 45.1647 27.4335 44.7879 27.4777C44.4111 27.5195 44.0403 27.5892 43.6876 27.6947C43.3366 27.803 43.0038 27.9497 42.7243 28.1532C42.4439 28.3551 42.22 28.61 42.063 28.9049C41.9032 29.1985 41.8052 29.5297 41.7474 29.8758C41.6897 30.2221 41.6655 30.5829 41.6627 30.9499C41.6608 31.317 41.6727 31.69 41.6912 32.0675C41.7098 32.4452 41.7355 32.827 41.7515 33.2142C41.7685 33.6017 41.7817 33.9935 41.7779 34.3929C41.7779 34.4425 41.777 34.4928 41.7754 34.5427L41.7735 34.6178L41.7685 34.7038C41.7628 34.82 41.7478 34.9374 41.7292 35.0542C41.6903 35.2885 41.6206 35.5224 41.5232 35.7444C41.4262 35.9667 41.3006 36.1761 41.1556 36.3658C41.0111 36.5564 40.845 36.7247 40.6707 36.8748C40.3206 37.1746 39.9357 37.4004 39.5457 37.5791C39.1554 37.7584 38.7557 37.8896 38.3569 37.9945C38.1572 38.0469 37.9575 38.0925 37.7575 38.1327L37.6077 38.1619L37.4783 38.1907L37.2196 38.2476C36.5316 38.4065 35.8647 38.6536 35.2411 38.982C34.6156 39.3073 34.036 39.718 33.5169 40.1941L33.3241 40.3746C33.2924 40.4051 33.2585 40.4336 33.2287 40.466L33.1382 40.5624L32.9571 40.7549L32.9115 40.8029C32.8965 40.8192 32.8833 40.8368 32.8691 40.8534L32.785 40.9555L32.6164 41.159C32.5872 41.1919 32.5627 41.2287 32.5366 41.2642L32.4591 41.3712C32.4076 41.4428 32.3554 41.5138 32.3027 41.5848C32.2534 41.6579 32.2072 41.733 32.1592 41.8071C32.1118 41.8815 32.0631 41.9553 32.0163 42.0303L31.8882 42.2624L31.8238 42.3782C31.8031 42.4172 31.7789 42.4545 31.7617 42.4953L31.6486 42.7356L31.5918 42.8555C31.5726 42.8954 31.5535 42.9353 31.5368 42.978L31.431 43.2288C31.3651 43.3975 31.2982 43.5661 31.2401 43.7372C31.1208 44.0785 31.0209 44.4255 30.9387 44.7759C30.8558 45.126 30.7942 45.4805 30.7569 45.8375C30.7208 46.1942 30.7029 46.5535 30.7132 46.9124C30.7233 47.2716 30.7594 47.6302 30.8168 47.9865C30.874 48.3432 30.9641 48.6952 31.0715 49.0435C31.1786 49.392 31.3152 49.7327 31.47 50.0671C31.7805 50.7356 32.1805 51.3708 32.6456 51.963C32.8789 52.2585 33.1272 52.5452 33.3923 52.8174C33.6582 53.0906 33.9361 53.3534 34.236 53.5942Z" fill="white"/>
</svg>
