<svg width="300" height="300" viewBox="0 0 300 300" fill="none" xmlns="http://www.w3.org/2000/svg">
<path d="M12 0H0V12H12V0Z" fill="#E6E6E6"/>
<path d="M24 0H12V12H24V0Z" fill="#E6E6E6"/>
<path d="M36 0H24V12H36V0Z" fill="#E6E6E6"/>
<path d="M48 0H36V12H48V0Z" fill="#E6E6E6"/>
<path d="M60 0H48V12H60V0Z" fill="#E6E6E6"/>
<path d="M72 0H60V12H72V0Z" fill="#E6E6E6"/>
<path d="M84 0H72V12H84V0Z" fill="#E6E6E6"/>
<path d="M108 0H96V12H108V0Z" fill="#E6E6E6"/>
<path d="M120 0H108V12H120V0Z" fill="#E6E6E6"/>
<path d="M168 0H156V12H168V0Z" fill="#E6E6E6"/>
<path d="M180 0H168V12H180V0Z" fill="#E6E6E6"/>
<path d="M192 0H180V12H192V0Z" fill="#E6E6E6"/>
<path d="M204 0H192V12H204V0Z" fill="#E6E6E6"/>
<path d="M228 0H216V12H228V0Z" fill="#E6E6E6"/>
<path d="M240 0H228V12H240V0Z" fill="#E6E6E6"/>
<path d="M252 0H240V12H252V0Z" fill="#E6E6E6"/>
<path d="M264 0H252V12H264V0Z" fill="#E6E6E6"/>
<path d="M276 0H264V12H276V0Z" fill="#E6E6E6"/>
<path d="M288 0H276V12H288V0Z" fill="#E6E6E6"/>
<path d="M300 0H288V12H300V0Z" fill="#E6E6E6"/>
<path d="M12 12H0V24H12V12Z" fill="#E6E6E6"/>
<path d="M84 12H72V24H84V12Z" fill="#E6E6E6"/>
<path d="M120 12H108V24H120V12Z" fill="#E6E6E6"/>
<path d="M144 12H132V24H144V12Z" fill="#E6E6E6"/>
<path d="M168 12H156V24H168V12Z" fill="#E6E6E6"/>
<path d="M228 12H216V24H228V12Z" fill="#E6E6E6"/>
<path d="M300 12H288V24H300V12Z" fill="#E6E6E6"/>
<path d="M12 24H0V36H12V24Z" fill="#E6E6E6"/>
<path d="M36 24H24V36H36V24Z" fill="#E6E6E6"/>
<path d="M48 24H36V36H48V24Z" fill="#E6E6E6"/>
<path d="M60 24H48V36H60V24Z" fill="#E6E6E6"/>
<path d="M84 24H72V36H84V24Z" fill="#E6E6E6"/>
<path d="M132 24H120V36H132V24Z" fill="#E6E6E6"/>
<path d="M144 24H132V36H144V24Z" fill="#E6E6E6"/>
<path d="M168 24H156V36H168V24Z" fill="#E6E6E6"/>
<path d="M180 24H168V36H180V24Z" fill="#E6E6E6"/>
<path d="M228 24H216V36H228V24Z" fill="#E6E6E6"/>
<path d="M252 24H240V36H252V24Z" fill="#E6E6E6"/>
<path d="M264 24H252V36H264V24Z" fill="#E6E6E6"/>
<path d="M276 24H264V36H276V24Z" fill="#E6E6E6"/>
<path d="M300 24H288V36H300V24Z" fill="#E6E6E6"/>
<path d="M12 36H0V48H12V36Z" fill="#E6E6E6"/>
<path d="M36 36H24V48H36V36Z" fill="#E6E6E6"/>
<path d="M48 36H36V48H48V36Z" fill="#E6E6E6"/>
<path d="M60 36H48V48H60V36Z" fill="#E6E6E6"/>
<path d="M84 36H72V48H84V36Z" fill="#E6E6E6"/>
<path d="M120 36H108V48H120V36Z" fill="#E6E6E6"/>
<path d="M144 36H132V48H144V36Z" fill="#E6E6E6"/>
<path d="M168 36H156V48H168V36Z" fill="#E6E6E6"/>
<path d="M228 36H216V48H228V36Z" fill="#E6E6E6"/>
<path d="M252 36H240V48H252V36Z" fill="#E6E6E6"/>
<path d="M264 36H252V48H264V36Z" fill="#E6E6E6"/>
<path d="M276 36H264V48H276V36Z" fill="#E6E6E6"/>
<path d="M300 36H288V48H300V36Z" fill="#E6E6E6"/>
<path d="M12 48H0V60H12V48Z" fill="#E6E6E6"/>
<path d="M36 48H24V60H36V48Z" fill="#E6E6E6"/>
<path d="M48 48H36V60H48V48Z" fill="#E6E6E6"/>
<path d="M60 48H48V60H60V48Z" fill="#E6E6E6"/>
<path d="M84 48H72V60H84V48Z" fill="#E6E6E6"/>
<path d="M120 48H108V60H120V48Z" fill="#E6E6E6"/>
<path d="M144 48H132V60H144V48Z" fill="#E6E6E6"/>
<path d="M168 48H156V60H168V48Z" fill="#E6E6E6"/>
<path d="M204 48H192V60H204V48Z" fill="#E6E6E6"/>
<path d="M228 48H216V60H228V48Z" fill="#E6E6E6"/>
<path d="M252 48H240V60H252V48Z" fill="#E6E6E6"/>
<path d="M264 48H252V60H264V48Z" fill="#E6E6E6"/>
<path d="M276 48H264V60H276V48Z" fill="#E6E6E6"/>
<path d="M300 48H288V60H300V48Z" fill="#E6E6E6"/>
<path d="M12 60H0V72H12V60Z" fill="#E6E6E6"/>
<path d="M84 60H72V72H84V60Z" fill="#E6E6E6"/>
<path d="M144 60H132V72H144V60Z" fill="#E6E6E6"/>
<path d="M156 60H144V72H156V60Z" fill="#E6E6E6"/>
<path d="M204 60H192V72H204V60Z" fill="#E6E6E6"/>
<path d="M228 60H216V72H228V60Z" fill="#E6E6E6"/>
<path d="M300 60H288V72H300V60Z" fill="#E6E6E6"/>
<path d="M12 72H0V84H12V72Z" fill="#E6E6E6"/>
<path d="M24 72H12V84H24V72Z" fill="#E6E6E6"/>
<path d="M36 72H24V84H36V72Z" fill="#E6E6E6"/>
<path d="M48 72H36V84H48V72Z" fill="#E6E6E6"/>
<path d="M60 72H48V84H60V72Z" fill="#E6E6E6"/>
<path d="M72 72H60V84H72V72Z" fill="#E6E6E6"/>
<path d="M84 72H72V84H84V72Z" fill="#E6E6E6"/>
<path d="M108 72H96V84H108V72Z" fill="#E6E6E6"/>
<path d="M132 72H120V84H132V72Z" fill="#E6E6E6"/>
<path d="M156 72H144V84H156V72Z" fill="#E6E6E6"/>
<path d="M180 72H168V84H180V72Z" fill="#E6E6E6"/>
<path d="M204 72H192V84H204V72Z" fill="#E6E6E6"/>
<path d="M228 72H216V84H228V72Z" fill="#E6E6E6"/>
<path d="M240 72H228V84H240V72Z" fill="#E6E6E6"/>
<path d="M252 72H240V84H252V72Z" fill="#E6E6E6"/>
<path d="M264 72H252V84H264V72Z" fill="#E6E6E6"/>
<path d="M276 72H264V84H276V72Z" fill="#E6E6E6"/>
<path d="M288 72H276V84H288V72Z" fill="#E6E6E6"/>
<path d="M300 72H288V84H300V72Z" fill="#E6E6E6"/>
<path d="M144 84H132V96H144V84Z" fill="#E6E6E6"/>
<path d="M156 84H144V96H156V84Z" fill="#E6E6E6"/>
<path d="M168 84H156V96H168V84Z" fill="#E6E6E6"/>
<path d="M192 84H180L180 96H192V84Z" fill="#E6E6E6"/>
<path d="M204 84H192V96H204V84Z" fill="#E6E6E6"/>
<path d="M24 96H12V108H24V96Z" fill="#E6E6E6"/>
<path d="M36 96H24V108H36V96Z" fill="#E6E6E6"/>
<path d="M48 96H36V108H48V96Z" fill="#E6E6E6"/>
<path d="M84 96H72V108H84V96Z" fill="#E6E6E6"/>
<path d="M96 96H84V108H96V96Z" fill="#E6E6E6"/>
<path d="M108 96H96V108H108V96Z" fill="#E6E6E6"/>
<path d="M120 96H108V108H120V96Z" fill="#E6E6E6"/>
<path d="M132 96H120V108H132V96Z" fill="#E6E6E6"/>
<path d="M192 96H180V108H192V96Z" fill="#E6E6E6"/>
<path d="M204 96H192V108H204V96Z" fill="#E6E6E6"/>
<path d="M216 96H204V108H216V96Z" fill="#E6E6E6"/>
<path d="M300 96H288V108H300V96Z" fill="#E6E6E6"/>
<path d="M72 108H60V120H72V108Z" fill="#E6E6E6"/>
<path d="M108 108H96V120H108V108Z" fill="#E6E6E6"/>
<path d="M132 108H120V120H132V108Z" fill="#E6E6E6"/>
<path d="M144 108H132V120H144V108Z" fill="#E6E6E6"/>
<path d="M180 108H168V120H180L180 108Z" fill="#E6E6E6"/>
<path d="M192 108H180L180 120H192V108Z" fill="#E6E6E6"/>
<path d="M204 108H192V120H204V108Z" fill="#E6E6E6"/>
<path d="M240 108H228V120H240V108Z" fill="#E6E6E6"/>
<path d="M252 108H240V120H252V108Z" fill="#E6E6E6"/>
<path d="M264 108H252V120H264V108Z" fill="#E6E6E6"/>
<path d="M288 108H276V120H288V108Z" fill="#E6E6E6"/>
<path d="M300 108H288V120H300V108Z" fill="#E6E6E6"/>
<path d="M12 120H0V132H12V120Z" fill="#E6E6E6"/>
<path d="M24 120H12V132H24V120Z" fill="#E6E6E6"/>
<path d="M36 120H24V132H36V120Z" fill="#E6E6E6"/>
<path d="M48 120H36V132H48V120Z" fill="#E6E6E6"/>
<path d="M72 120H60V132H72V120Z" fill="#E6E6E6"/>
<path d="M84 120H72V132H84V120Z" fill="#E6E6E6"/>
<path d="M96 120H84V132H96V120Z" fill="#E6E6E6"/>
<path d="M108 120H96V132H108V120Z" fill="#E6E6E6"/>
<path d="M120 120H108V132H120V120Z" fill="#E6E6E6"/>
<path d="M156 120H144V132H156V120Z" fill="#E6E6E6"/>
<path d="M216 120H204V132H216V120Z" fill="#E6E6E6"/>
<path d="M240 120H228V132H240V120Z" fill="#E6E6E6"/>
<path d="M276 120H264V132H276V120Z" fill="#E6E6E6"/>
<path d="M12 132H0V144H12V132Z" fill="#E6E6E6"/>
<path d="M36 132H24V144H36V132Z" fill="#E6E6E6"/>
<path d="M72 132H60V144H72V132Z" fill="#E6E6E6"/>
<path d="M132 132H120V144H132V132Z" fill="#E6E6E6"/>
<path d="M144 132H132V144H144V132Z" fill="#E6E6E6"/>
<path d="M156 132H144V144H156V132Z" fill="#E6E6E6"/>
<path d="M240 132H228V144H240V132Z" fill="#E6E6E6"/>
<path d="M252 132H240V144H252V132Z" fill="#E6E6E6"/>
<path d="M300 132H288V144H300V132Z" fill="#E6E6E6"/>
<path d="M24 144H12V156H24V144Z" fill="#E6E6E6"/>
<path d="M36 144H24V156H36V144Z" fill="#E6E6E6"/>
<path d="M48 144H36V156H48V144Z" fill="#E6E6E6"/>
<path d="M60 144H48V156H60V144Z" fill="#E6E6E6"/>
<path d="M72 144H60V156H72V144Z" fill="#E6E6E6"/>
<path d="M84 144H72V156H84V144Z" fill="#E6E6E6"/>
<path d="M108 144H96V156H108V144Z" fill="#E6E6E6"/>
<path d="M168 144H156V156H168V144Z" fill="#E6E6E6"/>
<path d="M192 144H180V156H192V144Z" fill="#E6E6E6"/>
<path d="M204 144H192V156H204V144Z" fill="#E6E6E6"/>
<path d="M228 144H216V156H228V144Z" fill="#E6E6E6"/>
<path d="M264 144H252V156H264V144Z" fill="#E6E6E6"/>
<path d="M288 144H276V156H288V144Z" fill="#E6E6E6"/>
<path d="M300 144H288V156H300V144Z" fill="#E6E6E6"/>
<path d="M12 156H0V168H12V156Z" fill="#E6E6E6"/>
<path d="M24 156H12V168H24V156Z" fill="#E6E6E6"/>
<path d="M60 156H48V168H60V156Z" fill="#E6E6E6"/>
<path d="M72 156H60V168H72V156Z" fill="#E6E6E6"/>
<path d="M96 156H84V168H96V156Z" fill="#E6E6E6"/>
<path d="M156 156H144V168H156V156Z" fill="#E6E6E6"/>
<path d="M168 156H156V168H168V156Z" fill="#E6E6E6"/>
<path d="M180 156H168V168H180L180 156Z" fill="#E6E6E6"/>
<path d="M192 156H180L180 168H192V156Z" fill="#E6E6E6"/>
<path d="M228 156H216V168H228V156Z" fill="#E6E6E6"/>
<path d="M264 156H252V168H264V156Z" fill="#E6E6E6"/>
<path d="M276 156H264V168H276V156Z" fill="#E6E6E6"/>
<path d="M288 156H276V168H288V156Z" fill="#E6E6E6"/>
<path d="M300 156H288V168H300V156Z" fill="#E6E6E6"/>
<path d="M48 168H36V180H48V168Z" fill="#E6E6E6"/>
<path d="M72 168H60V180H72V168Z" fill="#E6E6E6"/>
<path d="M84 168H72V180H84V168Z" fill="#E6E6E6"/>
<path d="M108 168H96V180H108V168Z" fill="#E6E6E6"/>
<path d="M120 168H108V180H120V168Z" fill="#E6E6E6"/>
<path d="M144 168H132V180H144V168Z" fill="#E6E6E6"/>
<path d="M156 168H144V180H156V168Z" fill="#E6E6E6"/>
<path d="M168 168H156V180H168V168Z" fill="#E6E6E6"/>
<path d="M180 168H168V180H180V168Z" fill="#E6E6E6"/>
<path d="M192 168H180V180H192V168Z" fill="#E6E6E6"/>
<path d="M204 168H192V180H204V168Z" fill="#E6E6E6"/>
<path d="M228 168H216V180H228V168Z" fill="#E6E6E6"/>
<path d="M240 168H228V180H240V168Z" fill="#E6E6E6"/>
<path d="M276 168H264V180H276V168Z" fill="#E6E6E6"/>
<path d="M36 180L24 180V192H36V180Z" fill="#E6E6E6"/>
<path d="M96 180H84V192H96V180Z" fill="#E6E6E6"/>
<path d="M108 180H96V192H108V180Z" fill="#E6E6E6"/>
<path d="M120 180H108V192H120V180Z" fill="#E6E6E6"/>
<path d="M132 180H120V192H132V180Z" fill="#E6E6E6"/>
<path d="M168 180H156V192H168V180Z" fill="#E6E6E6"/>
<path d="M180 180H168V192H180V180Z" fill="#E6E6E6"/>
<path d="M204 180H192V192H204V180Z" fill="#E6E6E6"/>
<path d="M216 180H204V192H216V180Z" fill="#E6E6E6"/>
<path d="M240 180H228V192H240V180Z" fill="#E6E6E6"/>
<path d="M252 180L240 180V192H252V180Z" fill="#E6E6E6"/>
<path d="M24 192H12V204H24V192Z" fill="#E6E6E6"/>
<path d="M36 192H24V204H36V192Z" fill="#E6E6E6"/>
<path d="M48 192H36V204H48V192Z" fill="#E6E6E6"/>
<path d="M60 192H48V204H60V192Z" fill="#E6E6E6"/>
<path d="M84 192H72V204H84V192Z" fill="#E6E6E6"/>
<path d="M132 192H120V204H132V192Z" fill="#E6E6E6"/>
<path d="M144 192H132V204H144V192Z" fill="#E6E6E6"/>
<path d="M156 192H144V204H156V192Z" fill="#E6E6E6"/>
<path d="M168 192H156V204H168V192Z" fill="#E6E6E6"/>
<path d="M180 192H168V204H180V192Z" fill="#E6E6E6"/>
<path d="M204 192H192V204H204V192Z" fill="#E6E6E6"/>
<path d="M216 192H204V204H216V192Z" fill="#E6E6E6"/>
<path d="M228 192H216V204H228V192Z" fill="#E6E6E6"/>
<path d="M240 192H228V204H240V192Z" fill="#E6E6E6"/>
<path d="M252 192H240V204H252V192Z" fill="#E6E6E6"/>
<path d="M276 192H264V204H276V192Z" fill="#E6E6E6"/>
<path d="M300 192H288V204H300V192Z" fill="#E6E6E6"/>
<path d="M108 204H96V216H108V204Z" fill="#E6E6E6"/>
<path d="M180 204H168V216H180V204Z" fill="#E6E6E6"/>
<path d="M204 204H192V216H204V204Z" fill="#E6E6E6"/>
<path d="M252 204H240V216H252V204Z" fill="#E6E6E6"/>
<path d="M300 204H288V216H300V204Z" fill="#E6E6E6"/>
<path d="M12 216H0V228H12V216Z" fill="#E6E6E6"/>
<path d="M24 216H12V228H24V216Z" fill="#E6E6E6"/>
<path d="M36 216H24V228H36V216Z" fill="#E6E6E6"/>
<path d="M48 216H36V228H48V216Z" fill="#E6E6E6"/>
<path d="M60 216H48V228H60V216Z" fill="#E6E6E6"/>
<path d="M72 216H60V228H72V216Z" fill="#E6E6E6"/>
<path d="M84 216H72V228H84V216Z" fill="#E6E6E6"/>
<path d="M108 216H96V228H108V216Z" fill="#E6E6E6"/>
<path d="M120 216H108V228H120V216Z" fill="#E6E6E6"/>
<path d="M144 216H132V228H144V216Z" fill="#E6E6E6"/>
<path d="M156 216H144V228H156V216Z" fill="#E6E6E6"/>
<path d="M168 216H156V228H168V216Z" fill="#E6E6E6"/>
<path d="M180 216H168V228H180V216Z" fill="#E6E6E6"/>
<path d="M204 216H192V228H204V216Z" fill="#E6E6E6"/>
<path d="M228 216H216V228H228V216Z" fill="#E6E6E6"/>
<path d="M252 216H240V228H252V216Z" fill="#E6E6E6"/>
<path d="M264 216H252V228H264V216Z" fill="#E6E6E6"/>
<path d="M288 216H276V228H288V216Z" fill="#E6E6E6"/>
<path d="M300 216H288V228H300V216Z" fill="#E6E6E6"/>
<path d="M12 228H0V240H12V228Z" fill="#E6E6E6"/>
<path d="M84 228H72V240H84V228Z" fill="#E6E6E6"/>
<path d="M120 228H108V240H120V228Z" fill="#E6E6E6"/>
<path d="M144 228H132V240H144V228Z" fill="#E6E6E6"/>
<path d="M156 228H144V240H156V228Z" fill="#E6E6E6"/>
<path d="M168 228H156V240H168V228Z" fill="#E6E6E6"/>
<path d="M204 228H192V240H204V228Z" fill="#E6E6E6"/>
<path d="M252 228H240V240H252V228Z" fill="#E6E6E6"/>
<path d="M12 240H0V252H12V240Z" fill="#E6E6E6"/>
<path d="M36 240H24V252H36V240Z" fill="#E6E6E6"/>
<path d="M48 240H36V252H48V240Z" fill="#E6E6E6"/>
<path d="M60 240H48V252H60V240Z" fill="#E6E6E6"/>
<path d="M84 240H72V252H84V240Z" fill="#E6E6E6"/>
<path d="M120 240H108V252H120V240Z" fill="#E6E6E6"/>
<path d="M132 240H120V252H132V240Z" fill="#E6E6E6"/>
<path d="M144 240H132V252H144V240Z" fill="#E6E6E6"/>
<path d="M156 240H144V252H156V240Z" fill="#E6E6E6"/>
<path d="M192 240H180V252H192V240Z" fill="#E6E6E6"/>
<path d="M204 240H192V252H204V240Z" fill="#E6E6E6"/>
<path d="M216 240H204V252H216V240Z" fill="#E6E6E6"/>
<path d="M228 240H216V252H228V240Z" fill="#E6E6E6"/>
<path d="M240 240H228V252H240V240Z" fill="#E6E6E6"/>
<path d="M252 240H240V252H252V240Z" fill="#E6E6E6"/>
<path d="M300 240H288V252H300V240Z" fill="#E6E6E6"/>
<path d="M12 252H0V264H12V252Z" fill="#E6E6E6"/>
<path d="M36 252H24V264H36V252Z" fill="#E6E6E6"/>
<path d="M48 252H36V264H48V252Z" fill="#E6E6E6"/>
<path d="M60 252H48V264H60V252Z" fill="#E6E6E6"/>
<path d="M84 252H72V264H84V252Z" fill="#E6E6E6"/>
<path d="M108 252H96V264H108V252Z" fill="#E6E6E6"/>
<path d="M144 252H132V264H144V252Z" fill="#E6E6E6"/>
<path d="M168 252H156V264H168V252Z" fill="#E6E6E6"/>
<path d="M192 252H180V264H192V252Z" fill="#E6E6E6"/>
<path d="M204 252H192V264H204V252Z" fill="#E6E6E6"/>
<path d="M216 252H204V264H216V252Z" fill="#E6E6E6"/>
<path d="M240 252H228V264H240V252Z" fill="#E6E6E6"/>
<path d="M288 252H276V264H288V252Z" fill="#E6E6E6"/>
<path d="M12 264H0V276H12V264Z" fill="#E6E6E6"/>
<path d="M36 264H24V276H36V264Z" fill="#E6E6E6"/>
<path d="M48 264H36V276H48V264Z" fill="#E6E6E6"/>
<path d="M60 264H48V276H60V264Z" fill="#E6E6E6"/>
<path d="M84 264H72V276H84V264Z" fill="#E6E6E6"/>
<path d="M108 264H96V276H108V264Z" fill="#E6E6E6"/>
<path d="M120 264H108V276H120V264Z" fill="#E6E6E6"/>
<path d="M192 264H180V276H192V264Z" fill="#E6E6E6"/>
<path d="M204 264H192V276H204V264Z" fill="#E6E6E6"/>
<path d="M228 264H216V276H228V264Z" fill="#E6E6E6"/>
<path d="M252 264H240V276H252V264Z" fill="#E6E6E6"/>
<path d="M264 264H252V276H264V264Z" fill="#E6E6E6"/>
<path d="M276 264H264V276H276V264Z" fill="#E6E6E6"/>
<path d="M12 276H0V288H12V276Z" fill="#E6E6E6"/>
<path d="M84 276H72V288H84V276Z" fill="#E6E6E6"/>
<path d="M108 276H96V288H108V276Z" fill="#E6E6E6"/>
<path d="M120 276H108V288H120V276Z" fill="#E6E6E6"/>
<path d="M132 276H120V288H132V276Z" fill="#E6E6E6"/>
<path d="M144 276H132V288H144V276Z" fill="#E6E6E6"/>
<path d="M180 276H168V288H180L180 276Z" fill="#E6E6E6"/>
<path d="M216 276H204V288H216V276Z" fill="#E6E6E6"/>
<path d="M264 276H252V288H264V276Z" fill="#E6E6E6"/>
<path d="M12 288H0V300H12V288Z" fill="#E6E6E6"/>
<path d="M24 288H12V300H24V288Z" fill="#E6E6E6"/>
<path d="M36 288H24V300H36V288Z" fill="#E6E6E6"/>
<path d="M48 288H36V300H48V288Z" fill="#E6E6E6"/>
<path d="M60 288H48V300H60V288Z" fill="#E6E6E6"/>
<path d="M72 288H60V300H72V288Z" fill="#E6E6E6"/>
<path d="M84 288H72V300H84V288Z" fill="#E6E6E6"/>
<path d="M132 288H120V300H132V288Z" fill="#E6E6E6"/>
<path d="M144 288H132V300H144V288Z" fill="#E6E6E6"/>
<path d="M156 288H144V300H156V288Z" fill="#E6E6E6"/>
<path d="M180 288H168V300H180V288Z" fill="#E6E6E6"/>
<path d="M204 288H192V300H204V288Z" fill="#E6E6E6"/>
<path d="M216 288H204V300H216V288Z" fill="#E6E6E6"/>
<path d="M228 288H216V300H228V288Z" fill="#E6E6E6"/>
<path d="M252 288H240V300H252V288Z" fill="#E6E6E6"/>
<path d="M264 288H252V300H264V288Z" fill="#E6E6E6"/>
<path d="M276 288H264V300H276V288Z" fill="#E6E6E6"/>
<path d="M288 288H276V300H288V288Z" fill="#E6E6E6"/>
<path d="M300 288H288V300H300V288Z" fill="#E6E6E6"/>
</svg>
