<svg width="80" height="80" viewBox="0 0 80 80" fill="none" xmlns="http://www.w3.org/2000/svg">
<path d="M55 63.3332H61.6667C62.5867 63.3338 63.3327 62.5883 63.3333 61.6683C63.3333 61.6677 63.3333 61.6689 63.3333 61.6683V44.9998C63.3333 44.0794 62.5871 43.3332 61.6667 43.3332C60.7462 43.3332 60 44.0794 60 44.9998V59.9998H55C54.0796 59.9998 53.3333 60.7461 53.3333 61.6665C53.3333 62.5869 54.0796 63.3332 55 63.3332ZM44.9982 53.3332C44.9975 53.3332 44.9988 53.3332 44.9982 53.3332C45.9182 53.3338 46.666 52.5883 46.6667 51.6683C46.6667 51.6677 46.6667 51.6689 46.6667 51.6683V46.6665H51.6667C52.5871 46.6665 53.3333 45.9202 53.3333 44.9998C53.3333 44.0794 52.5871 43.3332 51.6667 43.3332H45C44.08 43.3326 43.3339 44.078 43.3333 44.9978C43.3333 44.9972 43.3333 44.9986 43.3333 44.9978V51.6665C43.3327 52.5865 44.0782 53.3326 44.9982 53.3332ZM55.4167 53.3332C55.4167 52.1827 54.4838 51.2498 53.3333 51.2498C52.1828 51.2498 51.25 52.1827 51.25 53.3332C51.25 54.4837 52.1828 55.4165 53.3333 55.4165C54.4838 55.4165 55.4167 54.4837 55.4167 53.3332ZM65 6.6665H51.6667C50.7462 6.6665 50 7.41276 50 8.33317C50 9.25358 50.7462 9.99984 51.6667 9.99984H65C67.7602 10.0029 69.9969 12.2396 70 14.9998V28.3332C70 29.2536 70.7462 29.9998 71.6667 29.9998C72.5871 29.9998 73.3333 29.2536 73.3333 28.3332V14.9998C73.329 10.3992 69.6006 6.67078 65 6.6665ZM44.9982 36.6665C44.9975 36.6665 44.9988 36.6665 44.9982 36.6665H61.6667C62.5867 36.6671 63.3327 35.9217 63.3333 35.0017C63.3333 35.0011 63.3333 35.0023 63.3333 35.0017V18.3332C63.3339 17.4132 62.5885 16.6671 61.6687 16.6665C61.6679 16.6665 61.6693 16.6665 61.6687 16.6665H45C44.08 16.6659 43.3339 17.4113 43.3333 18.3311C43.3333 18.3305 43.3333 18.332 43.3333 18.3311V34.9998C43.3327 35.9198 44.0782 36.6659 44.9982 36.6665ZM46.6667 19.9998H60V33.3332H46.6667V19.9998ZM48.3333 59.9998H46.6667V58.3332C46.6667 57.4128 45.9204 56.6665 45 56.6665C44.0796 56.6665 43.3333 57.4128 43.3333 58.3332V61.6665C43.3327 62.5865 44.0782 63.3326 44.9982 63.3332C44.9975 63.3332 44.9988 63.3332 44.9982 63.3332H48.3333C49.2537 63.3332 50 62.5869 50 61.6665C50 60.7461 49.2537 59.9998 48.3333 59.9998ZM35.002 16.6665C35.0012 16.6665 35.0026 16.6665 35.002 16.6665H18.3333C17.4133 16.6659 16.6673 17.4113 16.6667 18.3311C16.6667 18.3305 16.6667 18.332 16.6667 18.3311V34.9998C16.666 35.9198 17.4115 36.6659 18.3313 36.6665C18.3307 36.6665 18.3321 36.6665 18.3313 36.6665H35C35.92 36.6671 36.666 35.9217 36.6667 35.0017C36.6667 35.0011 36.6667 35.0023 36.6667 35.0017V18.3332C36.6673 17.4132 35.9218 16.6671 35.002 16.6665ZM33.3333 33.3332H20V19.9998H33.3333V33.3332ZM35.002 43.3332C35.0012 43.3332 35.0026 43.3332 35.002 43.3332H18.3333C17.4133 43.3326 16.6673 44.078 16.6667 44.9978C16.6667 44.9972 16.6667 44.9986 16.6667 44.9978V61.6665C16.666 62.5865 17.4115 63.3326 18.3313 63.3332C18.3307 63.3332 18.3321 63.3332 18.3313 63.3332H35C35.92 63.3338 36.666 62.5883 36.6667 61.6683C36.6667 61.6677 36.6667 61.6689 36.6667 61.6683V44.9998C36.6673 44.0798 35.9218 43.3338 35.002 43.3332ZM33.3333 59.9998H20V46.6665H33.3333V59.9998ZM71.6687 49.9998C71.6679 49.9998 71.6693 49.9998 71.6687 49.9998C70.7487 49.9992 70.0006 50.7447 70 51.6645C70 51.6639 70 51.6653 70 51.6645V64.9998C69.9969 67.76 67.7602 69.9968 65 69.9998H51.6667C50.7462 69.9998 50 70.7461 50 71.6665C50 72.5869 50.7462 73.3332 51.6667 73.3332H65C69.6006 73.3289 73.329 69.6005 73.3333 64.9998V51.6665C73.3339 50.7465 72.5885 50.0004 71.6687 49.9998ZM28.3333 69.9998H15C12.2398 69.9968 10.003 67.76 9.99999 64.9998V51.6665C9.99999 50.7461 9.25373 49.9998 8.33332 49.9998C7.41291 49.9998 6.66666 50.7461 6.66666 51.6665V64.9998C6.67093 69.6005 10.3994 73.3289 15 73.3332H28.3333C29.2537 73.3332 30 72.5869 30 71.6665C30 70.7461 29.2537 69.9998 28.3333 69.9998ZM8.33129 29.9998C8.33068 29.9998 8.3321 29.9998 8.33129 29.9998C9.25129 30.0004 9.99938 29.255 9.99999 28.335C9.99999 28.3344 9.99999 28.3356 9.99999 28.335V14.9998C10.003 12.2396 12.2398 10.0029 15 9.99984H28.3333C29.2537 9.99984 30 9.25358 30 8.33317C30 7.41276 29.2537 6.6665 28.3333 6.6665H15C10.3994 6.67078 6.67093 10.3992 6.66666 14.9998V28.3332C6.66605 29.2532 7.41149 29.9992 8.33129 29.9998Z" fill="#999999"/>
</svg>
