<svg width="18" height="20" viewBox="0 0 18 20" fill="none" xmlns="http://www.w3.org/2000/svg">
<path d="M15.7 19.5H2.3C1.8 19.5 1.375 19.325 1.025 18.975C0.675 18.625 0.5 18.2 0.5 17.7V6.3C0.5 5.8 0.675 5.375 1.025 5.025C1.375 4.675 1.8 4.5 2.3 4.5H4.5C4.5 3.25 4.93733 2.18733 5.812 1.312C6.68733 0.437333 7.75 0 9 0C10.25 0 11.3127 0.437333 12.188 1.312C13.0627 2.18733 13.5 3.25 13.5 4.5H15.7C16.2 4.5 16.625 4.675 16.975 5.025C17.325 5.375 17.5 5.8 17.5 6.3V17.7C17.5 18.2 17.325 18.625 16.975 18.975C16.625 19.325 16.2 19.5 15.7 19.5ZM6 4.5H12C12 3.66667 11.7083 2.95833 11.125 2.375C10.5417 1.79167 9.83333 1.5 9 1.5C8.16667 1.5 7.45833 1.79167 6.875 2.375C6.29167 2.95833 6 3.66667 6 4.5ZM15.7 18C15.7833 18 15.8543 17.971 15.913 17.913C15.971 17.8543 16 17.7833 16 17.7V6.3C16 6.21667 15.971 6.14567 15.913 6.087C15.8543 6.029 15.7833 6 15.7 6H2.3C2.21667 6 2.146 6.029 2.088 6.087C2.02933 6.14567 2 6.21667 2 6.3V17.7C2 17.7833 2.02933 17.8543 2.088 17.913C2.146 17.971 2.21667 18 2.3 18H15.7ZM9 11.5C10.1333 11.5 11.15 11.1167 12.05 10.35C12.95 9.58333 13.3917 8.71667 13.375 7.75C13.375 7.53333 13.3083 7.354 13.175 7.212C13.0417 7.07067 12.8667 7 12.65 7C12.4667 7 12.3083 7.06267 12.175 7.188C12.0417 7.31267 11.9417 7.48333 11.875 7.7C11.7417 8.36667 11.4 8.91667 10.85 9.35C10.3 9.78333 9.68333 10 9 10C8.31667 10 7.7 9.78333 7.15 9.35C6.6 8.91667 6.25833 8.36667 6.125 7.7C6.05833 7.46667 5.96267 7.29167 5.838 7.175C5.71267 7.05833 5.55833 7 5.375 7C5.175 7 5 7.07067 4.85 7.212C4.7 7.354 4.625 7.53333 4.625 7.75C4.625 8.71667 5.071 9.58333 5.963 10.35C6.85433 11.1167 7.86667 11.5 9 11.5Z" fill="#FFFFFF"/>
</svg>
